<?xml version="1.0" encoding="UTF-8" standalone="no"?>
<!DOCTYPE svg PUBLIC "-//W3C//DTD SVG 1.1//EN"
 "http://www.w3.org/Graphics/SVG/1.1/DTD/svg11.dtd">
<!-- Generated by graphviz version 2.40.1 (20161225.0304)
 -->
<!-- Title: state transitions Pages: 1 -->
<svg width="494pt" height="692pt"
 viewBox="0.00 0.00 494.00 692.00" xmlns="http://www.w3.org/2000/svg" xmlns:xlink="http://www.w3.org/1999/xlink">
<g id="graph0" class="graph" transform="scale(1 1) rotate(0) translate(4 688)">
<title>state transitions</title>
<polygon fill="#ffffff" stroke="transparent" points="-4,4 -4,-688 490,-688 490,4 -4,4"/>
<g id="clust1" class="cluster state regular">
<title>cluster_sign_ctrl_fsm_st</title>
<path fill="none" stroke="#000000" stroke-width="2" d="M20,-8C20,-8 466,-8 466,-8 472,-8 478,-14 478,-20 478,-20 478,-664 478,-664 478,-670 472,-676 466,-676 466,-676 20,-676 20,-676 14,-676 8,-670 8,-664 8,-664 8,-20 8,-20 8,-14 14,-8 20,-8"/>
<text text-anchor="start" x="199.6632" y="-657.2" font-family="Helvetica,sans-Serif" font-size="12.00" fill="#000000">sign_ctrl_fsm_st</text>
</g>
<!-- sign_ctrl_fsm_st -->
<!-- STARTER_ST -->
<g id="node2" class="node state regular">
<title>STARTER_ST</title>
<polygon fill="#ffffff" fill-opacity="0.003922" stroke="transparent" stroke-width="2" points="274,-638 174,-638 174,-602 274,-602 274,-638"/>
<text text-anchor="start" x="185" y="-616.2" font-family="Helvetica,sans-Serif" font-size="12.00" fill="#000000">STARTER_ST</text>
<path fill="none" stroke="#000000" stroke-width="2" d="M186.3333,-603C186.3333,-603 261.6667,-603 261.6667,-603 267.3333,-603 273,-608.6667 273,-614.3333 273,-614.3333 273,-625.6667 273,-625.6667 273,-631.3333 267.3333,-637 261.6667,-637 261.6667,-637 186.3333,-637 186.3333,-637 180.6667,-637 175,-631.3333 175,-625.6667 175,-625.6667 175,-614.3333 175,-614.3333 175,-608.6667 180.6667,-603 186.3333,-603"/>
</g>
<!-- POINT_GENERATOR_ST -->
<g id="node3" class="node state regular">
<title>POINT_GENERATOR_ST</title>
<polygon fill="#ffffff" fill-opacity="0.003922" stroke="transparent" stroke-width="2" points="179.5,-556 16.5,-556 16.5,-520 179.5,-520 179.5,-556"/>
<text text-anchor="start" x="27.8308" y="-534.2" font-family="Helvetica,sans-Serif" font-size="12.00" fill="#000000">POINT_GENERATOR_ST</text>
<path fill="none" stroke="#000000" stroke-width="2" d="M28.8333,-521C28.8333,-521 167.1667,-521 167.1667,-521 172.8333,-521 178.5,-526.6667 178.5,-532.3333 178.5,-532.3333 178.5,-543.6667 178.5,-543.6667 178.5,-549.3333 172.8333,-555 167.1667,-555 167.1667,-555 28.8333,-555 28.8333,-555 23.1667,-555 17.5,-549.3333 17.5,-543.6667 17.5,-543.6667 17.5,-532.3333 17.5,-532.3333 17.5,-526.6667 23.1667,-521 28.8333,-521"/>
</g>
<!-- STARTER_ST&#45;&gt;POINT_GENERATOR_ST -->
<g id="edge1" class="edge transition">
<title>STARTER_ST&#45;&gt;POINT_GENERATOR_ST</title>
<path fill="none" stroke="#000000" d="M185.1538,-601.9574C175.2523,-596.8728 164.7916,-591.0624 155.514,-585 145.3281,-578.3441 134.8373,-570.2094 125.6501,-562.5903"/>
<polygon fill="#000000" stroke="#000000" points="127.8475,-559.8648 117.9526,-556.0777 123.3261,-565.2087 127.8475,-559.8648"/>
<text text-anchor="start" x="155" y="-576" font-family="Helvetica,sans-Serif" font-size="10.00" fill="#000000">START = &#39;1&#39; &#160;&#160;</text>
</g>
<!-- MOD_ST -->
<g id="node4" class="node state regular">
<title>MOD_ST</title>
<polygon fill="#ffffff" fill-opacity="0.003922" stroke="transparent" stroke-width="2" points="236.5,-474 165.5,-474 165.5,-438 236.5,-438 236.5,-474"/>
<text text-anchor="start" x="176.5016" y="-452.2" font-family="Helvetica,sans-Serif" font-size="12.00" fill="#000000">MOD_ST</text>
<path fill="none" stroke="#000000" stroke-width="2" d="M177.8333,-439C177.8333,-439 224.1667,-439 224.1667,-439 229.8333,-439 235.5,-444.6667 235.5,-450.3333 235.5,-450.3333 235.5,-461.6667 235.5,-461.6667 235.5,-467.3333 229.8333,-473 224.1667,-473 224.1667,-473 177.8333,-473 177.8333,-473 172.1667,-473 166.5,-467.3333 166.5,-461.6667 166.5,-461.6667 166.5,-450.3333 166.5,-450.3333 166.5,-444.6667 172.1667,-439 177.8333,-439"/>
</g>
<!-- POINT_GENERATOR_ST&#45;&gt;MOD_ST -->
<g id="edge2" class="edge transition">
<title>POINT_GENERATOR_ST&#45;&gt;MOD_ST</title>
<path fill="none" stroke="#000000" d="M87.5147,-519.5898C83.7049,-510.2597 81.649,-499.201 87.699,-491 96.0261,-479.7123 127.5899,-470.5247 155.294,-464.3996"/>
<polygon fill="#000000" stroke="#000000" points="156.2193,-467.7813 165.2759,-462.2833 154.7674,-460.9335 156.2193,-467.7813"/>
<text text-anchor="start" x="87" y="-494" font-family="Helvetica,sans-Serif" font-size="10.00" fill="#000000">ready_point_generator = &#39;1&#39; &#160;&#160;</text>
</g>
<!-- MOD_ST&#45;&gt;STARTER_ST -->
<g id="edge3" class="edge transition">
<title>MOD_ST&#45;&gt;STARTER_ST</title>
<path fill="none" stroke="#000000" d="M216.2132,-474.0272C220.4905,-480.797 224,-488.8384 224,-497 224,-579 224,-579 224,-579 224,-583.0484 224,-587.3216 224,-591.52"/>
<polygon fill="#000000" stroke="#000000" points="220.5001,-591.6312 224,-601.6312 227.5001,-591.6313 220.5001,-591.6312"/>
<text text-anchor="start" x="224" y="-541" font-family="Helvetica,sans-Serif" font-size="10.00" fill="#000000">unsigned(data_out_mod_int) = unsigned(ZERO) &#160;&#160;</text>
<text text-anchor="start" x="224" y="-529" font-family="Helvetica,sans-Serif" font-size="10.00" fill="#000000">ready_mod = &#39;1&#39; &#160;&#160;</text>
</g>
<!-- MULTIPLIER_ST -->
<g id="node5" class="node state regular">
<title>MULTIPLIER_ST</title>
<polygon fill="#ffffff" fill-opacity="0.003922" stroke="transparent" stroke-width="2" points="258,-380 144,-380 144,-344 258,-344 258,-380"/>
<text text-anchor="start" x="154.6638" y="-358.2" font-family="Helvetica,sans-Serif" font-size="12.00" fill="#000000">MULTIPLIER_ST</text>
<path fill="none" stroke="#000000" stroke-width="2" d="M156.3333,-345C156.3333,-345 245.6667,-345 245.6667,-345 251.3333,-345 257,-350.6667 257,-356.3333 257,-356.3333 257,-367.6667 257,-367.6667 257,-373.3333 251.3333,-379 245.6667,-379 245.6667,-379 156.3333,-379 156.3333,-379 150.6667,-379 145,-373.3333 145,-367.6667 145,-367.6667 145,-356.3333 145,-356.3333 145,-350.6667 150.6667,-345 156.3333,-345"/>
</g>
<!-- MOD_ST&#45;&gt;MULTIPLIER_ST -->
<g id="edge4" class="edge transition">
<title>MOD_ST&#45;&gt;MULTIPLIER_ST</title>
<path fill="none" stroke="#000000" d="M201,-437.8759C201,-424.3516 201,-405.6192 201,-390.1514"/>
<polygon fill="#000000" stroke="#000000" points="204.5001,-390.0685 201,-380.0685 197.5001,-390.0685 204.5001,-390.0685"/>
<text text-anchor="start" x="201" y="-412" font-family="Helvetica,sans-Serif" font-size="10.00" fill="#000000">ready_mod = &#39;1&#39; &#160;&#160;</text>
<text text-anchor="start" x="201" y="-400" font-family="Helvetica,sans-Serif" font-size="10.00" fill="#000000">not (unsigned(data_out_mod_int) = unsigned(ZERO)) &#160;&#160;</text>
</g>
<!-- MESSAGE_ST -->
<g id="node6" class="node state regular">
<title>MESSAGE_ST</title>
<polygon fill="#ffffff" fill-opacity="0.003922" stroke="transparent" stroke-width="2" points="253.5,-298 150.5,-298 150.5,-262 253.5,-262 253.5,-298"/>
<text text-anchor="start" x="161.826" y="-276.2" font-family="Helvetica,sans-Serif" font-size="12.00" fill="#000000">MESSAGE_ST</text>
<path fill="none" stroke="#000000" stroke-width="2" d="M162.8333,-263C162.8333,-263 241.1667,-263 241.1667,-263 246.8333,-263 252.5,-268.6667 252.5,-274.3333 252.5,-274.3333 252.5,-285.6667 252.5,-285.6667 252.5,-291.3333 246.8333,-297 241.1667,-297 241.1667,-297 162.8333,-297 162.8333,-297 157.1667,-297 151.5,-291.3333 151.5,-285.6667 151.5,-285.6667 151.5,-274.3333 151.5,-274.3333 151.5,-268.6667 157.1667,-263 162.8333,-263"/>
</g>
<!-- MULTIPLIER_ST&#45;&gt;MESSAGE_ST -->
<g id="edge5" class="edge transition">
<title>MULTIPLIER_ST&#45;&gt;MESSAGE_ST</title>
<path fill="none" stroke="#000000" d="M201.2219,-343.8015C201.3488,-333.3976 201.5107,-320.1215 201.6539,-308.3768"/>
<polygon fill="#000000" stroke="#000000" points="205.1564,-308.1896 201.7787,-298.1476 198.1569,-308.1041 205.1564,-308.1896"/>
<text text-anchor="start" x="201" y="-318" font-family="Helvetica,sans-Serif" font-size="10.00" fill="#000000">ready_multiplier = &#39;1&#39; &#160;&#160;</text>
</g>
<!-- ADDER_ST -->
<g id="node7" class="node state regular">
<title>ADDER_ST</title>
<polygon fill="#ffffff" fill-opacity="0.003922" stroke="transparent" stroke-width="2" points="258.5,-216 173.5,-216 173.5,-180 258.5,-180 258.5,-216"/>
<text text-anchor="start" x="184.5008" y="-194.2" font-family="Helvetica,sans-Serif" font-size="12.00" fill="#000000">ADDER_ST</text>
<path fill="none" stroke="#000000" stroke-width="2" d="M185.8333,-181C185.8333,-181 246.1667,-181 246.1667,-181 251.8333,-181 257.5,-186.6667 257.5,-192.3333 257.5,-192.3333 257.5,-203.6667 257.5,-203.6667 257.5,-209.3333 251.8333,-215 246.1667,-215 246.1667,-215 185.8333,-215 185.8333,-215 180.1667,-215 174.5,-209.3333 174.5,-203.6667 174.5,-203.6667 174.5,-192.3333 174.5,-192.3333 174.5,-186.6667 180.1667,-181 185.8333,-181"/>
</g>
<!-- MESSAGE_ST&#45;&gt;ADDER_ST -->
<g id="edge6" class="edge transition">
<title>MESSAGE_ST&#45;&gt;ADDER_ST</title>
<path fill="none" stroke="#000000" d="M205.1071,-261.8015C206.9015,-251.2915 209.1963,-237.8503 211.2165,-226.0177"/>
<polygon fill="#000000" stroke="#000000" points="214.6687,-226.594 212.9016,-216.1476 207.7685,-225.4159 214.6687,-226.594"/>
<text text-anchor="start" x="209" y="-236" font-family="Helvetica,sans-Serif" font-size="10.00" fill="#000000">e_enable_int = &#39;1&#39; &#160;&#160;</text>
</g>
<!-- INVERTER_ST -->
<g id="node8" class="node state regular">
<title>INVERTER_ST</title>
<polygon fill="#ffffff" fill-opacity="0.003922" stroke="transparent" stroke-width="2" points="296,-134 192,-134 192,-98 296,-98 296,-134"/>
<text text-anchor="start" x="202.6666" y="-112.2" font-family="Helvetica,sans-Serif" font-size="12.00" fill="#000000">INVERTER_ST</text>
<path fill="none" stroke="#000000" stroke-width="2" d="M204.3333,-99C204.3333,-99 283.6667,-99 283.6667,-99 289.3333,-99 295,-104.6667 295,-110.3333 295,-110.3333 295,-121.6667 295,-121.6667 295,-127.3333 289.3333,-133 283.6667,-133 283.6667,-133 204.3333,-133 204.3333,-133 198.6667,-133 193,-127.3333 193,-121.6667 193,-121.6667 193,-110.3333 193,-110.3333 193,-104.6667 198.6667,-99 204.3333,-99"/>
</g>
<!-- ADDER_ST&#45;&gt;INVERTER_ST -->
<g id="edge7" class="edge transition">
<title>ADDER_ST&#45;&gt;INVERTER_ST</title>
<path fill="none" stroke="#000000" d="M222.2141,-179.8015C225.8392,-169.1853 230.4854,-155.5784 234.5552,-143.6596"/>
<polygon fill="#000000" stroke="#000000" points="237.884,-144.7421 237.8033,-134.1476 231.2595,-142.4801 237.884,-144.7421"/>
<text text-anchor="start" x="231" y="-154" font-family="Helvetica,sans-Serif" font-size="10.00" fill="#000000">ready_adder = &#39;1&#39; &#160;&#160;</text>
</g>
<!-- ENDER_ST -->
<g id="node9" class="node state regular">
<title>ENDER_ST</title>
<polygon fill="#ffffff" fill-opacity="0.003922" stroke="transparent" stroke-width="2" points="351.5,-52 266.5,-52 266.5,-16 351.5,-16 351.5,-52"/>
<text text-anchor="start" x="277.5008" y="-30.2" font-family="Helvetica,sans-Serif" font-size="12.00" fill="#000000">ENDER_ST</text>
<path fill="none" stroke="#000000" stroke-width="2" d="M278.8333,-17C278.8333,-17 339.1667,-17 339.1667,-17 344.8333,-17 350.5,-22.6667 350.5,-28.3333 350.5,-28.3333 350.5,-39.6667 350.5,-39.6667 350.5,-45.3333 344.8333,-51 339.1667,-51 339.1667,-51 278.8333,-51 278.8333,-51 273.1667,-51 267.5,-45.3333 267.5,-39.6667 267.5,-39.6667 267.5,-28.3333 267.5,-28.3333 267.5,-22.6667 273.1667,-17 278.8333,-17"/>
</g>
<!-- INVERTER_ST&#45;&gt;ENDER_ST -->
<g id="edge8" class="edge transition">
<title>INVERTER_ST&#45;&gt;ENDER_ST</title>
<path fill="none" stroke="#000000" d="M252.5042,-97.7345C257.1547,-88.657 263.391,-77.781 270.391,-69 273.0557,-65.6573 276.052,-62.3563 279.1667,-59.1953"/>
<polygon fill="#000000" stroke="#000000" points="281.7509,-61.5665 286.549,-52.1204 276.9075,-56.5126 281.7509,-61.5665"/>
<text text-anchor="start" x="270" y="-72" font-family="Helvetica,sans-Serif" font-size="10.00" fill="#000000">ready_inverter = &#39;1&#39; &#160;&#160;</text>
</g>
<!-- ENDER_ST&#45;&gt;STARTER_ST -->
<g id="edge9" class="edge transition">
<title>ENDER_ST&#45;&gt;STARTER_ST</title>
<path fill="none" stroke="#000000" d="M351.698,-48.2657C361.9496,-54.4773 370,-63.1331 370,-75 370,-306.5 370,-306.5 370,-306.5 370,-376.6744 469,-359.3256 469,-429.5 469,-579 469,-579 469,-579 469,-588.3447 356.6645,-603.8332 284.1261,-612.8604"/>
<polygon fill="#000000" stroke="#000000" points="283.6662,-609.3905 274.1706,-614.09 284.5243,-616.3377 283.6662,-609.3905"/>
<text text-anchor="start" x="373" y="-318" font-family="Helvetica,sans-Serif" font-size="10.00" fill="#000000">ready_multiplier = &#39;1&#39; &#160;&#160;</text>
</g>
</g>
</svg>
