<?xml version="1.0" encoding="UTF-8" standalone="no"?>
<!DOCTYPE svg PUBLIC "-//W3C//DTD SVG 1.1//EN"
 "http://www.w3.org/Graphics/SVG/1.1/DTD/svg11.dtd">
<!-- Generated by graphviz version 2.40.1 (20161225.0304)
 -->
<!-- Title: state transitions Pages: 1 -->
<svg width="612pt" height="516pt"
 viewBox="0.00 0.00 612.00 516.00" xmlns="http://www.w3.org/2000/svg" xmlns:xlink="http://www.w3.org/1999/xlink">
<g id="graph0" class="graph" transform="scale(1 1) rotate(0) translate(4 512)">
<title>state transitions</title>
<polygon fill="#ffffff" stroke="transparent" points="-4,4 -4,-512 608,-512 608,4 -4,4"/>
<g id="clust1" class="cluster state regular">
<title>cluster_sha512_ctrl_fsm_st</title>
<path fill="none" stroke="#000000" stroke-width="2" d="M20,-8C20,-8 584,-8 584,-8 590,-8 596,-14 596,-20 596,-20 596,-488 596,-488 596,-494 590,-500 584,-500 584,-500 20,-500 20,-500 14,-500 8,-494 8,-488 8,-488 8,-20 8,-20 8,-14 14,-8 20,-8"/>
<text text-anchor="start" x="249.9884" y="-481.2" font-family="Helvetica,sans-Serif" font-size="12.00" fill="#000000">sha512_ctrl_fsm_st</text>
</g>
<!-- sha512_ctrl_fsm_st -->
<!-- STARTER_ST -->
<g id="node2" class="node state regular">
<title>STARTER_ST</title>
<polygon fill="#ffffff" fill-opacity="0.003922" stroke="transparent" stroke-width="2" points="514,-462 414,-462 414,-426 514,-426 514,-462"/>
<text text-anchor="start" x="425" y="-440.2" font-family="Helvetica,sans-Serif" font-size="12.00" fill="#000000">STARTER_ST</text>
<path fill="none" stroke="#000000" stroke-width="2" d="M426.3333,-427C426.3333,-427 501.6667,-427 501.6667,-427 507.3333,-427 513,-432.6667 513,-438.3333 513,-438.3333 513,-449.6667 513,-449.6667 513,-455.3333 507.3333,-461 501.6667,-461 501.6667,-461 426.3333,-461 426.3333,-461 420.6667,-461 415,-455.3333 415,-449.6667 415,-449.6667 415,-438.3333 415,-438.3333 415,-432.6667 420.6667,-427 426.3333,-427"/>
</g>
<!-- INPUT_ST -->
<g id="node3" class="node state regular">
<title>INPUT_ST</title>
<polygon fill="#ffffff" fill-opacity="0.003922" stroke="transparent" stroke-width="2" points="381.5,-380 302.5,-380 302.5,-344 381.5,-344 381.5,-380"/>
<text text-anchor="start" x="313.5008" y="-358.2" font-family="Helvetica,sans-Serif" font-size="12.00" fill="#000000">INPUT_ST</text>
<path fill="none" stroke="#000000" stroke-width="2" d="M314.8333,-345C314.8333,-345 369.1667,-345 369.1667,-345 374.8333,-345 380.5,-350.6667 380.5,-356.3333 380.5,-356.3333 380.5,-367.6667 380.5,-367.6667 380.5,-373.3333 374.8333,-379 369.1667,-379 369.1667,-379 314.8333,-379 314.8333,-379 309.1667,-379 303.5,-373.3333 303.5,-367.6667 303.5,-367.6667 303.5,-356.3333 303.5,-356.3333 303.5,-350.6667 309.1667,-345 314.8333,-345"/>
</g>
<!-- STARTER_ST&#45;&gt;INPUT_ST -->
<g id="edge1" class="edge transition">
<title>STARTER_ST&#45;&gt;INPUT_ST</title>
<path fill="none" stroke="#000000" d="M436.9242,-425.8015C419.3919,-414.0175 396.3774,-398.5487 377.4007,-385.7939"/>
<polygon fill="#000000" stroke="#000000" points="379.252,-382.8212 369.0001,-380.1476 375.3472,-388.6308 379.252,-382.8212"/>
<text text-anchor="start" x="411" y="-400" font-family="Helvetica,sans-Serif" font-size="10.00" fill="#000000">START = &#39;1&#39; &#160;&#160;</text>
</g>
<!-- SCHEDULER_ST -->
<g id="node4" class="node state regular">
<title>SCHEDULER_ST</title>
<polygon fill="#ffffff" fill-opacity="0.003922" stroke="transparent" stroke-width="2" points="428.5,-298 311.5,-298 311.5,-262 428.5,-262 428.5,-298"/>
<text text-anchor="start" x="322.5012" y="-276.2" font-family="Helvetica,sans-Serif" font-size="12.00" fill="#000000">SCHEDULER_ST</text>
<path fill="none" stroke="#000000" stroke-width="2" d="M323.8333,-263C323.8333,-263 416.1667,-263 416.1667,-263 421.8333,-263 427.5,-268.6667 427.5,-274.3333 427.5,-274.3333 427.5,-285.6667 427.5,-285.6667 427.5,-291.3333 421.8333,-297 416.1667,-297 416.1667,-297 323.8333,-297 323.8333,-297 318.1667,-297 312.5,-291.3333 312.5,-285.6667 312.5,-285.6667 312.5,-274.3333 312.5,-274.3333 312.5,-268.6667 318.1667,-263 323.8333,-263"/>
</g>
<!-- INPUT_ST&#45;&gt;SCHEDULER_ST -->
<g id="edge2" class="edge transition">
<title>INPUT_ST&#45;&gt;SCHEDULER_ST</title>
<path fill="none" stroke="#000000" d="M348.2141,-343.8015C351.8392,-333.1853 356.4854,-319.5784 360.5552,-307.6596"/>
<polygon fill="#000000" stroke="#000000" points="363.884,-308.7421 363.8033,-298.1476 357.2595,-306.4801 363.884,-308.7421"/>
<text text-anchor="start" x="357" y="-318" font-family="Helvetica,sans-Serif" font-size="10.00" fill="#000000">DATA_IN_ENABLE = &#39;1&#39; or hash_round_cnt = 0 &#160;&#160;</text>
</g>
<!-- HASH_02a_ST -->
<g id="node5" class="node state regular">
<title>HASH_02a_ST</title>
<polygon fill="#ffffff" fill-opacity="0.003922" stroke="transparent" stroke-width="2" points="401,-216 297,-216 297,-180 401,-180 401,-216"/>
<text text-anchor="start" x="307.9906" y="-194.2" font-family="Helvetica,sans-Serif" font-size="12.00" fill="#000000">HASH_02a_ST</text>
<path fill="none" stroke="#000000" stroke-width="2" d="M309.3333,-181C309.3333,-181 388.6667,-181 388.6667,-181 394.3333,-181 400,-186.6667 400,-192.3333 400,-192.3333 400,-203.6667 400,-203.6667 400,-209.3333 394.3333,-215 388.6667,-215 388.6667,-215 309.3333,-215 309.3333,-215 303.6667,-215 298,-209.3333 298,-203.6667 298,-203.6667 298,-192.3333 298,-192.3333 298,-186.6667 303.6667,-181 309.3333,-181"/>
</g>
<!-- SCHEDULER_ST&#45;&gt;HASH_02a_ST -->
<g id="edge3" class="edge transition">
<title>SCHEDULER_ST&#45;&gt;HASH_02a_ST</title>
<path fill="none" stroke="#000000" d="M365.9213,-261.6468C363.9313,-252.9411 361.4436,-242.4089 359,-233 358.3968,-230.6776 357.7526,-228.2742 357.0928,-225.8649"/>
<polygon fill="#000000" stroke="#000000" points="360.4298,-224.8021 354.3577,-216.12 353.6903,-226.6938 360.4298,-224.8021"/>
<text text-anchor="middle" x="362.3895" y="-236" font-family="Helvetica,sans-Serif" font-size="10.00" fill="#000000"> </text>
</g>
<!-- HASH_02b_ST -->
<g id="node6" class="node state regular">
<title>HASH_02b_ST</title>
<polygon fill="#ffffff" fill-opacity="0.003922" stroke="transparent" stroke-width="2" points="458,-134 354,-134 354,-98 458,-98 458,-134"/>
<text text-anchor="start" x="364.9906" y="-112.2" font-family="Helvetica,sans-Serif" font-size="12.00" fill="#000000">HASH_02b_ST</text>
<path fill="none" stroke="#000000" stroke-width="2" d="M366.3333,-99C366.3333,-99 445.6667,-99 445.6667,-99 451.3333,-99 457,-104.6667 457,-110.3333 457,-110.3333 457,-121.6667 457,-121.6667 457,-127.3333 451.3333,-133 445.6667,-133 445.6667,-133 366.3333,-133 366.3333,-133 360.6667,-133 355,-127.3333 355,-121.6667 355,-121.6667 355,-110.3333 355,-110.3333 355,-104.6667 360.6667,-99 366.3333,-99"/>
</g>
<!-- HASH_02a_ST&#45;&gt;HASH_02b_ST -->
<g id="edge5" class="edge transition">
<title>HASH_02a_ST&#45;&gt;HASH_02b_ST</title>
<path fill="none" stroke="#000000" d="M324.9784,-179.6949C316.5274,-170.9998 310.5635,-160.4625 317.01,-151 320.8836,-145.3141 331.577,-139.6412 344.2681,-134.5689"/>
<polygon fill="#000000" stroke="#000000" points="345.6634,-137.7837 353.7934,-130.99 343.2013,-131.2309 345.6634,-137.7837"/>
<text text-anchor="start" x="317" y="-154" font-family="Helvetica,sans-Serif" font-size="10.00" fill="#000000">not (hash_02_cnt = HASH_02_COUNT_LIMIT) &#160;&#160;</text>
</g>
<!-- HASH_03_ST -->
<g id="node7" class="node state regular">
<title>HASH_03_ST</title>
<polygon fill="#ffffff" fill-opacity="0.003922" stroke="transparent" stroke-width="2" points="112.5,-134 15.5,-134 15.5,-98 112.5,-98 112.5,-134"/>
<text text-anchor="start" x="26.826" y="-112.2" font-family="Helvetica,sans-Serif" font-size="12.00" fill="#000000">HASH_03_ST</text>
<path fill="none" stroke="#000000" stroke-width="2" d="M27.8333,-99C27.8333,-99 100.1667,-99 100.1667,-99 105.8333,-99 111.5,-104.6667 111.5,-110.3333 111.5,-110.3333 111.5,-121.6667 111.5,-121.6667 111.5,-127.3333 105.8333,-133 100.1667,-133 100.1667,-133 27.8333,-133 27.8333,-133 22.1667,-133 16.5,-127.3333 16.5,-121.6667 16.5,-121.6667 16.5,-110.3333 16.5,-110.3333 16.5,-104.6667 22.1667,-99 27.8333,-99"/>
</g>
<!-- HASH_02a_ST&#45;&gt;HASH_03_ST -->
<g id="edge4" class="edge transition">
<title>HASH_02a_ST&#45;&gt;HASH_03_ST</title>
<path fill="none" stroke="#000000" d="M296.963,-193.7658C238.1653,-188.3623 146.5827,-177.8967 115.344,-163 104.4873,-157.8228 94.3114,-149.5667 85.9281,-141.4085"/>
<polygon fill="#000000" stroke="#000000" points="88.2434,-138.7689 78.7649,-134.0349 83.2225,-143.6465 88.2434,-138.7689"/>
<text text-anchor="start" x="115" y="-154" font-family="Helvetica,sans-Serif" font-size="10.00" fill="#000000">hash_02_cnt = HASH_02_COUNT_LIMIT &#160;&#160;</text>
</g>
<!-- HASH_02b_ST&#45;&gt;HASH_02a_ST -->
<g id="edge6" class="edge transition">
<title>HASH_02b_ST&#45;&gt;HASH_02a_ST</title>
<path fill="none" stroke="#000000" d="M458.3779,-118.6051C503.9211,-122.8325 559.1183,-133.9201 535,-163 519.3823,-181.8307 459.0015,-190.5968 411.2168,-194.6357"/>
<polygon fill="#000000" stroke="#000000" points="410.9238,-191.1478 401.2319,-195.4277 411.4773,-198.1259 410.9238,-191.1478"/>
<text text-anchor="middle" x="541.3895" y="-154" font-family="Helvetica,sans-Serif" font-size="10.00" fill="#000000"> </text>
</g>
<!-- HASH_03_ST&#45;&gt;INPUT_ST -->
<g id="edge8" class="edge transition">
<title>HASH_03_ST&#45;&gt;INPUT_ST</title>
<path fill="none" stroke="#000000" d="M58.745,-134.0373C52.3933,-156.8463 42.0631,-197.4372 38.092,-233 37.0809,-242.0549 38,-244.3888 38,-253.5 38,-321 38,-321 38,-321 38,-346.3318 205.9246,-356.6569 292.1622,-360.2891"/>
<polygon fill="#000000" stroke="#000000" points="292.1234,-363.7903 302.2573,-360.6994 292.4077,-356.7961 292.1234,-363.7903"/>
<text text-anchor="start" x="38" y="-236" font-family="Helvetica,sans-Serif" font-size="10.00" fill="#000000">not (hash_round_cnt = to_integer(unsigned(DATA_BLOCK_SIZE))&#45;1) &#160;&#160;</text>
</g>
<!-- ENDER_ST -->
<g id="node8" class="node state regular">
<title>ENDER_ST</title>
<polygon fill="#ffffff" fill-opacity="0.003922" stroke="transparent" stroke-width="2" points="399.5,-52 314.5,-52 314.5,-16 399.5,-16 399.5,-52"/>
<text text-anchor="start" x="325.5008" y="-30.2" font-family="Helvetica,sans-Serif" font-size="12.00" fill="#000000">ENDER_ST</text>
<path fill="none" stroke="#000000" stroke-width="2" d="M326.8333,-17C326.8333,-17 387.1667,-17 387.1667,-17 392.8333,-17 398.5,-22.6667 398.5,-28.3333 398.5,-28.3333 398.5,-39.6667 398.5,-39.6667 398.5,-45.3333 392.8333,-51 387.1667,-51 387.1667,-51 326.8333,-51 326.8333,-51 321.1667,-51 315.5,-45.3333 315.5,-39.6667 315.5,-39.6667 315.5,-28.3333 315.5,-28.3333 315.5,-22.6667 321.1667,-17 326.8333,-17"/>
</g>
<!-- HASH_03_ST&#45;&gt;ENDER_ST -->
<g id="edge7" class="edge transition">
<title>HASH_03_ST&#45;&gt;ENDER_ST</title>
<path fill="none" stroke="#000000" d="M112.7119,-102.3673C165.7161,-87.5334 250.1503,-63.9033 304.5716,-48.6728"/>
<polygon fill="#000000" stroke="#000000" points="305.6829,-51.9963 314.3696,-45.9307 303.7963,-45.2554 305.6829,-51.9963"/>
<text text-anchor="start" x="229" y="-72" font-family="Helvetica,sans-Serif" font-size="10.00" fill="#000000">hash_round_cnt = to_integer(unsigned(DATA_BLOCK_SIZE))&#45;1 &#160;&#160;</text>
</g>
<!-- ENDER_ST&#45;&gt;STARTER_ST -->
<g id="edge9" class="edge transition">
<title>ENDER_ST&#45;&gt;STARTER_ST</title>
<path fill="none" stroke="#000000" d="M399.7222,-37.3361C466.2365,-43.1126 587,-56.1903 587,-75 587,-142.5 587,-142.5 587,-142.5 587,-185.3981 585,-196.1019 585,-239 585,-403 585,-403 585,-403 585,-406.565 554.4733,-416.8925 524.086,-426.2897"/>
<polygon fill="#000000" stroke="#000000" points="522.8001,-423.023 514.2637,-429.2983 524.8503,-429.716 522.8001,-423.023"/>
<text text-anchor="middle" x="586.3895" y="-236" font-family="Helvetica,sans-Serif" font-size="10.00" fill="#000000"> </text>
</g>
</g>
</svg>
