<?xml version="1.0" encoding="UTF-8" standalone="no"?>
<!DOCTYPE svg PUBLIC "-//W3C//DTD SVG 1.1//EN"
 "http://www.w3.org/Graphics/SVG/1.1/DTD/svg11.dtd">
<!-- Generated by graphviz version 2.40.1 (20161225.0304)
 -->
<!-- Title: state transitions Pages: 1 -->
<svg width="292pt" height="352pt"
 viewBox="0.00 0.00 292.00 352.00" xmlns="http://www.w3.org/2000/svg" xmlns:xlink="http://www.w3.org/1999/xlink">
<g id="graph0" class="graph" transform="scale(1 1) rotate(0) translate(4 348)">
<title>state transitions</title>
<polygon fill="#ffffff" stroke="transparent" points="-4,4 -4,-348 288,-348 288,4 -4,4"/>
<g id="clust1" class="cluster state regular">
<title>cluster_sha_ctrl_fsm_st</title>
<path fill="none" stroke="#000000" stroke-width="2" d="M20,-8C20,-8 264,-8 264,-8 270,-8 276,-14 276,-20 276,-20 276,-324 276,-324 276,-330 270,-336 264,-336 264,-336 20,-336 20,-336 14,-336 8,-330 8,-324 8,-324 8,-20 8,-20 8,-14 14,-8 20,-8"/>
<text text-anchor="start" x="99.9946" y="-317.2" font-family="Helvetica,sans-Serif" font-size="12.00" fill="#000000">sha_ctrl_fsm_st</text>
</g>
<!-- sha_ctrl_fsm_st -->
<!-- STARTER_ST -->
<g id="node2" class="node state regular">
<title>STARTER_ST</title>
<polygon fill="#ffffff" fill-opacity="0.003922" stroke="transparent" stroke-width="2" points="180,-298 80,-298 80,-262 180,-262 180,-298"/>
<text text-anchor="start" x="91" y="-276.2" font-family="Helvetica,sans-Serif" font-size="12.00" fill="#000000">STARTER_ST</text>
<path fill="none" stroke="#000000" stroke-width="2" d="M92.3333,-263C92.3333,-263 167.6667,-263 167.6667,-263 173.3333,-263 179,-268.6667 179,-274.3333 179,-274.3333 179,-285.6667 179,-285.6667 179,-291.3333 173.3333,-297 167.6667,-297 167.6667,-297 92.3333,-297 92.3333,-297 86.6667,-297 81,-291.3333 81,-285.6667 81,-285.6667 81,-274.3333 81,-274.3333 81,-268.6667 86.6667,-263 92.3333,-263"/>
</g>
<!-- MESSAGE_ST -->
<g id="node3" class="node state regular">
<title>MESSAGE_ST</title>
<polygon fill="#ffffff" fill-opacity="0.003922" stroke="transparent" stroke-width="2" points="130.5,-216 27.5,-216 27.5,-180 130.5,-180 130.5,-216"/>
<text text-anchor="start" x="38.826" y="-194.2" font-family="Helvetica,sans-Serif" font-size="12.00" fill="#000000">MESSAGE_ST</text>
<path fill="none" stroke="#000000" stroke-width="2" d="M39.8333,-181C39.8333,-181 118.1667,-181 118.1667,-181 123.8333,-181 129.5,-186.6667 129.5,-192.3333 129.5,-192.3333 129.5,-203.6667 129.5,-203.6667 129.5,-209.3333 123.8333,-215 118.1667,-215 118.1667,-215 39.8333,-215 39.8333,-215 34.1667,-215 28.5,-209.3333 28.5,-203.6667 28.5,-203.6667 28.5,-192.3333 28.5,-192.3333 28.5,-186.6667 34.1667,-181 39.8333,-181"/>
</g>
<!-- STARTER_ST&#45;&gt;MESSAGE_ST -->
<g id="edge1" class="edge transition">
<title>STARTER_ST&#45;&gt;MESSAGE_ST</title>
<path fill="none" stroke="#000000" d="M117.5964,-261.9732C113.956,-256.5609 110.0141,-250.5788 106.514,-245 102.4375,-238.5025 98.1816,-231.4032 94.2695,-224.736"/>
<polygon fill="#000000" stroke="#000000" points="97.2482,-222.8959 89.1968,-216.0093 91.1964,-226.4138 97.2482,-222.8959"/>
<text text-anchor="start" x="106" y="-236" font-family="Helvetica,sans-Serif" font-size="10.00" fill="#000000">START = &#39;1&#39; &#160;&#160;</text>
</g>
<!-- GENERATION_ST -->
<g id="node4" class="node state regular">
<title>GENERATION_ST</title>
<polygon fill="#ffffff" fill-opacity="0.003922" stroke="transparent" stroke-width="2" points="139.5,-134 16.5,-134 16.5,-98 139.5,-98 139.5,-134"/>
<text text-anchor="start" x="27.8318" y="-112.2" font-family="Helvetica,sans-Serif" font-size="12.00" fill="#000000">GENERATION_ST</text>
<path fill="none" stroke="#000000" stroke-width="2" d="M28.8333,-99C28.8333,-99 127.1667,-99 127.1667,-99 132.8333,-99 138.5,-104.6667 138.5,-110.3333 138.5,-110.3333 138.5,-121.6667 138.5,-121.6667 138.5,-127.3333 132.8333,-133 127.1667,-133 127.1667,-133 28.8333,-133 28.8333,-133 23.1667,-133 17.5,-127.3333 17.5,-121.6667 17.5,-121.6667 17.5,-110.3333 17.5,-110.3333 17.5,-104.6667 23.1667,-99 28.8333,-99"/>
</g>
<!-- MESSAGE_ST&#45;&gt;GENERATION_ST -->
<g id="edge2" class="edge transition">
<title>MESSAGE_ST&#45;&gt;GENERATION_ST</title>
<path fill="none" stroke="#000000" d="M63.4921,-179.8435C59.9904,-174.7177 56.7669,-168.9158 54.929,-163 52.8634,-156.3513 54.099,-149.4738 56.8455,-143.0995"/>
<polygon fill="#000000" stroke="#000000" points="59.9849,-144.6541 61.7417,-134.206 53.8528,-141.2781 59.9849,-144.6541"/>
<text text-anchor="start" x="54" y="-154" font-family="Helvetica,sans-Serif" font-size="10.00" fill="#000000">ready_sha512 = &#39;1&#39; &#160;&#160;</text>
</g>
<!-- ENDER_ST -->
<g id="node5" class="node state regular">
<title>ENDER_ST</title>
<polygon fill="#ffffff" fill-opacity="0.003922" stroke="transparent" stroke-width="2" points="165.5,-52 80.5,-52 80.5,-16 165.5,-16 165.5,-52"/>
<text text-anchor="start" x="91.5008" y="-30.2" font-family="Helvetica,sans-Serif" font-size="12.00" fill="#000000">ENDER_ST</text>
<path fill="none" stroke="#000000" stroke-width="2" d="M92.8333,-17C92.8333,-17 153.1667,-17 153.1667,-17 158.8333,-17 164.5,-22.6667 164.5,-28.3333 164.5,-28.3333 164.5,-39.6667 164.5,-39.6667 164.5,-45.3333 158.8333,-51 153.1667,-51 153.1667,-51 92.8333,-51 92.8333,-51 87.1667,-51 81.5,-45.3333 81.5,-39.6667 81.5,-39.6667 81.5,-28.3333 81.5,-28.3333 81.5,-22.6667 87.1667,-17 92.8333,-17"/>
</g>
<!-- GENERATION_ST&#45;&gt;ENDER_ST -->
<g id="edge3" class="edge transition">
<title>GENERATION_ST&#45;&gt;ENDER_ST</title>
<path fill="none" stroke="#000000" d="M60.4563,-97.7155C54.1017,-88.8348 49.7067,-78.1353 55.269,-69 59.2442,-62.4712 64.8727,-57.1069 71.2063,-52.7139"/>
<polygon fill="#000000" stroke="#000000" points="73.4271,-55.4624 80.1909,-47.3074 69.8179,-49.4645 73.4271,-55.4624"/>
<text text-anchor="start" x="55" y="-72" font-family="Helvetica,sans-Serif" font-size="10.00" fill="#000000">arithmetic_enable_int = &#39;1&#39; &#160;&#160;</text>
</g>
<!-- ENDER_ST&#45;&gt;STARTER_ST -->
<g id="edge4" class="edge transition">
<title>ENDER_ST&#45;&gt;STARTER_ST</title>
<path fill="none" stroke="#000000" d="M165.1167,-52.0503C171.4808,-56.6401 177.1842,-62.2406 181,-69 203.4333,-108.7387 175,-125.8665 175,-171.5 175,-239 175,-239 175,-239 175,-244.6808 173.0162,-249.7835 169.8817,-254.3005"/>
<polygon fill="#000000" stroke="#000000" points="167.2348,-252.0099 163.1768,-261.7968 172.4523,-256.6766 167.2348,-252.0099"/>
<text text-anchor="start" x="176" y="-154" font-family="Helvetica,sans-Serif" font-size="10.00" fill="#000000">ready_sha512 = &#39;1&#39; &#160;&#160;</text>
</g>
</g>
</svg>
