<?xml version="1.0" encoding="UTF-8" standalone="no"?>
<!DOCTYPE svg PUBLIC "-//W3C//DTD SVG 1.1//EN"
 "http://www.w3.org/Graphics/SVG/1.1/DTD/svg11.dtd">
<!-- Generated by graphviz version 2.40.1 (20161225.0304)
 -->
<!-- Title: state transitions Pages: 1 -->
<svg width="261pt" height="188pt"
 viewBox="0.00 0.00 261.00 188.00" xmlns="http://www.w3.org/2000/svg" xmlns:xlink="http://www.w3.org/1999/xlink">
<g id="graph0" class="graph" transform="scale(1 1) rotate(0) translate(4 184)">
<title>state transitions</title>
<polygon fill="#ffffff" stroke="transparent" points="-4,4 -4,-184 257,-184 257,4 -4,4"/>
<g id="clust1" class="cluster state regular">
<title>cluster_sha_ctrl_fsm_st</title>
<path fill="none" stroke="#000000" stroke-width="2" d="M20,-8C20,-8 233,-8 233,-8 239,-8 245,-14 245,-20 245,-20 245,-160 245,-160 245,-166 239,-172 233,-172 233,-172 20,-172 20,-172 14,-172 8,-166 8,-160 8,-160 8,-20 8,-20 8,-14 14,-8 20,-8"/>
<text text-anchor="start" x="84.4946" y="-153.2" font-family="Helvetica,sans-Serif" font-size="12.00" fill="#000000">sha_ctrl_fsm_st</text>
</g>
<!-- sha_ctrl_fsm_st -->
<!-- STARTER_ST -->
<g id="node2" class="node state regular">
<title>STARTER_ST</title>
<polygon fill="#ffffff" fill-opacity="0.003922" stroke="transparent" stroke-width="2" points="155,-134 55,-134 55,-98 155,-98 155,-134"/>
<text text-anchor="start" x="66" y="-112.2" font-family="Helvetica,sans-Serif" font-size="12.00" fill="#000000">STARTER_ST</text>
<path fill="none" stroke="#000000" stroke-width="2" d="M67.3333,-99C67.3333,-99 142.6667,-99 142.6667,-99 148.3333,-99 154,-104.6667 154,-110.3333 154,-110.3333 154,-121.6667 154,-121.6667 154,-127.3333 148.3333,-133 142.6667,-133 142.6667,-133 67.3333,-133 67.3333,-133 61.6667,-133 56,-127.3333 56,-121.6667 56,-121.6667 56,-110.3333 56,-110.3333 56,-104.6667 61.6667,-99 67.3333,-99"/>
</g>
<!-- ENDER_ST -->
<g id="node3" class="node state regular">
<title>ENDER_ST</title>
<polygon fill="#ffffff" fill-opacity="0.003922" stroke="transparent" stroke-width="2" points="144.5,-52 59.5,-52 59.5,-16 144.5,-16 144.5,-52"/>
<text text-anchor="start" x="70.5008" y="-30.2" font-family="Helvetica,sans-Serif" font-size="12.00" fill="#000000">ENDER_ST</text>
<path fill="none" stroke="#000000" stroke-width="2" d="M71.8333,-17C71.8333,-17 132.1667,-17 132.1667,-17 137.8333,-17 143.5,-22.6667 143.5,-28.3333 143.5,-28.3333 143.5,-39.6667 143.5,-39.6667 143.5,-45.3333 137.8333,-51 132.1667,-51 132.1667,-51 71.8333,-51 71.8333,-51 66.1667,-51 60.5,-45.3333 60.5,-39.6667 60.5,-39.6667 60.5,-28.3333 60.5,-28.3333 60.5,-22.6667 66.1667,-17 71.8333,-17"/>
</g>
<!-- STARTER_ST&#45;&gt;ENDER_ST -->
<g id="edge1" class="edge transition">
<title>STARTER_ST&#45;&gt;ENDER_ST</title>
<path fill="none" stroke="#000000" d="M69.2578,-97.894C63.3205,-93.2279 57.9767,-87.614 54.514,-81 50.2865,-72.9251 53.1281,-65.3792 59.0975,-58.7983"/>
<polygon fill="#000000" stroke="#000000" points="61.5073,-61.3385 66.616,-52.0567 56.8342,-56.1268 61.5073,-61.3385"/>
<text text-anchor="start" x="54" y="-72" font-family="Helvetica,sans-Serif" font-size="10.00" fill="#000000">START = &#39;1&#39; &#160;&#160;</text>
</g>
<!-- ENDER_ST&#45;&gt;STARTER_ST -->
<g id="edge2" class="edge transition">
<title>ENDER_ST&#45;&gt;STARTER_ST</title>
<path fill="none" stroke="#000000" d="M112.0118,-52.0138C114.4676,-57.3241 116.7491,-63.2551 118,-69 119.3385,-75.1473 118.8045,-81.6862 117.3723,-87.8712"/>
<polygon fill="#000000" stroke="#000000" points="113.9077,-87.2265 114.286,-97.8146 120.5931,-89.3016 113.9077,-87.2265"/>
<text text-anchor="start" x="118" y="-72" font-family="Helvetica,sans-Serif" font-size="10.00" fill="#000000">ready_sha512 = &#39;1&#39; &#160;&#160;</text>
</g>
</g>
</svg>
