<?xml version="1.0" encoding="UTF-8" standalone="no"?>
<!DOCTYPE svg PUBLIC "-//W3C//DTD SVG 1.1//EN"
 "http://www.w3.org/Graphics/SVG/1.1/DTD/svg11.dtd">
<!-- Generated by graphviz version 2.40.1 (20161225.0304)
 -->
<!-- Title: state transitions Pages: 1 -->
<svg width="614pt" height="482pt"
 viewBox="0.00 0.00 614.00 482.00" xmlns="http://www.w3.org/2000/svg" xmlns:xlink="http://www.w3.org/1999/xlink">
<g id="graph0" class="graph" transform="scale(1 1) rotate(0) translate(4 478)">
<title>state transitions</title>
<polygon fill="#ffffff" stroke="transparent" points="-4,4 -4,-478 610,-478 610,4 -4,4"/>
<g id="clust1" class="cluster state regular">
<title>cluster_inverter_ctrl_fsm_st</title>
<path fill="none" stroke="#000000" stroke-width="2" d="M20,-8C20,-8 586,-8 586,-8 592,-8 598,-14 598,-20 598,-20 598,-454 598,-454 598,-460 592,-466 586,-466 586,-466 20,-466 20,-466 14,-466 8,-460 8,-454 8,-454 8,-20 8,-20 8,-14 14,-8 20,-8"/>
<text text-anchor="start" x="250.6656" y="-447.2" font-family="Helvetica,sans-Serif" font-size="12.00" fill="#000000">inverter_ctrl_fsm_st</text>
</g>
<!-- inverter_ctrl_fsm_st -->
<!-- STARTER_ST -->
<g id="node2" class="node state regular">
<title>STARTER_ST</title>
<polygon fill="#ffffff" fill-opacity="0.003922" stroke="transparent" stroke-width="2" points="194,-428 94,-428 94,-392 194,-392 194,-428"/>
<text text-anchor="start" x="105" y="-406.2" font-family="Helvetica,sans-Serif" font-size="12.00" fill="#000000">STARTER_ST</text>
<path fill="none" stroke="#000000" stroke-width="2" d="M106.3333,-393C106.3333,-393 181.6667,-393 181.6667,-393 187.3333,-393 193,-398.6667 193,-404.3333 193,-404.3333 193,-415.6667 193,-415.6667 193,-421.3333 187.3333,-427 181.6667,-427 181.6667,-427 106.3333,-427 106.3333,-427 100.6667,-427 95,-421.3333 95,-415.6667 95,-415.6667 95,-404.3333 95,-404.3333 95,-398.6667 100.6667,-393 106.3333,-393"/>
</g>
<!-- ENDER_ST -->
<g id="node3" class="node state regular">
<title>ENDER_ST</title>
<polygon fill="#ffffff" fill-opacity="0.003922" stroke="transparent" stroke-width="2" points="225.5,-334 140.5,-334 140.5,-298 225.5,-298 225.5,-334"/>
<text text-anchor="start" x="151.5008" y="-312.2" font-family="Helvetica,sans-Serif" font-size="12.00" fill="#000000">ENDER_ST</text>
<path fill="none" stroke="#000000" stroke-width="2" d="M152.8333,-299C152.8333,-299 213.1667,-299 213.1667,-299 218.8333,-299 224.5,-304.6667 224.5,-310.3333 224.5,-310.3333 224.5,-321.6667 224.5,-321.6667 224.5,-327.3333 218.8333,-333 213.1667,-333 213.1667,-333 152.8333,-333 152.8333,-333 147.1667,-333 141.5,-327.3333 141.5,-321.6667 141.5,-321.6667 141.5,-310.3333 141.5,-310.3333 141.5,-304.6667 147.1667,-299 152.8333,-299"/>
</g>
<!-- STARTER_ST&#45;&gt;ENDER_ST -->
<g id="edge1" class="edge transition">
<title>STARTER_ST&#45;&gt;ENDER_ST</title>
<path fill="none" stroke="#000000" d="M93.9482,-395.8917C76.313,-389.8317 59.5928,-382.4399 54.514,-375 48.5001,-366.1903 48.0381,-359.4759 54.514,-351 63.9814,-338.6087 99.1491,-329.5579 130.3025,-323.7678"/>
<polygon fill="#000000" stroke="#000000" points="131.005,-327.1979 140.2385,-322.0024 129.7804,-320.3058 131.005,-327.1979"/>
<text text-anchor="start" x="54" y="-360" font-family="Helvetica,sans-Serif" font-size="10.00" fill="#000000">START = &#39;1&#39; &#160;&#160;</text>
</g>
<!-- ENDER_ST&#45;&gt;STARTER_ST -->
<g id="edge2" class="edge transition">
<title>ENDER_ST&#45;&gt;STARTER_ST</title>
<path fill="none" stroke="#000000" d="M169.8456,-334.3156C166.5014,-339.5322 163.14,-345.3395 160.6,-351 156.2029,-360.7992 152.6926,-372.0433 150.0533,-382.0694"/>
<polygon fill="#000000" stroke="#000000" points="146.6091,-381.4185 147.6176,-391.9653 153.4062,-383.0916 146.6091,-381.4185"/>
<text text-anchor="start" x="160" y="-366" font-family="Helvetica,sans-Serif" font-size="10.00" fill="#000000">unsigned(x_int) &lt; &#39;0&#39; &amp; unsigned(MODULO) &#160;&#160;</text>
<text text-anchor="start" x="160" y="-354" font-family="Helvetica,sans-Serif" font-size="10.00" fill="#000000">unsigned(u_int) = unsigned(ONE) &#160;&#160;</text>
</g>
<!-- ENDER_ST&#45;&gt;STARTER_ST -->
<g id="edge3" class="edge transition">
<title>ENDER_ST&#45;&gt;STARTER_ST</title>
<path fill="none" stroke="#000000" d="M225.7316,-318.2179C273.3564,-321.6889 345.9402,-330.3036 363,-351 369.7846,-359.2309 369.9218,-366.8842 363,-375 352.7341,-387.0369 265.3871,-398.044 204.1615,-404.3825"/>
<polygon fill="#000000" stroke="#000000" points="203.7909,-400.9021 194.1969,-405.3971 204.5,-407.8661 203.7909,-400.9021"/>
<text text-anchor="start" x="368" y="-366" font-family="Helvetica,sans-Serif" font-size="10.00" fill="#000000">unsigned(y_int) &lt; &#39;0&#39; &amp; unsigned(MODULO) &#160;&#160;</text>
<text text-anchor="start" x="368" y="-354" font-family="Helvetica,sans-Serif" font-size="10.00" fill="#000000">unsigned(v_int) = unsigned(ONE) &#160;&#160;</text>
</g>
<!-- CHECK_U_ST -->
<g id="node4" class="node state regular">
<title>CHECK_U_ST</title>
<polygon fill="#ffffff" fill-opacity="0.003922" stroke="transparent" stroke-width="2" points="138.5,-252 37.5,-252 37.5,-216 138.5,-216 138.5,-252"/>
<text text-anchor="start" x="48.834" y="-230.2" font-family="Helvetica,sans-Serif" font-size="12.00" fill="#000000">CHECK_U_ST</text>
<path fill="none" stroke="#000000" stroke-width="2" d="M49.8333,-217C49.8333,-217 126.1667,-217 126.1667,-217 131.8333,-217 137.5,-222.6667 137.5,-228.3333 137.5,-228.3333 137.5,-239.6667 137.5,-239.6667 137.5,-245.3333 131.8333,-251 126.1667,-251 126.1667,-251 49.8333,-251 49.8333,-251 44.1667,-251 38.5,-245.3333 38.5,-239.6667 38.5,-239.6667 38.5,-228.3333 38.5,-228.3333 38.5,-222.6667 44.1667,-217 49.8333,-217"/>
</g>
<!-- ENDER_ST&#45;&gt;CHECK_U_ST -->
<g id="edge4" class="edge transition">
<title>ENDER_ST&#45;&gt;CHECK_U_ST</title>
<path fill="none" stroke="#000000" d="M140.1853,-299.6168C130.6262,-294.6259 121.0632,-288.4434 113.397,-281 107.7242,-275.4921 103.0133,-268.4405 99.2526,-261.4842"/>
<polygon fill="#000000" stroke="#000000" points="102.2532,-259.6533 94.7123,-252.2112 95.9663,-262.7315 102.2532,-259.6533"/>
<text text-anchor="start" x="113" y="-272" font-family="Helvetica,sans-Serif" font-size="10.00" fill="#000000">u_int(0) = &#39;0&#39; &#160;&#160;</text>
</g>
<!-- CHECK_V_ST -->
<g id="node5" class="node state regular">
<title>CHECK_V_ST</title>
<polygon fill="#ffffff" fill-opacity="0.003922" stroke="transparent" stroke-width="2" points="246,-134 146,-134 146,-98 246,-98 246,-134"/>
<text text-anchor="start" x="156.664" y="-112.2" font-family="Helvetica,sans-Serif" font-size="12.00" fill="#000000">CHECK_V_ST</text>
<path fill="none" stroke="#000000" stroke-width="2" d="M158.3333,-99C158.3333,-99 233.6667,-99 233.6667,-99 239.3333,-99 245,-104.6667 245,-110.3333 245,-110.3333 245,-121.6667 245,-121.6667 245,-127.3333 239.3333,-133 233.6667,-133 233.6667,-133 158.3333,-133 158.3333,-133 152.6667,-133 147,-127.3333 147,-121.6667 147,-121.6667 147,-110.3333 147,-110.3333 147,-104.6667 152.6667,-99 158.3333,-99"/>
</g>
<!-- ENDER_ST&#45;&gt;CHECK_V_ST -->
<g id="edge5" class="edge transition">
<title>ENDER_ST&#45;&gt;CHECK_V_ST</title>
<path fill="none" stroke="#000000" d="M183,-297.6312C183,-290.5574 183,-282.4028 183,-275 183,-275 183,-275 183,-175 183,-164.7554 184.8924,-153.7397 187.2331,-144.0326"/>
<polygon fill="#000000" stroke="#000000" points="190.6839,-144.6756 189.8807,-134.1113 183.9206,-142.8707 190.6839,-144.6756"/>
<text text-anchor="start" x="183" y="-231" font-family="Helvetica,sans-Serif" font-size="10.00" fill="#000000">v_int(0) = &#39;0&#39; &#160;&#160;</text>
</g>
<!-- CHECK_D_ST -->
<g id="node6" class="node state regular">
<title>CHECK_D_ST</title>
<polygon fill="#ffffff" fill-opacity="0.003922" stroke="transparent" stroke-width="2" points="283.5,-52 182.5,-52 182.5,-16 283.5,-16 283.5,-52"/>
<text text-anchor="start" x="193.834" y="-30.2" font-family="Helvetica,sans-Serif" font-size="12.00" fill="#000000">CHECK_D_ST</text>
<path fill="none" stroke="#000000" stroke-width="2" d="M194.8333,-17C194.8333,-17 271.1667,-17 271.1667,-17 276.8333,-17 282.5,-22.6667 282.5,-28.3333 282.5,-28.3333 282.5,-39.6667 282.5,-39.6667 282.5,-45.3333 276.8333,-51 271.1667,-51 271.1667,-51 194.8333,-51 194.8333,-51 189.1667,-51 183.5,-45.3333 183.5,-39.6667 183.5,-39.6667 183.5,-28.3333 183.5,-28.3333 183.5,-22.6667 189.1667,-17 194.8333,-17"/>
</g>
<!-- ENDER_ST&#45;&gt;CHECK_D_ST -->
<g id="edge6" class="edge transition">
<title>ENDER_ST&#45;&gt;CHECK_D_ST</title>
<path fill="none" stroke="#000000" d="M225.748,-303.5284C247.3317,-295.916 269,-285.6273 269,-275 269,-275 269,-275 269,-75 269,-69.6895 267.2735,-64.7386 264.5767,-60.2445"/>
<polygon fill="#000000" stroke="#000000" points="267.2594,-57.9914 258.3935,-52.1908 261.7071,-62.2542 267.2594,-57.9914"/>
<text text-anchor="start" x="269" y="-190" font-family="Helvetica,sans-Serif" font-size="10.00" fill="#000000">not (unsigned(u_int) = unsigned(ONE)) &#160;&#160;</text>
<text text-anchor="start" x="269" y="-178" font-family="Helvetica,sans-Serif" font-size="10.00" fill="#000000">not (unsigned(v_int) = unsigned(ONE)) &#160;&#160;</text>
<text text-anchor="start" x="269" y="-166" font-family="Helvetica,sans-Serif" font-size="10.00" fill="#000000">not (u_int(0) = &#39;0&#39;) &#160;&#160;</text>
<text text-anchor="start" x="269" y="-154" font-family="Helvetica,sans-Serif" font-size="10.00" fill="#000000">not (v_int(0) = &#39;0&#39;) &#160;&#160;</text>
</g>
<!-- CHECK_U_ST&#45;&gt;CHECK_V_ST -->
<g id="edge7" class="edge transition">
<title>CHECK_U_ST&#45;&gt;CHECK_V_ST</title>
<path fill="none" stroke="#000000" d="M89.2922,-215.983C91.5126,-197.5581 97.5484,-169.1387 113.956,-151 120.2117,-144.0843 128.0641,-138.4855 136.4158,-133.9667"/>
<polygon fill="#000000" stroke="#000000" points="138.169,-137.0057 145.6224,-129.476 135.1002,-130.7143 138.169,-137.0057"/>
<text text-anchor="start" x="113" y="-172" font-family="Helvetica,sans-Serif" font-size="10.00" fill="#000000">v_int(0) = &#39;0&#39; &#160;&#160;</text>
</g>
<!-- CHECK_U_ST&#45;&gt;CHECK_D_ST -->
<g id="edge8" class="edge transition">
<title>CHECK_U_ST&#45;&gt;CHECK_D_ST</title>
<path fill="none" stroke="#000000" d="M61.2435,-215.8913C49.3556,-205.5478 38,-191.3804 38,-175 38,-175 38,-175 38,-75 38,-61.0894 114.9764,-48.4738 172.2019,-41.0172"/>
<polygon fill="#000000" stroke="#000000" points="172.7991,-44.4695 182.2751,-39.7307 171.9122,-37.5259 172.7991,-44.4695"/>
<text text-anchor="start" x="38" y="-113" font-family="Helvetica,sans-Serif" font-size="10.00" fill="#000000">not (v_int(0) = &#39;0&#39;) &#160;&#160;</text>
</g>
<!-- CHECK_V_ST&#45;&gt;CHECK_D_ST -->
<g id="edge9" class="edge transition">
<title>CHECK_V_ST&#45;&gt;CHECK_D_ST</title>
<path fill="none" stroke="#000000" d="M204.2115,-97.8015C209.0497,-87.0791 215.2644,-73.306 220.6805,-61.3026"/>
<polygon fill="#000000" stroke="#000000" points="223.8888,-62.7022 224.8115,-52.1476 217.5082,-59.8231 223.8888,-62.7022"/>
<text text-anchor="middle" x="217.3895" y="-72" font-family="Helvetica,sans-Serif" font-size="10.00" fill="#000000"> </text>
</g>
<!-- CHECK_D_ST&#45;&gt;ENDER_ST -->
<g id="edge10" class="edge transition">
<title>CHECK_D_ST&#45;&gt;ENDER_ST</title>
<path fill="none" stroke="#000000" d="M283.6329,-36.9189C359.5331,-41.9834 494,-53.9293 494,-75 494,-275 494,-275 494,-275 494,-300.7347 324.4577,-310.8185 235.7342,-314.3336"/>
<polygon fill="#000000" stroke="#000000" points="235.4503,-310.8418 225.5911,-314.7208 235.7174,-317.8367 235.4503,-310.8418"/>
<text text-anchor="middle" x="495.3895" y="-172" font-family="Helvetica,sans-Serif" font-size="10.00" fill="#000000"> </text>
</g>
</g>
</svg>
