<?xml version="1.0" encoding="UTF-8" standalone="no"?>
<!DOCTYPE svg PUBLIC "-//W3C//DTD SVG 1.1//EN"
 "http://www.w3.org/Graphics/SVG/1.1/DTD/svg11.dtd">
<!-- Generated by graphviz version 2.40.1 (20161225.0304)
 -->
<!-- Title: state transitions Pages: 1 -->
<svg width="348pt" height="1102pt"
 viewBox="0.00 0.00 348.00 1102.00" xmlns="http://www.w3.org/2000/svg" xmlns:xlink="http://www.w3.org/1999/xlink">
<g id="graph0" class="graph" transform="scale(1 1) rotate(0) translate(4 1098)">
<title>state transitions</title>
<polygon fill="#ffffff" stroke="transparent" points="-4,4 -4,-1098 344,-1098 344,4 -4,4"/>
<g id="clust1" class="cluster state regular">
<title>cluster_point_doubler_ctrl_fsm_st</title>
<path fill="none" stroke="#000000" stroke-width="2" d="M20,-8C20,-8 320,-8 320,-8 326,-8 332,-14 332,-20 332,-20 332,-1074 332,-1074 332,-1080 326,-1086 320,-1086 320,-1086 20,-1086 20,-1086 14,-1086 8,-1080 8,-1074 8,-1074 8,-20 8,-20 8,-14 14,-8 20,-8"/>
<text text-anchor="start" x="101.8192" y="-1067.2" font-family="Helvetica,sans-Serif" font-size="12.00" fill="#000000">point_doubler_ctrl_fsm_st</text>
</g>
<!-- point_doubler_ctrl_fsm_st -->
<!-- STARTER_ST -->
<g id="node2" class="node state regular">
<title>STARTER_ST</title>
<polygon fill="#ffffff" fill-opacity="0.003922" stroke="transparent" stroke-width="2" points="209,-1048 109,-1048 109,-1012 209,-1012 209,-1048"/>
<text text-anchor="start" x="120" y="-1026.2" font-family="Helvetica,sans-Serif" font-size="12.00" fill="#000000">STARTER_ST</text>
<path fill="none" stroke="#000000" stroke-width="2" d="M121.3333,-1013C121.3333,-1013 196.6667,-1013 196.6667,-1013 202.3333,-1013 208,-1018.6667 208,-1024.3333 208,-1024.3333 208,-1035.6667 208,-1035.6667 208,-1041.3333 202.3333,-1047 196.6667,-1047 196.6667,-1047 121.3333,-1047 121.3333,-1047 115.6667,-1047 110,-1041.3333 110,-1035.6667 110,-1035.6667 110,-1024.3333 110,-1024.3333 110,-1018.6667 115.6667,-1013 121.3333,-1013"/>
</g>
<!-- MULTIPLIER_FIRST_ST -->
<g id="node3" class="node state regular">
<title>MULTIPLIER_FIRST_ST</title>
<polygon fill="#ffffff" fill-opacity="0.003922" stroke="transparent" stroke-width="2" points="176,-954 20,-954 20,-918 176,-918 176,-954"/>
<text text-anchor="start" x="30.9974" y="-932.2" font-family="Helvetica,sans-Serif" font-size="12.00" fill="#000000">MULTIPLIER_FIRST_ST</text>
<path fill="none" stroke="#000000" stroke-width="2" d="M32.3333,-919C32.3333,-919 163.6667,-919 163.6667,-919 169.3333,-919 175,-924.6667 175,-930.3333 175,-930.3333 175,-941.6667 175,-941.6667 175,-947.3333 169.3333,-953 163.6667,-953 163.6667,-953 32.3333,-953 32.3333,-953 26.6667,-953 21,-947.3333 21,-941.6667 21,-941.6667 21,-930.3333 21,-930.3333 21,-924.6667 26.6667,-919 32.3333,-919"/>
</g>
<!-- STARTER_ST&#45;&gt;MULTIPLIER_FIRST_ST -->
<g id="edge1" class="edge transition">
<title>STARTER_ST&#45;&gt;MULTIPLIER_FIRST_ST</title>
<path fill="none" stroke="#000000" d="M108.7919,-1019.0433C85.5305,-1012.8487 61.5308,-1004.4565 54.73,-995 48.5022,-986.3402 50.1352,-980.6263 54.73,-971 56.3662,-967.5721 58.5203,-964.3716 60.9946,-961.4095"/>
<polygon fill="#000000" stroke="#000000" points="63.636,-963.7154 68.1564,-954.1332 58.6471,-958.805 63.636,-963.7154"/>
<text text-anchor="start" x="54" y="-986" font-family="Helvetica,sans-Serif" font-size="10.00" fill="#000000">START = &#39;1&#39; &#160;&#160;</text>
<text text-anchor="start" x="54" y="-974" font-family="Helvetica,sans-Serif" font-size="10.00" fill="#000000">not (POINT_IN_PX = ZERO and POINT_IN_PY = ZERO) &#160;&#160;</text>
</g>
<!-- MULTIPLIER_SECOND_ST -->
<g id="node4" class="node state regular">
<title>MULTIPLIER_SECOND_ST</title>
<polygon fill="#ffffff" fill-opacity="0.003922" stroke="transparent" stroke-width="2" points="191,-872 19,-872 19,-836 191,-836 191,-872"/>
<text text-anchor="start" x="29.664" y="-850.2" font-family="Helvetica,sans-Serif" font-size="12.00" fill="#000000">MULTIPLIER_SECOND_ST</text>
<path fill="none" stroke="#000000" stroke-width="2" d="M31.3333,-837C31.3333,-837 178.6667,-837 178.6667,-837 184.3333,-837 190,-842.6667 190,-848.3333 190,-848.3333 190,-859.6667 190,-859.6667 190,-865.3333 184.3333,-871 178.6667,-871 178.6667,-871 31.3333,-871 31.3333,-871 25.6667,-871 20,-865.3333 20,-859.6667 20,-859.6667 20,-848.3333 20,-848.3333 20,-842.6667 25.6667,-837 31.3333,-837"/>
</g>
<!-- MULTIPLIER_FIRST_ST&#45;&gt;MULTIPLIER_SECOND_ST -->
<g id="edge2" class="edge transition">
<title>MULTIPLIER_FIRST_ST&#45;&gt;MULTIPLIER_SECOND_ST</title>
<path fill="none" stroke="#000000" d="M99.5535,-917.8015C100.4417,-907.3976 101.575,-894.1215 102.5776,-882.3768"/>
<polygon fill="#000000" stroke="#000000" points="106.0875,-882.4091 103.4508,-872.1476 99.1128,-881.8136 106.0875,-882.4091"/>
<text text-anchor="start" x="101" y="-892" font-family="Helvetica,sans-Serif" font-size="10.00" fill="#000000">ready_multiplier = &#39;1&#39; &#160;&#160;</text>
</g>
<!-- ADDER_FIRST_ST -->
<g id="node5" class="node state regular">
<title>ADDER_FIRST_ST</title>
<polygon fill="#ffffff" fill-opacity="0.003922" stroke="transparent" stroke-width="2" points="169.5,-790 42.5,-790 42.5,-754 169.5,-754 169.5,-790"/>
<text text-anchor="start" x="53.8344" y="-768.2" font-family="Helvetica,sans-Serif" font-size="12.00" fill="#000000">ADDER_FIRST_ST</text>
<path fill="none" stroke="#000000" stroke-width="2" d="M54.8333,-755C54.8333,-755 157.1667,-755 157.1667,-755 162.8333,-755 168.5,-760.6667 168.5,-766.3333 168.5,-766.3333 168.5,-777.6667 168.5,-777.6667 168.5,-783.3333 162.8333,-789 157.1667,-789 157.1667,-789 54.8333,-789 54.8333,-789 49.1667,-789 43.5,-783.3333 43.5,-777.6667 43.5,-777.6667 43.5,-766.3333 43.5,-766.3333 43.5,-760.6667 49.1667,-755 54.8333,-755"/>
</g>
<!-- MULTIPLIER_SECOND_ST&#45;&gt;ADDER_FIRST_ST -->
<g id="edge3" class="edge transition">
<title>MULTIPLIER_SECOND_ST&#45;&gt;ADDER_FIRST_ST</title>
<path fill="none" stroke="#000000" d="M105.2219,-835.8015C105.3488,-825.3976 105.5107,-812.1215 105.6539,-800.3768"/>
<polygon fill="#000000" stroke="#000000" points="109.1564,-800.1896 105.7787,-790.1476 102.1569,-800.1041 109.1564,-800.1896"/>
<text text-anchor="start" x="105" y="-810" font-family="Helvetica,sans-Serif" font-size="10.00" fill="#000000">ready_multiplier = &#39;1&#39; &#160;&#160;</text>
</g>
<!-- MULTIPLIER_THIRD_ST -->
<g id="node6" class="node state regular">
<title>MULTIPLIER_THIRD_ST</title>
<polygon fill="#ffffff" fill-opacity="0.003922" stroke="transparent" stroke-width="2" points="185.5,-708 28.5,-708 28.5,-672 185.5,-672 185.5,-708"/>
<text text-anchor="start" x="39.5014" y="-686.2" font-family="Helvetica,sans-Serif" font-size="12.00" fill="#000000">MULTIPLIER_THIRD_ST</text>
<path fill="none" stroke="#000000" stroke-width="2" d="M40.8333,-673C40.8333,-673 173.1667,-673 173.1667,-673 178.8333,-673 184.5,-678.6667 184.5,-684.3333 184.5,-684.3333 184.5,-695.6667 184.5,-695.6667 184.5,-701.3333 178.8333,-707 173.1667,-707 173.1667,-707 40.8333,-707 40.8333,-707 35.1667,-707 29.5,-701.3333 29.5,-695.6667 29.5,-695.6667 29.5,-684.3333 29.5,-684.3333 29.5,-678.6667 35.1667,-673 40.8333,-673"/>
</g>
<!-- ADDER_FIRST_ST&#45;&gt;MULTIPLIER_THIRD_ST -->
<g id="edge4" class="edge transition">
<title>ADDER_FIRST_ST&#45;&gt;MULTIPLIER_THIRD_ST</title>
<path fill="none" stroke="#000000" d="M106.2219,-753.8015C106.3488,-743.3976 106.5107,-730.1215 106.6539,-718.3768"/>
<polygon fill="#000000" stroke="#000000" points="110.1564,-718.1896 106.7787,-708.1476 103.1569,-718.1041 110.1564,-718.1896"/>
<text text-anchor="start" x="106" y="-728" font-family="Helvetica,sans-Serif" font-size="10.00" fill="#000000">ready_adder = &#39;1&#39; &#160;&#160;</text>
</g>
<!-- INVERTER_ST -->
<g id="node7" class="node state regular">
<title>INVERTER_ST</title>
<polygon fill="#ffffff" fill-opacity="0.003922" stroke="transparent" stroke-width="2" points="160,-626 56,-626 56,-590 160,-590 160,-626"/>
<text text-anchor="start" x="66.6666" y="-604.2" font-family="Helvetica,sans-Serif" font-size="12.00" fill="#000000">INVERTER_ST</text>
<path fill="none" stroke="#000000" stroke-width="2" d="M68.3333,-591C68.3333,-591 147.6667,-591 147.6667,-591 153.3333,-591 159,-596.6667 159,-602.3333 159,-602.3333 159,-613.6667 159,-613.6667 159,-619.3333 153.3333,-625 147.6667,-625 147.6667,-625 68.3333,-625 68.3333,-625 62.6667,-625 57,-619.3333 57,-613.6667 57,-613.6667 57,-602.3333 57,-602.3333 57,-596.6667 62.6667,-591 68.3333,-591"/>
</g>
<!-- MULTIPLIER_THIRD_ST&#45;&gt;INVERTER_ST -->
<g id="edge5" class="edge transition">
<title>MULTIPLIER_THIRD_ST&#45;&gt;INVERTER_ST</title>
<path fill="none" stroke="#000000" d="M107.2219,-671.8015C107.3488,-661.3976 107.5107,-648.1215 107.6539,-636.3768"/>
<polygon fill="#000000" stroke="#000000" points="111.1564,-636.1896 107.7787,-626.1476 104.1569,-636.1041 111.1564,-636.1896"/>
<text text-anchor="start" x="107" y="-646" font-family="Helvetica,sans-Serif" font-size="10.00" fill="#000000">ready_multiplier = &#39;1&#39; &#160;&#160;</text>
</g>
<!-- MULTIPLIER_FOURTH_ST -->
<g id="node8" class="node state regular">
<title>MULTIPLIER_FOURTH_ST</title>
<polygon fill="#ffffff" fill-opacity="0.003922" stroke="transparent" stroke-width="2" points="193.5,-544 22.5,-544 22.5,-508 193.5,-508 193.5,-544"/>
<text text-anchor="start" x="33.836" y="-522.2" font-family="Helvetica,sans-Serif" font-size="12.00" fill="#000000">MULTIPLIER_FOURTH_ST</text>
<path fill="none" stroke="#000000" stroke-width="2" d="M34.8333,-509C34.8333,-509 181.1667,-509 181.1667,-509 186.8333,-509 192.5,-514.6667 192.5,-520.3333 192.5,-520.3333 192.5,-531.6667 192.5,-531.6667 192.5,-537.3333 186.8333,-543 181.1667,-543 181.1667,-543 34.8333,-543 34.8333,-543 29.1667,-543 23.5,-537.3333 23.5,-531.6667 23.5,-531.6667 23.5,-520.3333 23.5,-520.3333 23.5,-514.6667 29.1667,-509 34.8333,-509"/>
</g>
<!-- INVERTER_ST&#45;&gt;MULTIPLIER_FOURTH_ST -->
<g id="edge6" class="edge transition">
<title>INVERTER_ST&#45;&gt;MULTIPLIER_FOURTH_ST</title>
<path fill="none" stroke="#000000" d="M108,-589.8015C108,-579.3976 108,-566.1215 108,-554.3768"/>
<polygon fill="#000000" stroke="#000000" points="111.5001,-554.1476 108,-544.1476 104.5001,-554.1476 111.5001,-554.1476"/>
<text text-anchor="start" x="108" y="-564" font-family="Helvetica,sans-Serif" font-size="10.00" fill="#000000">ready_inverter = &#39;1&#39; &#160;&#160;</text>
</g>
<!-- MULTIPLIER_FIFTH_ST -->
<g id="node9" class="node state regular">
<title>MULTIPLIER_FIFTH_ST</title>
<polygon fill="#ffffff" fill-opacity="0.003922" stroke="transparent" stroke-width="2" points="188.5,-462 33.5,-462 33.5,-426 188.5,-426 188.5,-462"/>
<text text-anchor="start" x="44.8334" y="-440.2" font-family="Helvetica,sans-Serif" font-size="12.00" fill="#000000">MULTIPLIER_FIFTH_ST</text>
<path fill="none" stroke="#000000" stroke-width="2" d="M45.8333,-427C45.8333,-427 176.1667,-427 176.1667,-427 181.8333,-427 187.5,-432.6667 187.5,-438.3333 187.5,-438.3333 187.5,-449.6667 187.5,-449.6667 187.5,-455.3333 181.8333,-461 176.1667,-461 176.1667,-461 45.8333,-461 45.8333,-461 40.1667,-461 34.5,-455.3333 34.5,-449.6667 34.5,-449.6667 34.5,-438.3333 34.5,-438.3333 34.5,-432.6667 40.1667,-427 45.8333,-427"/>
</g>
<!-- MULTIPLIER_FOURTH_ST&#45;&gt;MULTIPLIER_FIFTH_ST -->
<g id="edge7" class="edge transition">
<title>MULTIPLIER_FOURTH_ST&#45;&gt;MULTIPLIER_FIFTH_ST</title>
<path fill="none" stroke="#000000" d="M108.6658,-507.8015C109.0464,-497.3976 109.5321,-484.1215 109.9618,-472.3768"/>
<polygon fill="#000000" stroke="#000000" points="113.468,-472.2689 110.3361,-462.1476 106.4727,-472.0129 113.468,-472.2689"/>
<text text-anchor="start" x="109" y="-482" font-family="Helvetica,sans-Serif" font-size="10.00" fill="#000000">ready_multiplier = &#39;1&#39; &#160;&#160;</text>
</g>
<!-- MULTIPLIER_SIXTH_ST -->
<g id="node10" class="node state regular">
<title>MULTIPLIER_SIXTH_ST</title>
<polygon fill="#ffffff" fill-opacity="0.003922" stroke="transparent" stroke-width="2" points="191,-380 35,-380 35,-344 191,-344 191,-380"/>
<text text-anchor="start" x="45.6614" y="-358.2" font-family="Helvetica,sans-Serif" font-size="12.00" fill="#000000">MULTIPLIER_SIXTH_ST</text>
<path fill="none" stroke="#000000" stroke-width="2" d="M47.3333,-345C47.3333,-345 178.6667,-345 178.6667,-345 184.3333,-345 190,-350.6667 190,-356.3333 190,-356.3333 190,-367.6667 190,-367.6667 190,-373.3333 184.3333,-379 178.6667,-379 178.6667,-379 47.3333,-379 47.3333,-379 41.6667,-379 36,-373.3333 36,-367.6667 36,-367.6667 36,-356.3333 36,-356.3333 36,-350.6667 41.6667,-345 47.3333,-345"/>
</g>
<!-- MULTIPLIER_FIFTH_ST&#45;&gt;MULTIPLIER_SIXTH_ST -->
<g id="edge8" class="edge transition">
<title>MULTIPLIER_FIFTH_ST&#45;&gt;MULTIPLIER_SIXTH_ST</title>
<path fill="none" stroke="#000000" d="M111.4439,-425.8015C111.6976,-415.3976 112.0214,-402.1215 112.3079,-390.3768"/>
<polygon fill="#000000" stroke="#000000" points="115.8124,-390.23 112.5574,-380.1476 108.8145,-390.0592 115.8124,-390.23"/>
<text text-anchor="start" x="112" y="-400" font-family="Helvetica,sans-Serif" font-size="10.00" fill="#000000">ready_multiplier = &#39;1&#39; &#160;&#160;</text>
</g>
<!-- ADDER_SECOND_ST -->
<g id="node11" class="node state regular">
<title>ADDER_SECOND_ST</title>
<polygon fill="#ffffff" fill-opacity="0.003922" stroke="transparent" stroke-width="2" points="185.5,-298 42.5,-298 42.5,-262 185.5,-262 185.5,-298"/>
<text text-anchor="start" x="53.501" y="-276.2" font-family="Helvetica,sans-Serif" font-size="12.00" fill="#000000">ADDER_SECOND_ST</text>
<path fill="none" stroke="#000000" stroke-width="2" d="M54.8333,-263C54.8333,-263 173.1667,-263 173.1667,-263 178.8333,-263 184.5,-268.6667 184.5,-274.3333 184.5,-274.3333 184.5,-285.6667 184.5,-285.6667 184.5,-291.3333 178.8333,-297 173.1667,-297 173.1667,-297 54.8333,-297 54.8333,-297 49.1667,-297 43.5,-291.3333 43.5,-285.6667 43.5,-285.6667 43.5,-274.3333 43.5,-274.3333 43.5,-268.6667 49.1667,-263 54.8333,-263"/>
</g>
<!-- MULTIPLIER_SIXTH_ST&#45;&gt;ADDER_SECOND_ST -->
<g id="edge9" class="edge transition">
<title>MULTIPLIER_SIXTH_ST&#45;&gt;ADDER_SECOND_ST</title>
<path fill="none" stroke="#000000" d="M113.2219,-343.8015C113.3488,-333.3976 113.5107,-320.1215 113.6539,-308.3768"/>
<polygon fill="#000000" stroke="#000000" points="117.1564,-308.1896 113.7787,-298.1476 110.1569,-308.1041 117.1564,-308.1896"/>
<text text-anchor="start" x="113" y="-318" font-family="Helvetica,sans-Serif" font-size="10.00" fill="#000000">ready_multiplier = &#39;1&#39; &#160;&#160;</text>
</g>
<!-- ADDER_THIRD_ST -->
<g id="node12" class="node state regular">
<title>ADDER_THIRD_ST</title>
<polygon fill="#ffffff" fill-opacity="0.003922" stroke="transparent" stroke-width="2" points="179.5,-216 50.5,-216 50.5,-180 179.5,-180 179.5,-216"/>
<text text-anchor="start" x="61.8384" y="-194.2" font-family="Helvetica,sans-Serif" font-size="12.00" fill="#000000">ADDER_THIRD_ST</text>
<path fill="none" stroke="#000000" stroke-width="2" d="M62.8333,-181C62.8333,-181 167.1667,-181 167.1667,-181 172.8333,-181 178.5,-186.6667 178.5,-192.3333 178.5,-192.3333 178.5,-203.6667 178.5,-203.6667 178.5,-209.3333 172.8333,-215 167.1667,-215 167.1667,-215 62.8333,-215 62.8333,-215 57.1667,-215 51.5,-209.3333 51.5,-203.6667 51.5,-203.6667 51.5,-192.3333 51.5,-192.3333 51.5,-186.6667 57.1667,-181 62.8333,-181"/>
</g>
<!-- ADDER_SECOND_ST&#45;&gt;ADDER_THIRD_ST -->
<g id="edge10" class="edge transition">
<title>ADDER_SECOND_ST&#45;&gt;ADDER_THIRD_ST</title>
<path fill="none" stroke="#000000" d="M114.2219,-261.8015C114.3488,-251.3976 114.5107,-238.1215 114.6539,-226.3768"/>
<polygon fill="#000000" stroke="#000000" points="118.1564,-226.1896 114.7787,-216.1476 111.1569,-226.1041 118.1564,-226.1896"/>
<text text-anchor="start" x="114" y="-236" font-family="Helvetica,sans-Serif" font-size="10.00" fill="#000000">ready_adder = &#39;1&#39; &#160;&#160;</text>
</g>
<!-- MULTIPLIER_SEVENTH_ST -->
<g id="node13" class="node state regular">
<title>MULTIPLIER_SEVENTH_ST</title>
<polygon fill="#ffffff" fill-opacity="0.003922" stroke="transparent" stroke-width="2" points="204,-134 26,-134 26,-98 204,-98 204,-134"/>
<text text-anchor="start" x="36.9946" y="-112.2" font-family="Helvetica,sans-Serif" font-size="12.00" fill="#000000">MULTIPLIER_SEVENTH_ST</text>
<path fill="none" stroke="#000000" stroke-width="2" d="M38.3333,-99C38.3333,-99 191.6667,-99 191.6667,-99 197.3333,-99 203,-104.6667 203,-110.3333 203,-110.3333 203,-121.6667 203,-121.6667 203,-127.3333 197.3333,-133 191.6667,-133 191.6667,-133 38.3333,-133 38.3333,-133 32.6667,-133 27,-127.3333 27,-121.6667 27,-121.6667 27,-110.3333 27,-110.3333 27,-104.6667 32.6667,-99 38.3333,-99"/>
</g>
<!-- ADDER_THIRD_ST&#45;&gt;MULTIPLIER_SEVENTH_ST -->
<g id="edge11" class="edge transition">
<title>ADDER_THIRD_ST&#45;&gt;MULTIPLIER_SEVENTH_ST</title>
<path fill="none" stroke="#000000" d="M115,-179.8015C115,-169.3976 115,-156.1215 115,-144.3768"/>
<polygon fill="#000000" stroke="#000000" points="118.5001,-144.1476 115,-134.1476 111.5001,-144.1476 118.5001,-144.1476"/>
<text text-anchor="start" x="115" y="-154" font-family="Helvetica,sans-Serif" font-size="10.00" fill="#000000">ready_adder = &#39;1&#39; &#160;&#160;</text>
</g>
<!-- ENDER_ST -->
<g id="node14" class="node state regular">
<title>ENDER_ST</title>
<polygon fill="#ffffff" fill-opacity="0.003922" stroke="transparent" stroke-width="2" points="219.5,-52 134.5,-52 134.5,-16 219.5,-16 219.5,-52"/>
<text text-anchor="start" x="145.5008" y="-30.2" font-family="Helvetica,sans-Serif" font-size="12.00" fill="#000000">ENDER_ST</text>
<path fill="none" stroke="#000000" stroke-width="2" d="M146.8333,-17C146.8333,-17 207.1667,-17 207.1667,-17 212.8333,-17 218.5,-22.6667 218.5,-28.3333 218.5,-28.3333 218.5,-39.6667 218.5,-39.6667 218.5,-45.3333 212.8333,-51 207.1667,-51 207.1667,-51 146.8333,-51 146.8333,-51 141.1667,-51 135.5,-45.3333 135.5,-39.6667 135.5,-39.6667 135.5,-28.3333 135.5,-28.3333 135.5,-22.6667 141.1667,-17 146.8333,-17"/>
</g>
<!-- MULTIPLIER_SEVENTH_ST&#45;&gt;ENDER_ST -->
<g id="edge12" class="edge transition">
<title>MULTIPLIER_SEVENTH_ST&#45;&gt;ENDER_ST</title>
<path fill="none" stroke="#000000" d="M118.8565,-97.8808C121.4401,-88.6303 125.5313,-77.555 131.734,-69 134.3634,-65.3734 137.471,-61.9384 140.8067,-58.7401"/>
<polygon fill="#000000" stroke="#000000" points="143.1435,-61.3463 148.3766,-52.134 138.5408,-56.0722 143.1435,-61.3463"/>
<text text-anchor="start" x="131" y="-72" font-family="Helvetica,sans-Serif" font-size="10.00" fill="#000000">ready_multiplier = &#39;1&#39; &#160;&#160;</text>
</g>
<!-- ENDER_ST&#45;&gt;STARTER_ST -->
<g id="edge13" class="edge transition">
<title>ENDER_ST&#45;&gt;STARTER_ST</title>
<path fill="none" stroke="#000000" d="M219.698,-48.2657C229.9496,-54.4773 238,-63.1331 238,-75 238,-649 238,-649 238,-649 238,-796.4618 300.0896,-824.6299 318,-971 319.2955,-981.5877 324.6827,-986.6862 318,-995 311.5859,-1002.9796 261.5033,-1013.1377 219.2356,-1020.4525"/>
<polygon fill="#000000" stroke="#000000" points="218.5172,-1017.0244 209.2471,-1022.1544 219.6929,-1023.925 218.5172,-1017.0244"/>
<text text-anchor="start" x="238" y="-523" font-family="Helvetica,sans-Serif" font-size="10.00" fill="#000000">ready_adder = &#39;1&#39; &#160;&#160;</text>
</g>
</g>
</svg>
