<?xml version="1.0" encoding="UTF-8" standalone="no"?>
<!DOCTYPE svg PUBLIC "-//W3C//DTD SVG 1.1//EN"
 "http://www.w3.org/Graphics/SVG/1.1/DTD/svg11.dtd">
<!-- Generated by graphviz version 2.40.1 (20161225.0304)
 -->
<!-- Title: state transitions Pages: 1 -->
<svg width="266pt" height="434pt"
 viewBox="0.00 0.00 265.72 434.00" xmlns="http://www.w3.org/2000/svg" xmlns:xlink="http://www.w3.org/1999/xlink">
<g id="graph0" class="graph" transform="scale(1 1) rotate(0) translate(4 430)">
<title>state transitions</title>
<polygon fill="#ffffff" stroke="transparent" points="-4,4 -4,-430 261.723,-430 261.723,4 -4,4"/>
<g id="clust1" class="cluster state regular">
<title>cluster_sha_ctrl_fsm_st</title>
<path fill="none" stroke="#000000" stroke-width="2" d="M20,-8C20,-8 215,-8 215,-8 221,-8 227,-14 227,-20 227,-20 227,-406 227,-406 227,-412 221,-418 215,-418 215,-418 20,-418 20,-418 14,-418 8,-412 8,-406 8,-406 8,-20 8,-20 8,-14 14,-8 20,-8"/>
<text text-anchor="start" x="75.4946" y="-399.2" font-family="Helvetica,sans-Serif" font-size="12.00" fill="#000000">sha_ctrl_fsm_st</text>
</g>
<!-- sha_ctrl_fsm_st -->
<!-- STARTER_ST -->
<g id="node2" class="node state regular">
<title>STARTER_ST</title>
<polygon fill="#ffffff" fill-opacity="0.003922" stroke="transparent" stroke-width="2" points="138,-380 38,-380 38,-344 138,-344 138,-380"/>
<text text-anchor="start" x="49" y="-358.2" font-family="Helvetica,sans-Serif" font-size="12.00" fill="#000000">STARTER_ST</text>
<path fill="none" stroke="#000000" stroke-width="2" d="M50.3333,-345C50.3333,-345 125.6667,-345 125.6667,-345 131.3333,-345 137,-350.6667 137,-356.3333 137,-356.3333 137,-367.6667 137,-367.6667 137,-373.3333 131.3333,-379 125.6667,-379 125.6667,-379 50.3333,-379 50.3333,-379 44.6667,-379 39,-373.3333 39,-367.6667 39,-367.6667 39,-356.3333 39,-356.3333 39,-350.6667 44.6667,-345 50.3333,-345"/>
</g>
<!-- MESSAGE_ST -->
<g id="node3" class="node state regular">
<title>MESSAGE_ST</title>
<polygon fill="#ffffff" fill-opacity="0.003922" stroke="transparent" stroke-width="2" points="119.5,-298 16.5,-298 16.5,-262 119.5,-262 119.5,-298"/>
<text text-anchor="start" x="27.826" y="-276.2" font-family="Helvetica,sans-Serif" font-size="12.00" fill="#000000">MESSAGE_ST</text>
<path fill="none" stroke="#000000" stroke-width="2" d="M28.8333,-263C28.8333,-263 107.1667,-263 107.1667,-263 112.8333,-263 118.5,-268.6667 118.5,-274.3333 118.5,-274.3333 118.5,-285.6667 118.5,-285.6667 118.5,-291.3333 112.8333,-297 107.1667,-297 107.1667,-297 28.8333,-297 28.8333,-297 23.1667,-297 17.5,-291.3333 17.5,-285.6667 17.5,-285.6667 17.5,-274.3333 17.5,-274.3333 17.5,-268.6667 23.1667,-263 28.8333,-263"/>
</g>
<!-- STARTER_ST&#45;&gt;MESSAGE_ST -->
<g id="edge1" class="edge transition">
<title>STARTER_ST&#45;&gt;MESSAGE_ST</title>
<path fill="none" stroke="#000000" d="M83.5614,-343.8015C80.9979,-333.2915 77.7196,-319.8503 74.8336,-308.0177"/>
<polygon fill="#000000" stroke="#000000" points="78.1962,-307.0334 72.4262,-298.1476 71.3956,-308.6922 78.1962,-307.0334"/>
<text text-anchor="start" x="79" y="-318" font-family="Helvetica,sans-Serif" font-size="10.00" fill="#000000">START = &#39;1&#39; &#160;&#160;</text>
</g>
<!-- INPUT_ST -->
<g id="node4" class="node state regular">
<title>INPUT_ST</title>
<polygon fill="#ffffff" fill-opacity="0.003922" stroke="transparent" stroke-width="2" points="94.5,-216 15.5,-216 15.5,-180 94.5,-180 94.5,-216"/>
<text text-anchor="start" x="26.5008" y="-194.2" font-family="Helvetica,sans-Serif" font-size="12.00" fill="#000000">INPUT_ST</text>
<path fill="none" stroke="#000000" stroke-width="2" d="M27.8333,-181C27.8333,-181 82.1667,-181 82.1667,-181 87.8333,-181 93.5,-186.6667 93.5,-192.3333 93.5,-192.3333 93.5,-203.6667 93.5,-203.6667 93.5,-209.3333 87.8333,-215 82.1667,-215 82.1667,-215 27.8333,-215 27.8333,-215 22.1667,-215 16.5,-209.3333 16.5,-203.6667 16.5,-203.6667 16.5,-192.3333 16.5,-192.3333 16.5,-186.6667 22.1667,-181 27.8333,-181"/>
</g>
<!-- MESSAGE_ST&#45;&gt;INPUT_ST -->
<g id="edge2" class="edge transition">
<title>MESSAGE_ST&#45;&gt;INPUT_ST</title>
<path fill="none" stroke="#000000" d="M59.8116,-261.8211C57.8052,-256.5081 55.9436,-250.617 54.929,-245 53.8774,-239.1784 53.4271,-232.8846 53.3219,-226.853"/>
<polygon fill="#000000" stroke="#000000" points="56.8267,-226.4801 53.4499,-216.4378 49.8272,-226.3941 56.8267,-226.4801"/>
<text text-anchor="start" x="54" y="-236" font-family="Helvetica,sans-Serif" font-size="10.00" fill="#000000">ready_sha512 = &#39;1&#39; &#160;&#160;</text>
</g>
<!-- GENERATION_ST -->
<g id="node5" class="node state regular">
<title>GENERATION_ST</title>
<polygon fill="#ffffff" fill-opacity="0.003922" stroke="transparent" stroke-width="2" points="139.5,-134 16.5,-134 16.5,-98 139.5,-98 139.5,-134"/>
<text text-anchor="start" x="27.8318" y="-112.2" font-family="Helvetica,sans-Serif" font-size="12.00" fill="#000000">GENERATION_ST</text>
<path fill="none" stroke="#000000" stroke-width="2" d="M28.8333,-99C28.8333,-99 127.1667,-99 127.1667,-99 132.8333,-99 138.5,-104.6667 138.5,-110.3333 138.5,-110.3333 138.5,-121.6667 138.5,-121.6667 138.5,-127.3333 132.8333,-133 127.1667,-133 127.1667,-133 28.8333,-133 28.8333,-133 23.1667,-133 17.5,-127.3333 17.5,-121.6667 17.5,-121.6667 17.5,-110.3333 17.5,-110.3333 17.5,-104.6667 23.1667,-99 28.8333,-99"/>
</g>
<!-- INPUT_ST&#45;&gt;GENERATION_ST -->
<g id="edge3" class="edge transition">
<title>INPUT_ST&#45;&gt;GENERATION_ST</title>
<path fill="none" stroke="#000000" d="M52.7431,-179.793C52.2349,-170.9306 52.5078,-160.2242 55.269,-151 56.0599,-148.358 57.1181,-145.728 58.3466,-143.1647"/>
<polygon fill="#000000" stroke="#000000" points="61.4988,-144.7006 63.3686,-134.272 55.4036,-141.2583 61.4988,-144.7006"/>
<text text-anchor="start" x="55" y="-154" font-family="Helvetica,sans-Serif" font-size="10.00" fill="#000000">arithmetic_enable_int = &#39;1&#39; &#160;&#160;</text>
</g>
<!-- ENDER_ST -->
<g id="node6" class="node state regular">
<title>ENDER_ST</title>
<polygon fill="#ffffff" fill-opacity="0.003922" stroke="transparent" stroke-width="2" points="165.5,-52 80.5,-52 80.5,-16 165.5,-16 165.5,-52"/>
<text text-anchor="start" x="91.5008" y="-30.2" font-family="Helvetica,sans-Serif" font-size="12.00" fill="#000000">ENDER_ST</text>
<path fill="none" stroke="#000000" stroke-width="2" d="M92.8333,-17C92.8333,-17 153.1667,-17 153.1667,-17 158.8333,-17 164.5,-22.6667 164.5,-28.3333 164.5,-28.3333 164.5,-39.6667 164.5,-39.6667 164.5,-45.3333 158.8333,-51 153.1667,-51 153.1667,-51 92.8333,-51 92.8333,-51 87.1667,-51 81.5,-45.3333 81.5,-39.6667 81.5,-39.6667 81.5,-28.3333 81.5,-28.3333 81.5,-22.6667 87.1667,-17 92.8333,-17"/>
</g>
<!-- GENERATION_ST&#45;&gt;ENDER_ST -->
<g id="edge4" class="edge transition">
<title>GENERATION_ST&#45;&gt;ENDER_ST</title>
<path fill="none" stroke="#000000" d="M78.8805,-97.7291C79.945,-88.6503 82.2023,-77.7747 86.929,-69 88.6877,-65.7351 90.8566,-62.5896 93.2511,-59.6139"/>
<polygon fill="#000000" stroke="#000000" points="95.8745,-61.9311 99.9893,-52.1679 90.6842,-57.2341 95.8745,-61.9311"/>
<text text-anchor="start" x="86" y="-72" font-family="Helvetica,sans-Serif" font-size="10.00" fill="#000000">ready_sha512 = &#39;1&#39; &#160;&#160;</text>
</g>
<!-- ENDER_ST&#45;&gt;STARTER_ST -->
<g id="edge5" class="edge transition">
<title>ENDER_ST&#45;&gt;STARTER_ST</title>
<path fill="none" stroke="#000000" d="M165.7196,-47.1526C176.9551,-53.3897 186,-62.3418 186,-75 186,-142.5 186,-142.5 186,-142.5 186,-193.8425 154,-202.1575 154,-253.5 154,-321 154,-321 154,-321 154,-328.6046 150.7994,-334.8481 145.8077,-339.9614"/>
<polygon fill="#000000" stroke="#000000" points="143.5992,-337.2461 138.0232,-346.2549 148.0002,-342.6896 143.5992,-337.2461"/>
<text text-anchor="start" x="178" y="-195" font-family="Helvetica,sans-Serif" font-size="10.00" fill="#000000">ready_mod = &#39;1&#39; &#160;&#160;</text>
</g>
</g>
</svg>
