<?xml version="1.0" encoding="UTF-8" standalone="no"?>
<!DOCTYPE svg PUBLIC "-//W3C//DTD SVG 1.1//EN"
 "http://www.w3.org/Graphics/SVG/1.1/DTD/svg11.dtd">
<!-- Generated by graphviz version 2.40.1 (20161225.0304)
 -->
<!-- Title: state transitions Pages: 1 -->
<svg width="1103pt" height="610pt"
 viewBox="0.00 0.00 1103.00 610.00" xmlns="http://www.w3.org/2000/svg" xmlns:xlink="http://www.w3.org/1999/xlink">
<g id="graph0" class="graph" transform="scale(1 1) rotate(0) translate(4 606)">
<title>state transitions</title>
<polygon fill="#ffffff" stroke="transparent" points="-4,4 -4,-606 1099,-606 1099,4 -4,4"/>
<g id="clust1" class="cluster state regular">
<title>cluster_verify_ctrl_fsm_st</title>
<path fill="none" stroke="#000000" stroke-width="2" d="M20,-8C20,-8 1075,-8 1075,-8 1081,-8 1087,-14 1087,-20 1087,-20 1087,-582 1087,-582 1087,-588 1081,-594 1075,-594 1075,-594 20,-594 20,-594 14,-594 8,-588 8,-582 8,-582 8,-20 8,-20 8,-14 14,-8 20,-8"/>
<text text-anchor="start" x="501.3338" y="-575.2" font-family="Helvetica,sans-Serif" font-size="12.00" fill="#000000">verify_ctrl_fsm_st</text>
</g>
<!-- verify_ctrl_fsm_st -->
<!-- STARTER_ST -->
<g id="node2" class="node state regular">
<title>STARTER_ST</title>
<polygon fill="#ffffff" fill-opacity="0.003922" stroke="transparent" stroke-width="2" points="352,-556 252,-556 252,-520 352,-520 352,-556"/>
<text text-anchor="start" x="263" y="-534.2" font-family="Helvetica,sans-Serif" font-size="12.00" fill="#000000">STARTER_ST</text>
<path fill="none" stroke="#000000" stroke-width="2" d="M264.3333,-521C264.3333,-521 339.6667,-521 339.6667,-521 345.3333,-521 351,-526.6667 351,-532.3333 351,-532.3333 351,-543.6667 351,-543.6667 351,-549.3333 345.3333,-555 339.6667,-555 339.6667,-555 264.3333,-555 264.3333,-555 258.6667,-555 253,-549.3333 253,-543.6667 253,-543.6667 253,-532.3333 253,-532.3333 253,-526.6667 258.6667,-521 264.3333,-521"/>
</g>
<!-- POINT_GENERATOR_U1_ST -->
<g id="node3" class="node state regular">
<title>POINT_GENERATOR_U1_ST</title>
<polygon fill="#ffffff" fill-opacity="0.003922" stroke="transparent" stroke-width="2" points="210.5,-462 25.5,-462 25.5,-426 210.5,-426 210.5,-462"/>
<text text-anchor="start" x="36.8286" y="-440.2" font-family="Helvetica,sans-Serif" font-size="12.00" fill="#000000">POINT_GENERATOR_U1_ST</text>
<path fill="none" stroke="#000000" stroke-width="2" d="M37.8333,-427C37.8333,-427 198.1667,-427 198.1667,-427 203.8333,-427 209.5,-432.6667 209.5,-438.3333 209.5,-438.3333 209.5,-449.6667 209.5,-449.6667 209.5,-455.3333 203.8333,-461 198.1667,-461 198.1667,-461 37.8333,-461 37.8333,-461 32.1667,-461 26.5,-455.3333 26.5,-449.6667 26.5,-449.6667 26.5,-438.3333 26.5,-438.3333 26.5,-432.6667 32.1667,-427 37.8333,-427"/>
</g>
<!-- STARTER_ST&#45;&gt;POINT_GENERATOR_U1_ST -->
<g id="edge1" class="edge transition">
<title>STARTER_ST&#45;&gt;POINT_GENERATOR_U1_ST</title>
<path fill="none" stroke="#000000" d="M251.8781,-534.3756C183.4624,-528.9113 67.8223,-517.6279 55.122,-503 48.1289,-494.9455 49.7164,-488.1955 55.122,-479 57.428,-475.0772 60.3506,-471.5622 63.6677,-468.4183"/>
<polygon fill="#000000" stroke="#000000" points="65.8926,-471.1203 71.4732,-462.1144 61.4944,-465.6746 65.8926,-471.1203"/>
<text text-anchor="start" x="55" y="-494" font-family="Helvetica,sans-Serif" font-size="10.00" fill="#000000">unsigned(SIGNATURE_R) &gt;= unsigned(ONE) and unsigned(SIGNATURE_S) &gt;= unsigned(ONE) and unsigned(SIGNATURE_R) &lt; unsigned(BLACKPOOL512_N) and unsigned(SIGNATURE_S) &lt; unsigned(BLACKPOOL512_N) &#160;&#160;</text>
<text text-anchor="start" x="55" y="-482" font-family="Helvetica,sans-Serif" font-size="10.00" fill="#000000">START = &#39;1&#39; &#160;&#160;</text>
</g>
<!-- XOR_ST -->
<g id="node4" class="node state regular">
<title>XOR_ST</title>
<polygon fill="#ffffff" fill-opacity="0.003922" stroke="transparent" stroke-width="2" points="480,-380 410,-380 410,-344 480,-344 480,-380"/>
<text text-anchor="start" x="420.9976" y="-358.2" font-family="Helvetica,sans-Serif" font-size="12.00" fill="#000000">XOR_ST</text>
<path fill="none" stroke="#000000" stroke-width="2" d="M422.3333,-345C422.3333,-345 467.6667,-345 467.6667,-345 473.3333,-345 479,-350.6667 479,-356.3333 479,-356.3333 479,-367.6667 479,-367.6667 479,-373.3333 473.3333,-379 467.6667,-379 467.6667,-379 422.3333,-379 422.3333,-379 416.6667,-379 411,-373.3333 411,-367.6667 411,-367.6667 411,-356.3333 411,-356.3333 411,-350.6667 416.6667,-345 422.3333,-345"/>
</g>
<!-- POINT_GENERATOR_U1_ST&#45;&gt;XOR_ST -->
<g id="edge2" class="edge transition">
<title>POINT_GENERATOR_U1_ST&#45;&gt;XOR_ST</title>
<path fill="none" stroke="#000000" d="M190.1664,-425.9032C254.1297,-409.8635 345.5517,-386.9381 399.735,-373.3509"/>
<polygon fill="#000000" stroke="#000000" points="400.8815,-376.6718 409.7298,-370.8445 399.1788,-369.882 400.8815,-376.6718"/>
<text text-anchor="start" x="303" y="-400" font-family="Helvetica,sans-Serif" font-size="10.00" fill="#000000">ready_point_generator = &#39;1&#39; &#160;&#160;</text>
</g>
<!-- SUBTRACTOR_ST -->
<g id="node5" class="node state regular">
<title>SUBTRACTOR_ST</title>
<polygon fill="#ffffff" fill-opacity="0.003922" stroke="transparent" stroke-width="2" points="686,-298 560,-298 560,-262 686,-262 686,-298"/>
<text text-anchor="start" x="570.6698" y="-276.2" font-family="Helvetica,sans-Serif" font-size="12.00" fill="#000000">SUBTRACTOR_ST</text>
<path fill="none" stroke="#000000" stroke-width="2" d="M572.3333,-263C572.3333,-263 673.6667,-263 673.6667,-263 679.3333,-263 685,-268.6667 685,-274.3333 685,-274.3333 685,-285.6667 685,-285.6667 685,-291.3333 679.3333,-297 673.6667,-297 673.6667,-297 572.3333,-297 572.3333,-297 566.6667,-297 561,-291.3333 561,-285.6667 561,-285.6667 561,-274.3333 561,-274.3333 561,-268.6667 566.6667,-263 572.3333,-263"/>
</g>
<!-- XOR_ST&#45;&gt;SUBTRACTOR_ST -->
<g id="edge3" class="edge transition">
<title>XOR_ST&#45;&gt;SUBTRACTOR_ST</title>
<path fill="none" stroke="#000000" d="M480.1671,-345.7994C507.137,-333.3751 544.6712,-316.084 574.4949,-302.345"/>
<polygon fill="#000000" stroke="#000000" points="576.2657,-305.3829 583.8838,-298.0198 573.3368,-299.0251 576.2657,-305.3829"/>
<text text-anchor="start" x="545" y="-318" font-family="Helvetica,sans-Serif" font-size="10.00" fill="#000000">e_enable_int = &#39;1&#39; &#160;&#160;</text>
</g>
<!-- POINT_GENERATOR_U2_ST -->
<g id="node6" class="node state regular">
<title>POINT_GENERATOR_U2_ST</title>
<polygon fill="#ffffff" fill-opacity="0.003922" stroke="transparent" stroke-width="2" points="800.5,-216 615.5,-216 615.5,-180 800.5,-180 800.5,-216"/>
<text text-anchor="start" x="626.8286" y="-194.2" font-family="Helvetica,sans-Serif" font-size="12.00" fill="#000000">POINT_GENERATOR_U2_ST</text>
<path fill="none" stroke="#000000" stroke-width="2" d="M627.8333,-181C627.8333,-181 788.1667,-181 788.1667,-181 793.8333,-181 799.5,-186.6667 799.5,-192.3333 799.5,-192.3333 799.5,-203.6667 799.5,-203.6667 799.5,-209.3333 793.8333,-215 788.1667,-215 788.1667,-215 627.8333,-215 627.8333,-215 622.1667,-215 616.5,-209.3333 616.5,-203.6667 616.5,-203.6667 616.5,-192.3333 616.5,-192.3333 616.5,-186.6667 622.1667,-181 627.8333,-181"/>
</g>
<!-- SUBTRACTOR_ST&#45;&gt;POINT_GENERATOR_U2_ST -->
<g id="edge4" class="edge transition">
<title>SUBTRACTOR_ST&#45;&gt;POINT_GENERATOR_U2_ST</title>
<path fill="none" stroke="#000000" d="M641.8643,-261.8015C653.6392,-250.4422 668.9634,-235.6588 681.8956,-223.1831"/>
<polygon fill="#000000" stroke="#000000" points="684.4216,-225.6095 689.1885,-216.1476 679.5615,-220.5716 684.4216,-225.6095"/>
<text text-anchor="start" x="671" y="-236" font-family="Helvetica,sans-Serif" font-size="10.00" fill="#000000">unsigned(w_int) &lt; unsigned(BLACKPOOL512_N) &#160;&#160;</text>
</g>
<!-- POINT_ADDER_ST -->
<g id="node7" class="node state regular">
<title>POINT_ADDER_ST</title>
<polygon fill="#ffffff" fill-opacity="0.003922" stroke="transparent" stroke-width="2" points="843.5,-134 714.5,-134 714.5,-98 843.5,-98 843.5,-134"/>
<text text-anchor="start" x="725.8324" y="-112.2" font-family="Helvetica,sans-Serif" font-size="12.00" fill="#000000">POINT_ADDER_ST</text>
<path fill="none" stroke="#000000" stroke-width="2" d="M726.8333,-99C726.8333,-99 831.1667,-99 831.1667,-99 836.8333,-99 842.5,-104.6667 842.5,-110.3333 842.5,-110.3333 842.5,-121.6667 842.5,-121.6667 842.5,-127.3333 836.8333,-133 831.1667,-133 831.1667,-133 726.8333,-133 726.8333,-133 721.1667,-133 715.5,-127.3333 715.5,-121.6667 715.5,-121.6667 715.5,-110.3333 715.5,-110.3333 715.5,-104.6667 721.1667,-99 726.8333,-99"/>
</g>
<!-- POINT_GENERATOR_U2_ST&#45;&gt;POINT_ADDER_ST -->
<g id="edge5" class="edge transition">
<title>POINT_GENERATOR_U2_ST&#45;&gt;POINT_ADDER_ST</title>
<path fill="none" stroke="#000000" d="M723.7572,-179.8015C733.4089,-168.6545 745.9155,-154.2103 756.5873,-141.8851"/>
<polygon fill="#000000" stroke="#000000" points="759.387,-143.9986 763.2868,-134.1476 754.095,-139.4165 759.387,-143.9986"/>
<text text-anchor="start" x="748" y="-154" font-family="Helvetica,sans-Serif" font-size="10.00" fill="#000000">ready_point_generator = &#39;1&#39; &#160;&#160;</text>
</g>
<!-- ENDER_ST -->
<g id="node8" class="node state regular">
<title>ENDER_ST</title>
<polygon fill="#ffffff" fill-opacity="0.003922" stroke="transparent" stroke-width="2" points="941.5,-52 856.5,-52 856.5,-16 941.5,-16 941.5,-52"/>
<text text-anchor="start" x="867.5008" y="-30.2" font-family="Helvetica,sans-Serif" font-size="12.00" fill="#000000">ENDER_ST</text>
<path fill="none" stroke="#000000" stroke-width="2" d="M868.8333,-17C868.8333,-17 929.1667,-17 929.1667,-17 934.8333,-17 940.5,-22.6667 940.5,-28.3333 940.5,-28.3333 940.5,-39.6667 940.5,-39.6667 940.5,-45.3333 934.8333,-51 929.1667,-51 929.1667,-51 868.8333,-51 868.8333,-51 863.1667,-51 857.5,-45.3333 857.5,-39.6667 857.5,-39.6667 857.5,-28.3333 857.5,-28.3333 857.5,-22.6667 863.1667,-17 868.8333,-17"/>
</g>
<!-- POINT_ADDER_ST&#45;&gt;ENDER_ST -->
<g id="edge6" class="edge transition">
<title>POINT_ADDER_ST&#45;&gt;ENDER_ST</title>
<path fill="none" stroke="#000000" d="M805.6319,-97.8015C822.8768,-86.0175 845.514,-70.5487 864.1796,-57.7939"/>
<polygon fill="#000000" stroke="#000000" points="866.1608,-60.6793 872.4426,-52.1476 862.2114,-54.8998 866.1608,-60.6793"/>
<text text-anchor="start" x="846" y="-72" font-family="Helvetica,sans-Serif" font-size="10.00" fill="#000000">ready_point_adder = &#39;1&#39; &#160;&#160;</text>
</g>
<!-- ENDER_ST&#45;&gt;STARTER_ST -->
<g id="edge7" class="edge transition">
<title>ENDER_ST&#45;&gt;STARTER_ST</title>
<path fill="none" stroke="#000000" d="M941.5995,-44.6C966.4707,-52.0785 993,-62.8931 993,-75 993,-253.5 993,-253.5 993,-253.5 993,-359.8423 1054.9608,-374.1989 1073,-479 1074.8094,-489.5121 1080.4064,-495.3238 1073,-503 1054.6652,-522.0027 624.375,-518.7263 598,-520 516.3324,-523.9439 422.0766,-529.9218 362.2807,-533.8923"/>
<polygon fill="#000000" stroke="#000000" points="362.003,-530.4029 352.258,-534.5604 362.4687,-537.3874 362.003,-530.4029"/>
<text text-anchor="start" x="997" y="-277" font-family="Helvetica,sans-Serif" font-size="10.00" fill="#000000">v_enable_int = &#39;1&#39; &#160;&#160;</text>
</g>
</g>
</svg>
