<?xml version="1.0" encoding="UTF-8" standalone="no"?>
<!DOCTYPE svg PUBLIC "-//W3C//DTD SVG 1.1//EN"
 "http://www.w3.org/Graphics/SVG/1.1/DTD/svg11.dtd">
<!-- Generated by graphviz version 2.40.1 (20161225.0304)
 -->
<!-- Title: state transitions Pages: 1 -->
<svg width="789pt" height="446pt"
 viewBox="0.00 0.00 788.99 446.00" xmlns="http://www.w3.org/2000/svg" xmlns:xlink="http://www.w3.org/1999/xlink">
<g id="graph0" class="graph" transform="scale(1 1) rotate(0) translate(4 442)">
<title>state transitions</title>
<polygon fill="#ffffff" stroke="transparent" points="-4,4 -4,-442 784.991,-442 784.991,4 -4,4"/>
<g id="clust1" class="cluster state regular">
<title>cluster_point_generator_ctrl_fsm_st</title>
<path fill="none" stroke="#000000" stroke-width="2" d="M20,-8C20,-8 741,-8 741,-8 747,-8 753,-14 753,-20 753,-20 753,-418 753,-418 753,-424 747,-430 741,-430 741,-430 20,-430 20,-430 14,-430 8,-424 8,-418 8,-418 8,-20 8,-20 8,-14 14,-8 20,-8"/>
<text text-anchor="start" x="306.1504" y="-411.2" font-family="Helvetica,sans-Serif" font-size="12.00" fill="#000000">point_generator_ctrl_fsm_st</text>
</g>
<!-- point_generator_ctrl_fsm_st -->
<!-- STARTER_ST -->
<g id="node2" class="node state regular">
<title>STARTER_ST</title>
<polygon fill="#ffffff" fill-opacity="0.003922" stroke="transparent" stroke-width="2" points="546,-392 446,-392 446,-356 546,-356 546,-392"/>
<text text-anchor="start" x="457" y="-370.2" font-family="Helvetica,sans-Serif" font-size="12.00" fill="#000000">STARTER_ST</text>
<path fill="none" stroke="#000000" stroke-width="2" d="M458.3333,-357C458.3333,-357 533.6667,-357 533.6667,-357 539.3333,-357 545,-362.6667 545,-368.3333 545,-368.3333 545,-379.6667 545,-379.6667 545,-385.3333 539.3333,-391 533.6667,-391 533.6667,-391 458.3333,-391 458.3333,-391 452.6667,-391 447,-385.3333 447,-379.6667 447,-379.6667 447,-368.3333 447,-368.3333 447,-362.6667 452.6667,-357 458.3333,-357"/>
</g>
<!-- GENERATOR_ST -->
<g id="node3" class="node state regular">
<title>GENERATOR_ST</title>
<polygon fill="#ffffff" fill-opacity="0.003922" stroke="transparent" stroke-width="2" points="513,-310 393,-310 393,-274 513,-274 513,-310"/>
<text text-anchor="start" x="403.9992" y="-288.2" font-family="Helvetica,sans-Serif" font-size="12.00" fill="#000000">GENERATOR_ST</text>
<path fill="none" stroke="#000000" stroke-width="2" d="M405.3333,-275C405.3333,-275 500.6667,-275 500.6667,-275 506.3333,-275 512,-280.6667 512,-286.3333 512,-286.3333 512,-297.6667 512,-297.6667 512,-303.3333 506.3333,-309 500.6667,-309 500.6667,-309 405.3333,-309 405.3333,-309 399.6667,-309 394,-303.3333 394,-297.6667 394,-297.6667 394,-286.3333 394,-286.3333 394,-280.6667 399.6667,-275 405.3333,-275"/>
</g>
<!-- STARTER_ST&#45;&gt;GENERATOR_ST -->
<g id="edge1" class="edge transition">
<title>STARTER_ST&#45;&gt;GENERATOR_ST</title>
<path fill="none" stroke="#000000" d="M480.5748,-355.8337C476.621,-350.6177 472.6146,-344.7734 469.514,-339 466.3452,-333.0997 463.5825,-326.4684 461.27,-320.0883"/>
<polygon fill="#000000" stroke="#000000" points="464.5199,-318.7717 458.0133,-310.4103 457.8855,-321.0044 464.5199,-318.7717"/>
<text text-anchor="start" x="469" y="-330" font-family="Helvetica,sans-Serif" font-size="10.00" fill="#000000">START = &#39;1&#39; &#160;&#160;</text>
</g>
<!-- ADDER_ST -->
<g id="node4" class="node state regular">
<title>ADDER_ST</title>
<polygon fill="#ffffff" fill-opacity="0.003922" stroke="transparent" stroke-width="2" points="295.5,-228 210.5,-228 210.5,-192 295.5,-192 295.5,-228"/>
<text text-anchor="start" x="221.5008" y="-206.2" font-family="Helvetica,sans-Serif" font-size="12.00" fill="#000000">ADDER_ST</text>
<path fill="none" stroke="#000000" stroke-width="2" d="M222.8333,-193C222.8333,-193 283.1667,-193 283.1667,-193 288.8333,-193 294.5,-198.6667 294.5,-204.3333 294.5,-204.3333 294.5,-215.6667 294.5,-215.6667 294.5,-221.3333 288.8333,-227 283.1667,-227 283.1667,-227 222.8333,-227 222.8333,-227 217.1667,-227 211.5,-221.3333 211.5,-215.6667 211.5,-215.6667 211.5,-204.3333 211.5,-204.3333 211.5,-198.6667 217.1667,-193 222.8333,-193"/>
</g>
<!-- GENERATOR_ST&#45;&gt;ADDER_ST -->
<g id="edge2" class="edge transition">
<title>GENERATOR_ST&#45;&gt;ADDER_ST</title>
<path fill="none" stroke="#000000" d="M408.6135,-273.8015C377.9241,-261.2189 336.9882,-244.4352 304.8052,-231.2401"/>
<polygon fill="#000000" stroke="#000000" points="306.129,-228.0002 295.5487,-227.445 303.4735,-234.4769 306.129,-228.0002"/>
<text text-anchor="middle" x="367.3895" y="-248" font-family="Helvetica,sans-Serif" font-size="10.00" fill="#000000"> </text>
</g>
<!-- DOUBLER_ST -->
<g id="node5" class="node state regular">
<title>DOUBLER_ST</title>
<polygon fill="#ffffff" fill-opacity="0.003922" stroke="transparent" stroke-width="2" points="304,-134 202,-134 202,-98 304,-98 304,-134"/>
<text text-anchor="start" x="212.998" y="-112.2" font-family="Helvetica,sans-Serif" font-size="12.00" fill="#000000">DOUBLER_ST</text>
<path fill="none" stroke="#000000" stroke-width="2" d="M214.3333,-99C214.3333,-99 291.6667,-99 291.6667,-99 297.3333,-99 303,-104.6667 303,-110.3333 303,-110.3333 303,-121.6667 303,-121.6667 303,-127.3333 297.3333,-133 291.6667,-133 291.6667,-133 214.3333,-133 214.3333,-133 208.6667,-133 203,-127.3333 203,-121.6667 203,-121.6667 203,-110.3333 203,-110.3333 203,-104.6667 208.6667,-99 214.3333,-99"/>
</g>
<!-- ADDER_ST&#45;&gt;DOUBLER_ST -->
<g id="edge3" class="edge transition">
<title>ADDER_ST&#45;&gt;DOUBLER_ST</title>
<path fill="none" stroke="#000000" d="M210.2064,-208.6393C158.0741,-205.9756 74.534,-198.1199 55.145,-175 48.2909,-166.827 48.2909,-159.173 55.145,-151 72.3766,-130.4527 140.2771,-121.9616 191.7689,-118.4566"/>
<polygon fill="#000000" stroke="#000000" points="192.0696,-121.9447 201.8286,-117.82 191.6275,-114.9587 192.0696,-121.9447"/>
<text text-anchor="start" x="55" y="-166" font-family="Helvetica,sans-Serif" font-size="10.00" fill="#000000">ready_point_adder = &#39;1&#39; &#160;&#160;</text>
<text text-anchor="start" x="55" y="-154" font-family="Helvetica,sans-Serif" font-size="10.00" fill="#000000">PRIVATE_KEY(generation_cnt) = &#39;1&#39; &#160;&#160;</text>
</g>
<!-- ADDER_ST&#45;&gt;DOUBLER_ST -->
<g id="edge4" class="edge transition">
<title>ADDER_ST&#45;&gt;DOUBLER_ST</title>
<path fill="none" stroke="#000000" d="M253,-191.8759C253,-178.3516 253,-159.6192 253,-144.1514"/>
<polygon fill="#000000" stroke="#000000" points="256.5001,-144.0685 253,-134.0685 249.5001,-144.0685 256.5001,-144.0685"/>
<text text-anchor="start" x="253" y="-160" font-family="Helvetica,sans-Serif" font-size="10.00" fill="#000000">not (PRIVATE_KEY(generation_cnt) = &#39;1&#39;) &#160;&#160;</text>
</g>
<!-- ENDER_ST -->
<g id="node6" class="node state regular">
<title>ENDER_ST</title>
<polygon fill="#ffffff" fill-opacity="0.003922" stroke="transparent" stroke-width="2" points="533.5,-52 448.5,-52 448.5,-16 533.5,-16 533.5,-52"/>
<text text-anchor="start" x="459.5008" y="-30.2" font-family="Helvetica,sans-Serif" font-size="12.00" fill="#000000">ENDER_ST</text>
<path fill="none" stroke="#000000" stroke-width="2" d="M460.8333,-17C460.8333,-17 521.1667,-17 521.1667,-17 526.8333,-17 532.5,-22.6667 532.5,-28.3333 532.5,-28.3333 532.5,-39.6667 532.5,-39.6667 532.5,-45.3333 526.8333,-51 521.1667,-51 521.1667,-51 460.8333,-51 460.8333,-51 455.1667,-51 449.5,-45.3333 449.5,-39.6667 449.5,-39.6667 449.5,-28.3333 449.5,-28.3333 449.5,-22.6667 455.1667,-17 460.8333,-17"/>
</g>
<!-- DOUBLER_ST&#45;&gt;ENDER_ST -->
<g id="edge5" class="edge transition">
<title>DOUBLER_ST&#45;&gt;ENDER_ST</title>
<path fill="none" stroke="#000000" d="M292.1192,-97.9768C313.198,-88.6438 339.8071,-77.4633 364.147,-69 388.2073,-60.6339 415.3729,-52.916 438.3747,-46.8686"/>
<polygon fill="#000000" stroke="#000000" points="439.4882,-50.1957 448.2891,-44.2969 437.7306,-43.4199 439.4882,-50.1957"/>
<text text-anchor="start" x="364" y="-72" font-family="Helvetica,sans-Serif" font-size="10.00" fill="#000000">ready_point_doubler = &#39;1&#39; &#160;&#160;</text>
</g>
<!-- ENDER_ST&#45;&gt;STARTER_ST -->
<g id="edge6" class="edge transition">
<title>ENDER_ST&#45;&gt;STARTER_ST</title>
<path fill="none" stroke="#000000" d="M533.6319,-36.6149C605.735,-41.6149 744,-53.9475 744,-75 744,-142.5 744,-142.5 744,-142.5 744,-243.137 538,-135.863 538,-236.5 538,-333 538,-333 538,-333 538,-338.4644 536.1571,-343.4385 533.2434,-347.888"/>
<polygon fill="#000000" stroke="#000000" points="530.3361,-345.9039 526.5233,-355.7889 535.6683,-350.4391 530.3361,-345.9039"/>
<text text-anchor="start" x="574" y="-207" font-family="Helvetica,sans-Serif" font-size="10.00" fill="#000000">generation_cnt = max_word(PRIVATE_KEY) &#160;&#160;</text>
</g>
<!-- ENDER_ST&#45;&gt;GENERATOR_ST -->
<g id="edge7" class="edge transition">
<title>ENDER_ST&#45;&gt;GENERATOR_ST</title>
<path fill="none" stroke="#000000" d="M491,-52.3688C491,-59.4426 491,-67.5972 491,-75 491,-251 491,-251 491,-251 491,-256.3227 489.256,-261.2465 486.5151,-265.6981"/>
<polygon fill="#000000" stroke="#000000" points="483.6766,-263.6448 480.2124,-273.6573 489.1644,-267.9905 483.6766,-263.6448"/>
<text text-anchor="start" x="491" y="-160" font-family="Helvetica,sans-Serif" font-size="10.00" fill="#000000">not (generation_cnt = max_word(PRIVATE_KEY)) &#160;&#160;</text>
</g>
</g>
</svg>
