<?xml version="1.0" encoding="UTF-8" standalone="no"?>
<!DOCTYPE svg PUBLIC "-//W3C//DTD SVG 1.1//EN"
 "http://www.w3.org/Graphics/SVG/1.1/DTD/svg11.dtd">
<!-- Generated by graphviz version 2.40.1 (20161225.0304)
 -->
<!-- Title: state transitions Pages: 1 -->
<svg width="1103pt" height="774pt"
 viewBox="0.00 0.00 1103.00 774.00" xmlns="http://www.w3.org/2000/svg" xmlns:xlink="http://www.w3.org/1999/xlink">
<g id="graph0" class="graph" transform="scale(1 1) rotate(0) translate(4 770)">
<title>state transitions</title>
<polygon fill="#ffffff" stroke="transparent" points="-4,4 -4,-770 1099,-770 1099,4 -4,4"/>
<g id="clust1" class="cluster state regular">
<title>cluster_verify_ctrl_fsm_st</title>
<path fill="none" stroke="#000000" stroke-width="2" d="M20,-8C20,-8 1075,-8 1075,-8 1081,-8 1087,-14 1087,-20 1087,-20 1087,-746 1087,-746 1087,-752 1081,-758 1075,-758 1075,-758 20,-758 20,-758 14,-758 8,-752 8,-746 8,-746 8,-20 8,-20 8,-14 14,-8 20,-8"/>
<text text-anchor="start" x="501.3338" y="-739.2" font-family="Helvetica,sans-Serif" font-size="12.00" fill="#000000">verify_ctrl_fsm_st</text>
</g>
<!-- verify_ctrl_fsm_st -->
<!-- STARTER_ST -->
<g id="node2" class="node state regular">
<title>STARTER_ST</title>
<polygon fill="#ffffff" fill-opacity="0.003922" stroke="transparent" stroke-width="2" points="586,-720 486,-720 486,-684 586,-684 586,-720"/>
<text text-anchor="start" x="497" y="-698.2" font-family="Helvetica,sans-Serif" font-size="12.00" fill="#000000">STARTER_ST</text>
<path fill="none" stroke="#000000" stroke-width="2" d="M498.3333,-685C498.3333,-685 573.6667,-685 573.6667,-685 579.3333,-685 585,-690.6667 585,-696.3333 585,-696.3333 585,-707.6667 585,-707.6667 585,-713.3333 579.3333,-719 573.6667,-719 573.6667,-719 498.3333,-719 498.3333,-719 492.6667,-719 487,-713.3333 487,-707.6667 487,-707.6667 487,-696.3333 487,-696.3333 487,-690.6667 492.6667,-685 498.3333,-685"/>
</g>
<!-- INVERTER_ST -->
<g id="node3" class="node state regular">
<title>INVERTER_ST</title>
<polygon fill="#ffffff" fill-opacity="0.003922" stroke="transparent" stroke-width="2" points="133,-626 29,-626 29,-590 133,-590 133,-626"/>
<text text-anchor="start" x="39.6666" y="-604.2" font-family="Helvetica,sans-Serif" font-size="12.00" fill="#000000">INVERTER_ST</text>
<path fill="none" stroke="#000000" stroke-width="2" d="M41.3333,-591C41.3333,-591 120.6667,-591 120.6667,-591 126.3333,-591 132,-596.6667 132,-602.3333 132,-602.3333 132,-613.6667 132,-613.6667 132,-619.3333 126.3333,-625 120.6667,-625 120.6667,-625 41.3333,-625 41.3333,-625 35.6667,-625 30,-619.3333 30,-613.6667 30,-613.6667 30,-602.3333 30,-602.3333 30,-596.6667 35.6667,-591 41.3333,-591"/>
</g>
<!-- STARTER_ST&#45;&gt;INVERTER_ST -->
<g id="edge1" class="edge transition">
<title>STARTER_ST&#45;&gt;INVERTER_ST</title>
<path fill="none" stroke="#000000" d="M485.895,-700.1723C365.6623,-695.5439 69.6394,-682.6124 55.122,-667 46.5641,-657.7966 50.5035,-645.3065 57.6184,-634.1876"/>
<polygon fill="#000000" stroke="#000000" points="60.4953,-636.1822 63.5239,-626.0294 54.825,-632.0776 60.4953,-636.1822"/>
<text text-anchor="start" x="55" y="-658" font-family="Helvetica,sans-Serif" font-size="10.00" fill="#000000">unsigned(SIGNATURE_R) &gt;= unsigned(ONE) and unsigned(SIGNATURE_S) &gt;= unsigned(ONE) and unsigned(SIGNATURE_R) &lt; unsigned(BLACKPOOL512_N) and unsigned(SIGNATURE_S) &lt; unsigned(BLACKPOOL512_N) &#160;&#160;</text>
<text text-anchor="start" x="55" y="-646" font-family="Helvetica,sans-Serif" font-size="10.00" fill="#000000">START = &#39;1&#39; &#160;&#160;</text>
</g>
<!-- MULTIPLIER_U2_ST -->
<g id="node4" class="node state regular">
<title>MULTIPLIER_U2_ST</title>
<polygon fill="#ffffff" fill-opacity="0.003922" stroke="transparent" stroke-width="2" points="551,-544 415,-544 415,-508 551,-508 551,-544"/>
<text text-anchor="start" x="425.6616" y="-522.2" font-family="Helvetica,sans-Serif" font-size="12.00" fill="#000000">MULTIPLIER_U2_ST</text>
<path fill="none" stroke="#000000" stroke-width="2" d="M427.3333,-509C427.3333,-509 538.6667,-509 538.6667,-509 544.3333,-509 550,-514.6667 550,-520.3333 550,-520.3333 550,-531.6667 550,-531.6667 550,-537.3333 544.3333,-543 538.6667,-543 538.6667,-543 427.3333,-543 427.3333,-543 421.6667,-543 416,-537.3333 416,-531.6667 416,-531.6667 416,-520.3333 416,-520.3333 416,-514.6667 421.6667,-509 427.3333,-509"/>
</g>
<!-- INVERTER_ST&#45;&gt;MULTIPLIER_U2_ST -->
<g id="edge2" class="edge transition">
<title>INVERTER_ST&#45;&gt;MULTIPLIER_U2_ST</title>
<path fill="none" stroke="#000000" d="M133.1424,-597.364C202.207,-583.2762 324.6164,-558.3071 404.7833,-541.9547"/>
<polygon fill="#000000" stroke="#000000" points="405.7315,-545.3334 414.8302,-539.9053 404.3324,-538.4746 405.7315,-545.3334"/>
<text text-anchor="start" x="308" y="-564" font-family="Helvetica,sans-Serif" font-size="10.00" fill="#000000">ready_inverter = &#39;1&#39; &#160;&#160;</text>
</g>
<!-- POINT_GENERATOR_U2_ST -->
<g id="node5" class="node state regular">
<title>POINT_GENERATOR_U2_ST</title>
<polygon fill="#ffffff" fill-opacity="0.003922" stroke="transparent" stroke-width="2" points="794.5,-462 609.5,-462 609.5,-426 794.5,-426 794.5,-462"/>
<text text-anchor="start" x="620.8286" y="-440.2" font-family="Helvetica,sans-Serif" font-size="12.00" fill="#000000">POINT_GENERATOR_U2_ST</text>
<path fill="none" stroke="#000000" stroke-width="2" d="M621.8333,-427C621.8333,-427 782.1667,-427 782.1667,-427 787.8333,-427 793.5,-432.6667 793.5,-438.3333 793.5,-438.3333 793.5,-449.6667 793.5,-449.6667 793.5,-455.3333 787.8333,-461 782.1667,-461 782.1667,-461 621.8333,-461 621.8333,-461 616.1667,-461 610.5,-455.3333 610.5,-449.6667 610.5,-449.6667 610.5,-438.3333 610.5,-438.3333 610.5,-432.6667 616.1667,-427 621.8333,-427"/>
</g>
<!-- MULTIPLIER_U2_ST&#45;&gt;POINT_GENERATOR_U2_ST -->
<g id="edge3" class="edge transition">
<title>MULTIPLIER_U2_ST&#45;&gt;POINT_GENERATOR_U2_ST</title>
<path fill="none" stroke="#000000" d="M531.3316,-507.9032C564.6065,-495.4441 608.9773,-478.8304 644.1363,-465.6658"/>
<polygon fill="#000000" stroke="#000000" points="645.6541,-468.8349 653.7918,-462.0505 643.1995,-462.2794 645.6541,-468.8349"/>
<text text-anchor="start" x="607" y="-482" font-family="Helvetica,sans-Serif" font-size="10.00" fill="#000000">ready_multiplier = &#39;1&#39; &#160;&#160;</text>
</g>
<!-- MESSAGE_ST -->
<g id="node6" class="node state regular">
<title>MESSAGE_ST</title>
<polygon fill="#ffffff" fill-opacity="0.003922" stroke="transparent" stroke-width="2" points="851.5,-380 748.5,-380 748.5,-344 851.5,-344 851.5,-380"/>
<text text-anchor="start" x="759.826" y="-358.2" font-family="Helvetica,sans-Serif" font-size="12.00" fill="#000000">MESSAGE_ST</text>
<path fill="none" stroke="#000000" stroke-width="2" d="M760.8333,-345C760.8333,-345 839.1667,-345 839.1667,-345 844.8333,-345 850.5,-350.6667 850.5,-356.3333 850.5,-356.3333 850.5,-367.6667 850.5,-367.6667 850.5,-373.3333 844.8333,-379 839.1667,-379 839.1667,-379 760.8333,-379 760.8333,-379 755.1667,-379 749.5,-373.3333 749.5,-367.6667 749.5,-367.6667 749.5,-356.3333 749.5,-356.3333 749.5,-350.6667 755.1667,-345 760.8333,-345"/>
</g>
<!-- POINT_GENERATOR_U2_ST&#45;&gt;MESSAGE_ST -->
<g id="edge4" class="edge transition">
<title>POINT_GENERATOR_U2_ST&#45;&gt;MESSAGE_ST</title>
<path fill="none" stroke="#000000" d="M723.7494,-425.8015C737.4521,-414.336 755.3237,-399.3822 770.3204,-386.8339"/>
<polygon fill="#000000" stroke="#000000" points="772.8881,-389.2491 778.3114,-380.1476 768.396,-383.8806 772.8881,-389.2491"/>
<text text-anchor="start" x="757" y="-400" font-family="Helvetica,sans-Serif" font-size="10.00" fill="#000000">ready_point_generator = &#39;1&#39; &#160;&#160;</text>
</g>
<!-- MULTIPLIER_U1_ST -->
<g id="node7" class="node state regular">
<title>MULTIPLIER_U1_ST</title>
<polygon fill="#ffffff" fill-opacity="0.003922" stroke="transparent" stroke-width="2" points="893,-298 757,-298 757,-262 893,-262 893,-298"/>
<text text-anchor="start" x="767.6616" y="-276.2" font-family="Helvetica,sans-Serif" font-size="12.00" fill="#000000">MULTIPLIER_U1_ST</text>
<path fill="none" stroke="#000000" stroke-width="2" d="M769.3333,-263C769.3333,-263 880.6667,-263 880.6667,-263 886.3333,-263 892,-268.6667 892,-274.3333 892,-274.3333 892,-285.6667 892,-285.6667 892,-291.3333 886.3333,-297 880.6667,-297 880.6667,-297 769.3333,-297 769.3333,-297 763.6667,-297 758,-291.3333 758,-285.6667 758,-285.6667 758,-274.3333 758,-274.3333 758,-268.6667 763.6667,-263 769.3333,-263"/>
</g>
<!-- MESSAGE_ST&#45;&gt;MULTIPLIER_U1_ST -->
<g id="edge5" class="edge transition">
<title>MESSAGE_ST&#45;&gt;MULTIPLIER_U1_ST</title>
<path fill="none" stroke="#000000" d="M805.5483,-343.8015C808.7526,-333.2915 812.8505,-319.8503 816.458,-308.0177"/>
<polygon fill="#000000" stroke="#000000" points="819.8987,-308.7336 819.4672,-298.1476 813.203,-306.6922 819.8987,-308.7336"/>
<text text-anchor="start" x="814" y="-318" font-family="Helvetica,sans-Serif" font-size="10.00" fill="#000000">e_enable_int = &#39;1&#39; &#160;&#160;</text>
</g>
<!-- POINT_GENERATOR_U1_ST -->
<g id="node8" class="node state regular">
<title>POINT_GENERATOR_U1_ST</title>
<polygon fill="#ffffff" fill-opacity="0.003922" stroke="transparent" stroke-width="2" points="920.5,-216 735.5,-216 735.5,-180 920.5,-180 920.5,-216"/>
<text text-anchor="start" x="746.8286" y="-194.2" font-family="Helvetica,sans-Serif" font-size="12.00" fill="#000000">POINT_GENERATOR_U1_ST</text>
<path fill="none" stroke="#000000" stroke-width="2" d="M747.8333,-181C747.8333,-181 908.1667,-181 908.1667,-181 913.8333,-181 919.5,-186.6667 919.5,-192.3333 919.5,-192.3333 919.5,-203.6667 919.5,-203.6667 919.5,-209.3333 913.8333,-215 908.1667,-215 908.1667,-215 747.8333,-215 747.8333,-215 742.1667,-215 736.5,-209.3333 736.5,-203.6667 736.5,-203.6667 736.5,-192.3333 736.5,-192.3333 736.5,-186.6667 742.1667,-181 747.8333,-181"/>
</g>
<!-- MULTIPLIER_U1_ST&#45;&gt;POINT_GENERATOR_U1_ST -->
<g id="edge6" class="edge transition">
<title>MULTIPLIER_U1_ST&#45;&gt;POINT_GENERATOR_U1_ST</title>
<path fill="none" stroke="#000000" d="M825.6658,-261.8015C826.0464,-251.3976 826.5321,-238.1215 826.9618,-226.3768"/>
<polygon fill="#000000" stroke="#000000" points="830.468,-226.2689 827.3361,-216.1476 823.4727,-226.0129 830.468,-226.2689"/>
<text text-anchor="start" x="826" y="-236" font-family="Helvetica,sans-Serif" font-size="10.00" fill="#000000">ready_multiplier = &#39;1&#39; &#160;&#160;</text>
</g>
<!-- POINT_ADDER_ST -->
<g id="node9" class="node state regular">
<title>POINT_ADDER_ST</title>
<polygon fill="#ffffff" fill-opacity="0.003922" stroke="transparent" stroke-width="2" points="906.5,-134 777.5,-134 777.5,-98 906.5,-98 906.5,-134"/>
<text text-anchor="start" x="788.8324" y="-112.2" font-family="Helvetica,sans-Serif" font-size="12.00" fill="#000000">POINT_ADDER_ST</text>
<path fill="none" stroke="#000000" stroke-width="2" d="M789.8333,-99C789.8333,-99 894.1667,-99 894.1667,-99 899.8333,-99 905.5,-104.6667 905.5,-110.3333 905.5,-110.3333 905.5,-121.6667 905.5,-121.6667 905.5,-127.3333 899.8333,-133 894.1667,-133 894.1667,-133 789.8333,-133 789.8333,-133 784.1667,-133 778.5,-127.3333 778.5,-121.6667 778.5,-121.6667 778.5,-110.3333 778.5,-110.3333 778.5,-104.6667 784.1667,-99 789.8333,-99"/>
</g>
<!-- POINT_GENERATOR_U1_ST&#45;&gt;POINT_ADDER_ST -->
<g id="edge7" class="edge transition">
<title>POINT_GENERATOR_U1_ST&#45;&gt;POINT_ADDER_ST</title>
<path fill="none" stroke="#000000" d="M831.1071,-179.8015C832.9015,-169.2915 835.1963,-155.8503 837.2165,-144.0177"/>
<polygon fill="#000000" stroke="#000000" points="840.6687,-144.594 838.9016,-134.1476 833.7685,-143.4159 840.6687,-144.594"/>
<text text-anchor="start" x="835" y="-154" font-family="Helvetica,sans-Serif" font-size="10.00" fill="#000000">ready_point_generator = &#39;1&#39; &#160;&#160;</text>
</g>
<!-- ENDER_ST -->
<g id="node10" class="node state regular">
<title>ENDER_ST</title>
<polygon fill="#ffffff" fill-opacity="0.003922" stroke="transparent" stroke-width="2" points="966.5,-52 881.5,-52 881.5,-16 966.5,-16 966.5,-52"/>
<text text-anchor="start" x="892.5008" y="-30.2" font-family="Helvetica,sans-Serif" font-size="12.00" fill="#000000">ENDER_ST</text>
<path fill="none" stroke="#000000" stroke-width="2" d="M893.8333,-17C893.8333,-17 954.1667,-17 954.1667,-17 959.8333,-17 965.5,-22.6667 965.5,-28.3333 965.5,-28.3333 965.5,-39.6667 965.5,-39.6667 965.5,-45.3333 959.8333,-51 954.1667,-51 954.1667,-51 893.8333,-51 893.8333,-51 888.1667,-51 882.5,-45.3333 882.5,-39.6667 882.5,-39.6667 882.5,-28.3333 882.5,-28.3333 882.5,-22.6667 888.1667,-17 893.8333,-17"/>
</g>
<!-- POINT_ADDER_ST&#45;&gt;ENDER_ST -->
<g id="edge8" class="edge transition">
<title>POINT_ADDER_ST&#45;&gt;ENDER_ST</title>
<path fill="none" stroke="#000000" d="M855.1759,-97.8029C862.1023,-88.7429 870.9936,-77.8619 879.925,-69 883.3844,-65.5675 887.1688,-62.144 891.0202,-58.8563"/>
<polygon fill="#000000" stroke="#000000" points="893.4411,-61.3968 898.9373,-52.3391 888.9922,-55.9924 893.4411,-61.3968"/>
<text text-anchor="start" x="879" y="-72" font-family="Helvetica,sans-Serif" font-size="10.00" fill="#000000">ready_point_adder = &#39;1&#39; &#160;&#160;</text>
</g>
<!-- ENDER_ST&#45;&gt;STARTER_ST -->
<g id="edge9" class="edge transition">
<title>ENDER_ST&#45;&gt;STARTER_ST</title>
<path fill="none" stroke="#000000" d="M966.758,-41.9299C983.6008,-47.7543 999,-57.7863 999,-75 999,-335.5 999,-335.5 999,-335.5 999,-476.0683 1056.4402,-503.4105 1073,-643 1074.2566,-653.5924 1080.2931,-659.2161 1073,-667 1070.9795,-669.1565 736.3692,-689.7879 596.4287,-698.3274"/>
<polygon fill="#000000" stroke="#000000" points="596.065,-694.843 586.2967,-698.9453 596.4912,-701.83 596.065,-694.843"/>
<text text-anchor="start" x="1001" y="-359" font-family="Helvetica,sans-Serif" font-size="10.00" fill="#000000">ready_mod = &#39;1&#39; &#160;&#160;</text>
</g>
</g>
</svg>
