<?xml version="1.0" encoding="UTF-8" standalone="no"?>
<!DOCTYPE svg PUBLIC "-//W3C//DTD SVG 1.1//EN"
 "http://www.w3.org/Graphics/SVG/1.1/DTD/svg11.dtd">
<!-- Generated by graphviz version 2.40.1 (20161225.0304)
 -->
<!-- Title: state transitions Pages: 1 -->
<svg width="709pt" height="434pt"
 viewBox="0.00 0.00 709.00 434.00" xmlns="http://www.w3.org/2000/svg" xmlns:xlink="http://www.w3.org/1999/xlink">
<g id="graph0" class="graph" transform="scale(1 1) rotate(0) translate(4 430)">
<title>state transitions</title>
<polygon fill="#ffffff" stroke="transparent" points="-4,4 -4,-430 705,-430 705,4 -4,4"/>
<g id="clust1" class="cluster state regular">
<title>cluster_multiplier_ctrl_fsm_st</title>
<path fill="none" stroke="#000000" stroke-width="2" d="M20,-8C20,-8 681,-8 681,-8 687,-8 693,-14 693,-20 693,-20 693,-406 693,-406 693,-412 687,-418 681,-418 681,-418 20,-418 20,-418 14,-418 8,-412 8,-406 8,-406 8,-20 8,-20 8,-14 14,-8 20,-8"/>
<text text-anchor="start" x="294.1714" y="-399.2" font-family="Helvetica,sans-Serif" font-size="12.00" fill="#000000">multiplier_ctrl_fsm_st</text>
</g>
<!-- multiplier_ctrl_fsm_st -->
<!-- STARTER_ST -->
<g id="node2" class="node state regular">
<title>STARTER_ST</title>
<polygon fill="#ffffff" fill-opacity="0.003922" stroke="transparent" stroke-width="2" points="459,-380 359,-380 359,-344 459,-344 459,-380"/>
<text text-anchor="start" x="370" y="-358.2" font-family="Helvetica,sans-Serif" font-size="12.00" fill="#000000">STARTER_ST</text>
<path fill="none" stroke="#000000" stroke-width="2" d="M371.3333,-345C371.3333,-345 446.6667,-345 446.6667,-345 452.3333,-345 458,-350.6667 458,-356.3333 458,-356.3333 458,-367.6667 458,-367.6667 458,-373.3333 452.3333,-379 446.6667,-379 446.6667,-379 371.3333,-379 371.3333,-379 365.6667,-379 360,-373.3333 360,-367.6667 360,-367.6667 360,-356.3333 360,-356.3333 360,-350.6667 365.6667,-345 371.3333,-345"/>
</g>
<!-- SET_DATA_B_ST -->
<g id="node3" class="node state regular">
<title>SET_DATA_B_ST</title>
<polygon fill="#ffffff" fill-opacity="0.003922" stroke="transparent" stroke-width="2" points="267,-298 147,-298 147,-262 267,-262 267,-298"/>
<text text-anchor="start" x="157.6578" y="-276.2" font-family="Helvetica,sans-Serif" font-size="12.00" fill="#000000">SET_DATA_B_ST</text>
<path fill="none" stroke="#000000" stroke-width="2" d="M159.3333,-263C159.3333,-263 254.6667,-263 254.6667,-263 260.3333,-263 266,-268.6667 266,-274.3333 266,-274.3333 266,-285.6667 266,-285.6667 266,-291.3333 260.3333,-297 254.6667,-297 254.6667,-297 159.3333,-297 159.3333,-297 153.6667,-297 148,-291.3333 148,-285.6667 148,-285.6667 148,-274.3333 148,-274.3333 148,-268.6667 153.6667,-263 159.3333,-263"/>
</g>
<!-- STARTER_ST&#45;&gt;SET_DATA_B_ST -->
<g id="edge1" class="edge transition">
<title>STARTER_ST&#45;&gt;SET_DATA_B_ST</title>
<path fill="none" stroke="#000000" d="M364.1697,-343.8015C333.5965,-331.3907 292.955,-314.8926 260.6594,-301.7825"/>
<polygon fill="#000000" stroke="#000000" points="261.9392,-298.5247 251.3571,-298.0063 259.3063,-305.0107 261.9392,-298.5247"/>
<text text-anchor="start" x="321" y="-318" font-family="Helvetica,sans-Serif" font-size="10.00" fill="#000000">START = &#39;1&#39; &#160;&#160;</text>
</g>
<!-- REDUCE_DATA_B_ST -->
<g id="node4" class="node state regular">
<title>REDUCE_DATA_B_ST</title>
<polygon fill="#ffffff" fill-opacity="0.003922" stroke="transparent" stroke-width="2" points="188,-216 40,-216 40,-180 188,-180 188,-216"/>
<text text-anchor="start" x="50.9976" y="-194.2" font-family="Helvetica,sans-Serif" font-size="12.00" fill="#000000">REDUCE_DATA_B_ST</text>
<path fill="none" stroke="#000000" stroke-width="2" d="M52.3333,-181C52.3333,-181 175.6667,-181 175.6667,-181 181.3333,-181 187,-186.6667 187,-192.3333 187,-192.3333 187,-203.6667 187,-203.6667 187,-209.3333 181.3333,-215 175.6667,-215 175.6667,-215 52.3333,-215 52.3333,-215 46.6667,-215 41,-209.3333 41,-203.6667 41,-203.6667 41,-192.3333 41,-192.3333 41,-186.6667 46.6667,-181 52.3333,-181"/>
</g>
<!-- SET_DATA_B_ST&#45;&gt;REDUCE_DATA_B_ST -->
<g id="edge3" class="edge transition">
<title>SET_DATA_B_ST&#45;&gt;REDUCE_DATA_B_ST</title>
<path fill="none" stroke="#000000" d="M146.9379,-270.733C118.0049,-264.9166 87.7153,-256.3502 79.053,-245 73.9097,-238.2607 75.8233,-230.9259 80.7429,-224.0983"/>
<polygon fill="#000000" stroke="#000000" points="83.5898,-226.1658 87.656,-216.3824 78.3763,-221.4947 83.5898,-226.1658"/>
<text text-anchor="start" x="79" y="-236" font-family="Helvetica,sans-Serif" font-size="10.00" fill="#000000">not ((unsigned(v_int) sll 1) &lt; &#39;0&#39; &amp; unsigned(MODULO)) &#160;&#160;</text>
</g>
<!-- SET_PRODUCT_OUT_ST -->
<g id="node5" class="node state regular">
<title>SET_PRODUCT_OUT_ST</title>
<polygon fill="#ffffff" fill-opacity="0.003922" stroke="transparent" stroke-width="2" points="438.5,-134 273.5,-134 273.5,-98 438.5,-98 438.5,-134"/>
<text text-anchor="start" x="284.8348" y="-112.2" font-family="Helvetica,sans-Serif" font-size="12.00" fill="#000000">SET_PRODUCT_OUT_ST</text>
<path fill="none" stroke="#000000" stroke-width="2" d="M285.8333,-99C285.8333,-99 426.1667,-99 426.1667,-99 431.8333,-99 437.5,-104.6667 437.5,-110.3333 437.5,-110.3333 437.5,-121.6667 437.5,-121.6667 437.5,-127.3333 431.8333,-133 426.1667,-133 426.1667,-133 285.8333,-133 285.8333,-133 280.1667,-133 274.5,-127.3333 274.5,-121.6667 274.5,-121.6667 274.5,-110.3333 274.5,-110.3333 274.5,-104.6667 280.1667,-99 285.8333,-99"/>
</g>
<!-- SET_DATA_B_ST&#45;&gt;SET_PRODUCT_OUT_ST -->
<g id="edge2" class="edge transition">
<title>SET_DATA_B_ST&#45;&gt;SET_PRODUCT_OUT_ST</title>
<path fill="none" stroke="#000000" d="M267.063,-270.2733C294.9142,-264.4153 323.6926,-255.9529 332,-245 335.223,-240.7507 335.3698,-237.1339 332,-233 308.3147,-203.9445 273.0723,-245.0555 249.387,-216 239.2776,-203.5984 238.4934,-191.7188 249.387,-180 284.6752,-142.0388 446.7118,-200.9612 482,-163 499.6427,-144.0209 478.304,-132.6642 448.4684,-125.8879"/>
<polygon fill="#000000" stroke="#000000" points="449.0213,-122.4285 438.5216,-123.8449 447.6129,-129.2853 449.0213,-122.4285"/>
<text text-anchor="start" x="249" y="-195" font-family="Helvetica,sans-Serif" font-size="10.00" fill="#000000">(unsigned(v_int) sll 1) &lt; &#39;0&#39; &amp; unsigned(MODULO) &#160;&#160;</text>
</g>
<!-- REDUCE_DATA_B_ST&#45;&gt;SET_PRODUCT_OUT_ST -->
<g id="edge4" class="edge transition">
<title>REDUCE_DATA_B_ST&#45;&gt;SET_PRODUCT_OUT_ST</title>
<path fill="none" stroke="#000000" d="M188.224,-180.3337C207.2221,-175.2635 227.5053,-169.3657 246,-163 266.7463,-155.8593 289.1038,-146.6075 308.2092,-138.2033"/>
<polygon fill="#000000" stroke="#000000" points="309.8762,-141.2925 317.5907,-134.0305 307.0314,-134.8966 309.8762,-141.2925"/>
<text text-anchor="start" x="276" y="-154" font-family="Helvetica,sans-Serif" font-size="10.00" fill="#000000">unsigned(v_int) &lt; &#39;0&#39; &amp; unsigned(MODULO) &#160;&#160;</text>
</g>
<!-- ENDER_ST -->
<g id="node6" class="node state regular">
<title>ENDER_ST</title>
<polygon fill="#ffffff" fill-opacity="0.003922" stroke="transparent" stroke-width="2" points="398.5,-52 313.5,-52 313.5,-16 398.5,-16 398.5,-52"/>
<text text-anchor="start" x="324.5008" y="-30.2" font-family="Helvetica,sans-Serif" font-size="12.00" fill="#000000">ENDER_ST</text>
<path fill="none" stroke="#000000" stroke-width="2" d="M325.8333,-17C325.8333,-17 386.1667,-17 386.1667,-17 391.8333,-17 397.5,-22.6667 397.5,-28.3333 397.5,-28.3333 397.5,-39.6667 397.5,-39.6667 397.5,-45.3333 391.8333,-51 386.1667,-51 386.1667,-51 325.8333,-51 325.8333,-51 320.1667,-51 314.5,-45.3333 314.5,-39.6667 314.5,-39.6667 314.5,-28.3333 314.5,-28.3333 314.5,-22.6667 320.1667,-17 325.8333,-17"/>
</g>
<!-- SET_PRODUCT_OUT_ST&#45;&gt;ENDER_ST -->
<g id="edge5" class="edge transition">
<title>SET_PRODUCT_OUT_ST&#45;&gt;ENDER_ST</title>
<path fill="none" stroke="#000000" d="M356,-97.8015C356,-87.3976 356,-74.1215 356,-62.3768"/>
<polygon fill="#000000" stroke="#000000" points="359.5001,-62.1476 356,-52.1476 352.5001,-62.1476 359.5001,-62.1476"/>
<text text-anchor="middle" x="357.3895" y="-72" font-family="Helvetica,sans-Serif" font-size="10.00" fill="#000000"> </text>
</g>
<!-- ENDER_ST&#45;&gt;STARTER_ST -->
<g id="edge6" class="edge transition">
<title>ENDER_ST&#45;&gt;STARTER_ST</title>
<path fill="none" stroke="#000000" d="M398.8468,-35.4782C451.2304,-38.4788 533,-47.5578 533,-75 533,-142.5 533,-142.5 533,-142.5 533,-181.0105 505,-185.9895 505,-224.5 505,-321 505,-321 505,-321 505,-330.6562 488.3659,-339.3776 468.9458,-346.2692"/>
<polygon fill="#000000" stroke="#000000" points="467.6292,-343.0187 459.2493,-349.5015 469.8429,-349.6595 467.6292,-343.0187"/>
<text text-anchor="start" x="520" y="-195" font-family="Helvetica,sans-Serif" font-size="10.00" fill="#000000">unsigned(u_int) = &#39;0&#39; &amp; unsigned(ONE) &#160;&#160;</text>
</g>
<!-- ENDER_ST&#45;&gt;SET_DATA_B_ST -->
<g id="edge7" class="edge transition">
<title>ENDER_ST&#45;&gt;SET_DATA_B_ST</title>
<path fill="none" stroke="#000000" d="M313.4431,-35.1498C226.791,-38.0599 38,-47.55 38,-75 38,-142.5 38,-142.5 38,-142.5 38,-175.4107 13.7122,-186.8557 29,-216 42.8017,-242.3112 56.7093,-242.2534 84,-254 100.4235,-261.0691 118.9315,-266.2764 136.5081,-270.0896"/>
<polygon fill="#000000" stroke="#000000" points="136.2282,-273.6046 146.7265,-272.1771 137.6294,-266.7463 136.2282,-273.6046"/>
<text text-anchor="start" x="37" y="-154" font-family="Helvetica,sans-Serif" font-size="10.00" fill="#000000">not (unsigned(u_int) = &#39;0&#39; &amp; unsigned(ONE)) &#160;&#160;</text>
</g>
</g>
</svg>
