<?xml version="1.0" encoding="UTF-8" standalone="no"?>
<!DOCTYPE svg PUBLIC "-//W3C//DTD SVG 1.1//EN"
 "http://www.w3.org/Graphics/SVG/1.1/DTD/svg11.dtd">
<!-- Generated by graphviz version 2.40.1 (20161225.0304)
 -->
<!-- Title: state transitions Pages: 1 -->
<svg width="428pt" height="962pt"
 viewBox="0.00 0.00 428.00 962.00" xmlns="http://www.w3.org/2000/svg" xmlns:xlink="http://www.w3.org/1999/xlink">
<g id="graph0" class="graph" transform="scale(1 1) rotate(0) translate(4 958)">
<title>state transitions</title>
<polygon fill="#ffffff" stroke="transparent" points="-4,4 -4,-958 424,-958 424,4 -4,4"/>
<g id="clust1" class="cluster state regular">
<title>cluster_point_adder_ctrl_fsm_st</title>
<path fill="none" stroke="#000000" stroke-width="2" d="M20,-8C20,-8 400,-8 400,-8 406,-8 412,-14 412,-20 412,-20 412,-934 412,-934 412,-940 406,-946 400,-946 400,-946 20,-946 20,-946 14,-946 8,-940 8,-934 8,-934 8,-20 8,-20 8,-14 14,-8 20,-8"/>
<text text-anchor="start" x="145.986" y="-927.2" font-family="Helvetica,sans-Serif" font-size="12.00" fill="#000000">point_adder_ctrl_fsm_st</text>
</g>
<!-- point_adder_ctrl_fsm_st -->
<!-- STARTER_ST -->
<g id="node2" class="node state regular">
<title>STARTER_ST</title>
<polygon fill="#ffffff" fill-opacity="0.003922" stroke="transparent" stroke-width="2" points="249,-908 149,-908 149,-872 249,-872 249,-908"/>
<text text-anchor="start" x="160" y="-886.2" font-family="Helvetica,sans-Serif" font-size="12.00" fill="#000000">STARTER_ST</text>
<path fill="none" stroke="#000000" stroke-width="2" d="M161.3333,-873C161.3333,-873 236.6667,-873 236.6667,-873 242.3333,-873 248,-878.6667 248,-884.3333 248,-884.3333 248,-895.6667 248,-895.6667 248,-901.3333 242.3333,-907 236.6667,-907 236.6667,-907 161.3333,-907 161.3333,-907 155.6667,-907 150,-901.3333 150,-895.6667 150,-895.6667 150,-884.3333 150,-884.3333 150,-878.6667 155.6667,-873 161.3333,-873"/>
</g>
<!-- ADDER_FIRST_ST -->
<g id="node3" class="node state regular">
<title>ADDER_FIRST_ST</title>
<polygon fill="#ffffff" fill-opacity="0.003922" stroke="transparent" stroke-width="2" points="197.5,-790 70.5,-790 70.5,-754 197.5,-754 197.5,-790"/>
<text text-anchor="start" x="81.8344" y="-768.2" font-family="Helvetica,sans-Serif" font-size="12.00" fill="#000000">ADDER_FIRST_ST</text>
<path fill="none" stroke="#000000" stroke-width="2" d="M82.8333,-755C82.8333,-755 185.1667,-755 185.1667,-755 190.8333,-755 196.5,-760.6667 196.5,-766.3333 196.5,-766.3333 196.5,-777.6667 196.5,-777.6667 196.5,-783.3333 190.8333,-789 185.1667,-789 185.1667,-789 82.8333,-789 82.8333,-789 77.1667,-789 71.5,-783.3333 71.5,-777.6667 71.5,-777.6667 71.5,-766.3333 71.5,-766.3333 71.5,-760.6667 77.1667,-755 82.8333,-755"/>
</g>
<!-- STARTER_ST&#45;&gt;ADDER_FIRST_ST -->
<g id="edge1" class="edge transition">
<title>STARTER_ST&#45;&gt;ADDER_FIRST_ST</title>
<path fill="none" stroke="#000000" d="M148.9842,-884.3869C112.2796,-879.117 66.888,-869.7929 55.265,-855 42.0848,-838.2252 43.6408,-824.8882 55.265,-807 57.9268,-802.9038 61.1907,-799.2832 64.8598,-796.0834"/>
<polygon fill="#000000" stroke="#000000" points="66.9736,-798.8731 72.897,-790.0889 62.7885,-793.2619 66.9736,-798.8731"/>
<text text-anchor="start" x="55" y="-846" font-family="Helvetica,sans-Serif" font-size="10.00" fill="#000000">START = &#39;1&#39; &#160;&#160;</text>
<text text-anchor="start" x="55" y="-834" font-family="Helvetica,sans-Serif" font-size="10.00" fill="#000000">not (POINT_IN_PX = ZERO and POINT_IN_PY = ZERO) &#160;&#160;</text>
<text text-anchor="start" x="55" y="-822" font-family="Helvetica,sans-Serif" font-size="10.00" fill="#000000">not (POINT_IN_QX = ZERO and POINT_IN_QY = ZERO) &#160;&#160;</text>
<text text-anchor="start" x="55" y="-810" font-family="Helvetica,sans-Serif" font-size="10.00" fill="#000000">not (POINT_IN_PX = POINT_IN_QX and POINT_IN_PY /= POINT_IN_QY) &#160;&#160;</text>
</g>
<!-- INVERTER_ST -->
<g id="node4" class="node state regular">
<title>INVERTER_ST</title>
<polygon fill="#ffffff" fill-opacity="0.003922" stroke="transparent" stroke-width="2" points="214,-708 110,-708 110,-672 214,-672 214,-708"/>
<text text-anchor="start" x="120.6666" y="-686.2" font-family="Helvetica,sans-Serif" font-size="12.00" fill="#000000">INVERTER_ST</text>
<path fill="none" stroke="#000000" stroke-width="2" d="M122.3333,-673C122.3333,-673 201.6667,-673 201.6667,-673 207.3333,-673 213,-678.6667 213,-684.3333 213,-684.3333 213,-695.6667 213,-695.6667 213,-701.3333 207.3333,-707 201.6667,-707 201.6667,-707 122.3333,-707 122.3333,-707 116.6667,-707 111,-701.3333 111,-695.6667 111,-695.6667 111,-684.3333 111,-684.3333 111,-678.6667 116.6667,-673 122.3333,-673"/>
</g>
<!-- ADDER_FIRST_ST&#45;&gt;INVERTER_ST -->
<g id="edge2" class="edge transition">
<title>ADDER_FIRST_ST&#45;&gt;INVERTER_ST</title>
<path fill="none" stroke="#000000" d="M140.2141,-753.8015C143.8392,-743.1853 148.4854,-729.5784 152.5552,-717.6596"/>
<polygon fill="#000000" stroke="#000000" points="155.884,-718.7421 155.8033,-708.1476 149.2595,-716.4801 155.884,-718.7421"/>
<text text-anchor="start" x="149" y="-728" font-family="Helvetica,sans-Serif" font-size="10.00" fill="#000000">ready_adder = &#39;1&#39; &#160;&#160;</text>
</g>
<!-- ADDER_SECOND_ST -->
<g id="node5" class="node state regular">
<title>ADDER_SECOND_ST</title>
<polygon fill="#ffffff" fill-opacity="0.003922" stroke="transparent" stroke-width="2" points="240.5,-626 97.5,-626 97.5,-590 240.5,-590 240.5,-626"/>
<text text-anchor="start" x="108.501" y="-604.2" font-family="Helvetica,sans-Serif" font-size="12.00" fill="#000000">ADDER_SECOND_ST</text>
<path fill="none" stroke="#000000" stroke-width="2" d="M109.8333,-591C109.8333,-591 228.1667,-591 228.1667,-591 233.8333,-591 239.5,-596.6667 239.5,-602.3333 239.5,-602.3333 239.5,-613.6667 239.5,-613.6667 239.5,-619.3333 233.8333,-625 228.1667,-625 228.1667,-625 109.8333,-625 109.8333,-625 104.1667,-625 98.5,-619.3333 98.5,-613.6667 98.5,-613.6667 98.5,-602.3333 98.5,-602.3333 98.5,-596.6667 104.1667,-591 109.8333,-591"/>
</g>
<!-- INVERTER_ST&#45;&gt;ADDER_SECOND_ST -->
<g id="edge3" class="edge transition">
<title>INVERTER_ST&#45;&gt;ADDER_SECOND_ST</title>
<path fill="none" stroke="#000000" d="M163.5535,-671.8015C164.4417,-661.3976 165.575,-648.1215 166.5776,-636.3768"/>
<polygon fill="#000000" stroke="#000000" points="170.0875,-636.4091 167.4508,-626.1476 163.1128,-635.8136 170.0875,-636.4091"/>
<text text-anchor="start" x="165" y="-646" font-family="Helvetica,sans-Serif" font-size="10.00" fill="#000000">ready_inverter = &#39;1&#39; &#160;&#160;</text>
</g>
<!-- MULTIPLIER_FIRST_ST -->
<g id="node6" class="node state regular">
<title>MULTIPLIER_FIRST_ST</title>
<polygon fill="#ffffff" fill-opacity="0.003922" stroke="transparent" stroke-width="2" points="260,-544 104,-544 104,-508 260,-508 260,-544"/>
<text text-anchor="start" x="114.9974" y="-522.2" font-family="Helvetica,sans-Serif" font-size="12.00" fill="#000000">MULTIPLIER_FIRST_ST</text>
<path fill="none" stroke="#000000" stroke-width="2" d="M116.3333,-509C116.3333,-509 247.6667,-509 247.6667,-509 253.3333,-509 259,-514.6667 259,-520.3333 259,-520.3333 259,-531.6667 259,-531.6667 259,-537.3333 253.3333,-543 247.6667,-543 247.6667,-543 116.3333,-543 116.3333,-543 110.6667,-543 105,-537.3333 105,-531.6667 105,-531.6667 105,-520.3333 105,-520.3333 105,-514.6667 110.6667,-509 116.3333,-509"/>
</g>
<!-- ADDER_SECOND_ST&#45;&gt;MULTIPLIER_FIRST_ST -->
<g id="edge4" class="edge transition">
<title>ADDER_SECOND_ST&#45;&gt;MULTIPLIER_FIRST_ST</title>
<path fill="none" stroke="#000000" d="M171.8851,-589.8015C173.5345,-579.3976 175.6393,-566.1215 177.5012,-554.3768"/>
<polygon fill="#000000" stroke="#000000" points="181.0139,-554.5723 179.1229,-544.1476 174.1002,-553.4762 181.0139,-554.5723"/>
<text text-anchor="start" x="176" y="-564" font-family="Helvetica,sans-Serif" font-size="10.00" fill="#000000">ready_adder = &#39;1&#39; &#160;&#160;</text>
</g>
<!-- MULTIPLIER_SECOND_ST -->
<g id="node7" class="node state regular">
<title>MULTIPLIER_SECOND_ST</title>
<polygon fill="#ffffff" fill-opacity="0.003922" stroke="transparent" stroke-width="2" points="272,-462 100,-462 100,-426 272,-426 272,-462"/>
<text text-anchor="start" x="110.664" y="-440.2" font-family="Helvetica,sans-Serif" font-size="12.00" fill="#000000">MULTIPLIER_SECOND_ST</text>
<path fill="none" stroke="#000000" stroke-width="2" d="M112.3333,-427C112.3333,-427 259.6667,-427 259.6667,-427 265.3333,-427 271,-432.6667 271,-438.3333 271,-438.3333 271,-449.6667 271,-449.6667 271,-455.3333 265.3333,-461 259.6667,-461 259.6667,-461 112.3333,-461 112.3333,-461 106.6667,-461 101,-455.3333 101,-449.6667 101,-449.6667 101,-438.3333 101,-438.3333 101,-432.6667 106.6667,-427 112.3333,-427"/>
</g>
<!-- MULTIPLIER_FIRST_ST&#45;&gt;MULTIPLIER_SECOND_ST -->
<g id="edge5" class="edge transition">
<title>MULTIPLIER_FIRST_ST&#45;&gt;MULTIPLIER_SECOND_ST</title>
<path fill="none" stroke="#000000" d="M182.8877,-507.8015C183.3952,-497.3976 184.0429,-484.1215 184.6158,-472.3768"/>
<polygon fill="#000000" stroke="#000000" points="188.1233,-472.3063 185.1148,-462.1476 181.1316,-471.9651 188.1233,-472.3063"/>
<text text-anchor="start" x="184" y="-482" font-family="Helvetica,sans-Serif" font-size="10.00" fill="#000000">ready_multiplier = &#39;1&#39; &#160;&#160;</text>
</g>
<!-- ADDER_THIRD_ST -->
<g id="node8" class="node state regular">
<title>ADDER_THIRD_ST</title>
<polygon fill="#ffffff" fill-opacity="0.003922" stroke="transparent" stroke-width="2" points="254.5,-380 125.5,-380 125.5,-344 254.5,-344 254.5,-380"/>
<text text-anchor="start" x="136.8384" y="-358.2" font-family="Helvetica,sans-Serif" font-size="12.00" fill="#000000">ADDER_THIRD_ST</text>
<path fill="none" stroke="#000000" stroke-width="2" d="M137.8333,-345C137.8333,-345 242.1667,-345 242.1667,-345 247.8333,-345 253.5,-350.6667 253.5,-356.3333 253.5,-356.3333 253.5,-367.6667 253.5,-367.6667 253.5,-373.3333 247.8333,-379 242.1667,-379 242.1667,-379 137.8333,-379 137.8333,-379 132.1667,-379 126.5,-373.3333 126.5,-367.6667 126.5,-367.6667 126.5,-356.3333 126.5,-356.3333 126.5,-350.6667 132.1667,-345 137.8333,-345"/>
</g>
<!-- MULTIPLIER_SECOND_ST&#45;&gt;ADDER_THIRD_ST -->
<g id="edge6" class="edge transition">
<title>MULTIPLIER_SECOND_ST&#45;&gt;ADDER_THIRD_ST</title>
<path fill="none" stroke="#000000" d="M186.8877,-425.8015C187.3952,-415.3976 188.0429,-402.1215 188.6158,-390.3768"/>
<polygon fill="#000000" stroke="#000000" points="192.1233,-390.3063 189.1148,-380.1476 185.1316,-389.9651 192.1233,-390.3063"/>
<text text-anchor="start" x="188" y="-400" font-family="Helvetica,sans-Serif" font-size="10.00" fill="#000000">ready_multiplier = &#39;1&#39; &#160;&#160;</text>
</g>
<!-- ADDER_FOURTH_ST -->
<g id="node9" class="node state regular">
<title>ADDER_FOURTH_ST</title>
<polygon fill="#ffffff" fill-opacity="0.003922" stroke="transparent" stroke-width="2" points="263,-298 121,-298 121,-262 263,-262 263,-298"/>
<text text-anchor="start" x="131.673" y="-276.2" font-family="Helvetica,sans-Serif" font-size="12.00" fill="#000000">ADDER_FOURTH_ST</text>
<path fill="none" stroke="#000000" stroke-width="2" d="M133.3333,-263C133.3333,-263 250.6667,-263 250.6667,-263 256.3333,-263 262,-268.6667 262,-274.3333 262,-274.3333 262,-285.6667 262,-285.6667 262,-291.3333 256.3333,-297 250.6667,-297 250.6667,-297 133.3333,-297 133.3333,-297 127.6667,-297 122,-291.3333 122,-285.6667 122,-285.6667 122,-274.3333 122,-274.3333 122,-268.6667 127.6667,-263 133.3333,-263"/>
</g>
<!-- ADDER_THIRD_ST&#45;&gt;ADDER_FOURTH_ST -->
<g id="edge7" class="edge transition">
<title>ADDER_THIRD_ST&#45;&gt;ADDER_FOURTH_ST</title>
<path fill="none" stroke="#000000" d="M190.4439,-343.8015C190.6976,-333.3976 191.0214,-320.1215 191.3079,-308.3768"/>
<polygon fill="#000000" stroke="#000000" points="194.8124,-308.23 191.5574,-298.1476 187.8145,-308.0592 194.8124,-308.23"/>
<text text-anchor="start" x="191" y="-318" font-family="Helvetica,sans-Serif" font-size="10.00" fill="#000000">ready_adder = &#39;1&#39; &#160;&#160;</text>
</g>
<!-- ADDER_FIFTH_ST -->
<g id="node10" class="node state regular">
<title>ADDER_FIFTH_ST</title>
<polygon fill="#ffffff" fill-opacity="0.003922" stroke="transparent" stroke-width="2" points="256,-216 130,-216 130,-180 256,-180 256,-216"/>
<text text-anchor="start" x="140.6704" y="-194.2" font-family="Helvetica,sans-Serif" font-size="12.00" fill="#000000">ADDER_FIFTH_ST</text>
<path fill="none" stroke="#000000" stroke-width="2" d="M142.3333,-181C142.3333,-181 243.6667,-181 243.6667,-181 249.3333,-181 255,-186.6667 255,-192.3333 255,-192.3333 255,-203.6667 255,-203.6667 255,-209.3333 249.3333,-215 243.6667,-215 243.6667,-215 142.3333,-215 142.3333,-215 136.6667,-215 131,-209.3333 131,-203.6667 131,-203.6667 131,-192.3333 131,-192.3333 131,-186.6667 136.6667,-181 142.3333,-181"/>
</g>
<!-- ADDER_FOURTH_ST&#45;&gt;ADDER_FIFTH_ST -->
<g id="edge8" class="edge transition">
<title>ADDER_FOURTH_ST&#45;&gt;ADDER_FIFTH_ST</title>
<path fill="none" stroke="#000000" d="M192.2219,-261.8015C192.3488,-251.3976 192.5107,-238.1215 192.6539,-226.3768"/>
<polygon fill="#000000" stroke="#000000" points="196.1564,-226.1896 192.7787,-216.1476 189.1569,-226.1041 196.1564,-226.1896"/>
<text text-anchor="start" x="192" y="-236" font-family="Helvetica,sans-Serif" font-size="10.00" fill="#000000">ready_adder = &#39;1&#39; &#160;&#160;</text>
</g>
<!-- MULTIPLIER_THIRD_ST -->
<g id="node11" class="node state regular">
<title>MULTIPLIER_THIRD_ST</title>
<polygon fill="#ffffff" fill-opacity="0.003922" stroke="transparent" stroke-width="2" points="272.5,-134 115.5,-134 115.5,-98 272.5,-98 272.5,-134"/>
<text text-anchor="start" x="126.5014" y="-112.2" font-family="Helvetica,sans-Serif" font-size="12.00" fill="#000000">MULTIPLIER_THIRD_ST</text>
<path fill="none" stroke="#000000" stroke-width="2" d="M127.8333,-99C127.8333,-99 260.1667,-99 260.1667,-99 265.8333,-99 271.5,-104.6667 271.5,-110.3333 271.5,-110.3333 271.5,-121.6667 271.5,-121.6667 271.5,-127.3333 265.8333,-133 260.1667,-133 260.1667,-133 127.8333,-133 127.8333,-133 122.1667,-133 116.5,-127.3333 116.5,-121.6667 116.5,-121.6667 116.5,-110.3333 116.5,-110.3333 116.5,-104.6667 122.1667,-99 127.8333,-99"/>
</g>
<!-- ADDER_FIFTH_ST&#45;&gt;MULTIPLIER_THIRD_ST -->
<g id="edge9" class="edge transition">
<title>ADDER_FIFTH_ST&#45;&gt;MULTIPLIER_THIRD_ST</title>
<path fill="none" stroke="#000000" d="M193.2219,-179.8015C193.3488,-169.3976 193.5107,-156.1215 193.6539,-144.3768"/>
<polygon fill="#000000" stroke="#000000" points="197.1564,-144.1896 193.7787,-134.1476 190.1569,-144.1041 197.1564,-144.1896"/>
<text text-anchor="start" x="193" y="-154" font-family="Helvetica,sans-Serif" font-size="10.00" fill="#000000">ready_adder = &#39;1&#39; &#160;&#160;</text>
</g>
<!-- ENDER_ST -->
<g id="node12" class="node state regular">
<title>ENDER_ST</title>
<polygon fill="#ffffff" fill-opacity="0.003922" stroke="transparent" stroke-width="2" points="298.5,-52 213.5,-52 213.5,-16 298.5,-16 298.5,-52"/>
<text text-anchor="start" x="224.5008" y="-30.2" font-family="Helvetica,sans-Serif" font-size="12.00" fill="#000000">ENDER_ST</text>
<path fill="none" stroke="#000000" stroke-width="2" d="M225.8333,-17C225.8333,-17 286.1667,-17 286.1667,-17 291.8333,-17 297.5,-22.6667 297.5,-28.3333 297.5,-28.3333 297.5,-39.6667 297.5,-39.6667 297.5,-45.3333 291.8333,-51 286.1667,-51 286.1667,-51 225.8333,-51 225.8333,-51 220.1667,-51 214.5,-45.3333 214.5,-39.6667 214.5,-39.6667 214.5,-28.3333 214.5,-28.3333 214.5,-22.6667 220.1667,-17 225.8333,-17"/>
</g>
<!-- MULTIPLIER_THIRD_ST&#45;&gt;ENDER_ST -->
<g id="edge10" class="edge transition">
<title>MULTIPLIER_THIRD_ST&#45;&gt;ENDER_ST</title>
<path fill="none" stroke="#000000" d="M198.3285,-97.9089C201.1325,-88.6662 205.4545,-77.5893 211.734,-69 214.2709,-65.53 217.2384,-62.2213 220.4145,-59.1206"/>
<polygon fill="#000000" stroke="#000000" points="222.9536,-61.5464 228.0993,-52.2851 218.3012,-56.3161 222.9536,-61.5464"/>
<text text-anchor="start" x="211" y="-72" font-family="Helvetica,sans-Serif" font-size="10.00" fill="#000000">ready_multiplier = &#39;1&#39; &#160;&#160;</text>
</g>
<!-- ENDER_ST&#45;&gt;STARTER_ST -->
<g id="edge11" class="edge transition">
<title>ENDER_ST&#45;&gt;STARTER_ST</title>
<path fill="none" stroke="#000000" d="M298.7227,-47.7055C309.4619,-53.9339 318,-62.7407 318,-75 318,-485 318,-485 318,-485 318,-632.4618 380.0896,-660.6299 398,-807 400.5911,-828.1754 411.7163,-838.6607 398,-855 393.4654,-860.4017 316.0735,-872.832 259.1656,-881.3265"/>
<polygon fill="#000000" stroke="#000000" points="258.5348,-877.8817 249.1569,-882.8117 259.5623,-884.8059 258.5348,-877.8817"/>
<text text-anchor="start" x="318" y="-441" font-family="Helvetica,sans-Serif" font-size="10.00" fill="#000000">ready_adder = &#39;1&#39; &#160;&#160;</text>
</g>
</g>
</svg>
