<?xml version="1.0" encoding="UTF-8" standalone="no"?>
<!DOCTYPE svg PUBLIC "-//W3C//DTD SVG 1.1//EN"
 "http://www.w3.org/Graphics/SVG/1.1/DTD/svg11.dtd">
<!-- Generated by graphviz version 2.43.0 (0)
 -->
<!-- Title: MatrixFormat64 Pages: 1 -->
<svg width="839pt" height="144pt"
 viewBox="0.00 0.00 839.00 144.00" xmlns="http://www.w3.org/2000/svg" xmlns:xlink="http://www.w3.org/1999/xlink">
<g id="graph0" class="graph" transform="scale(1 1) rotate(0) translate(4 140)">
<title>MatrixFormat64</title>
<polygon fill="white" stroke="transparent" points="-4,4 -4,-140 835,-140 835,4 -4,4"/>
<!-- InstructionTable -->
<g id="node1" class="node">
<title>InstructionTable</title>
<polygon fill="#dddddd" stroke="transparent" points="9.5,-110 9.5,-131 822.5,-131 822.5,-110 9.5,-110"/>
<polygon fill="none" stroke="black" points="9.5,-110 9.5,-131 822.5,-131 822.5,-110 9.5,-110"/>
<text text-anchor="start" x="296" y="-117.8" font-family="Courier,monospace" font-weight="bold" font-size="14.00">Instruction Formats (64 bits)</text>
<polygon fill="#eeeeee" stroke="transparent" points="9.5,-89 9.5,-110 49.5,-110 49.5,-89 9.5,-89"/>
<polygon fill="none" stroke="black" points="9.5,-89 9.5,-110 49.5,-110 49.5,-89 9.5,-89"/>
<text text-anchor="start" x="12.5" y="-95.8" font-family="Courier,monospace" font-size="14.00">Type</text>
<polygon fill="#eeeeee" stroke="transparent" points="49.5,-89 49.5,-110 72.5,-110 72.5,-89 49.5,-89"/>
<polygon fill="none" stroke="black" points="49.5,-89 49.5,-110 72.5,-110 72.5,-89 49.5,-89"/>
<text text-anchor="start" x="52.5" y="-95.8" font-family="Courier,monospace" font-size="14.00">31</text>
<polygon fill="#eeeeee" stroke="transparent" points="72.5,-89 72.5,-110 95.5,-110 95.5,-89 72.5,-89"/>
<polygon fill="none" stroke="black" points="72.5,-89 72.5,-110 95.5,-110 95.5,-89 72.5,-89"/>
<text text-anchor="start" x="75.5" y="-95.8" font-family="Courier,monospace" font-size="14.00">30</text>
<polygon fill="#eeeeee" stroke="transparent" points="95.5,-89 95.5,-110 118.5,-110 118.5,-89 95.5,-89"/>
<polygon fill="none" stroke="black" points="95.5,-89 95.5,-110 118.5,-110 118.5,-89 95.5,-89"/>
<text text-anchor="start" x="98.5" y="-95.8" font-family="Courier,monospace" font-size="14.00">29</text>
<polygon fill="#eeeeee" stroke="transparent" points="118.5,-89 118.5,-110 141.5,-110 141.5,-89 118.5,-89"/>
<polygon fill="none" stroke="black" points="118.5,-89 118.5,-110 141.5,-110 141.5,-89 118.5,-89"/>
<text text-anchor="start" x="121.5" y="-95.8" font-family="Courier,monospace" font-size="14.00">28</text>
<polygon fill="#eeeeee" stroke="transparent" points="141.5,-89 141.5,-110 164.5,-110 164.5,-89 141.5,-89"/>
<polygon fill="none" stroke="black" points="141.5,-89 141.5,-110 164.5,-110 164.5,-89 141.5,-89"/>
<text text-anchor="start" x="144.5" y="-95.8" font-family="Courier,monospace" font-size="14.00">27</text>
<polygon fill="#eeeeee" stroke="transparent" points="164.5,-89 164.5,-110 187.5,-110 187.5,-89 164.5,-89"/>
<polygon fill="none" stroke="black" points="164.5,-89 164.5,-110 187.5,-110 187.5,-89 164.5,-89"/>
<text text-anchor="start" x="167.5" y="-95.8" font-family="Courier,monospace" font-size="14.00">26</text>
<polygon fill="#eeeeee" stroke="transparent" points="187.5,-89 187.5,-110 227.5,-110 227.5,-89 187.5,-89"/>
<polygon fill="none" stroke="black" points="187.5,-89 187.5,-110 227.5,-110 227.5,-89 187.5,-89"/>
<text text-anchor="start" x="199" y="-95.8" font-family="Courier,monospace" font-size="14.00">25</text>
<polygon fill="#eeeeee" stroke="transparent" points="227.5,-89 227.5,-110 250.5,-110 250.5,-89 227.5,-89"/>
<polygon fill="none" stroke="black" points="227.5,-89 227.5,-110 250.5,-110 250.5,-89 227.5,-89"/>
<text text-anchor="start" x="230.5" y="-95.8" font-family="Courier,monospace" font-size="14.00">24</text>
<polygon fill="#eeeeee" stroke="transparent" points="250.5,-89 250.5,-110 273.5,-110 273.5,-89 250.5,-89"/>
<polygon fill="none" stroke="black" points="250.5,-89 250.5,-110 273.5,-110 273.5,-89 250.5,-89"/>
<text text-anchor="start" x="253.5" y="-95.8" font-family="Courier,monospace" font-size="14.00">23</text>
<polygon fill="#eeeeee" stroke="transparent" points="273.5,-89 273.5,-110 296.5,-110 296.5,-89 273.5,-89"/>
<polygon fill="none" stroke="black" points="273.5,-89 273.5,-110 296.5,-110 296.5,-89 273.5,-89"/>
<text text-anchor="start" x="276.5" y="-95.8" font-family="Courier,monospace" font-size="14.00">22</text>
<polygon fill="#eeeeee" stroke="transparent" points="296.5,-89 296.5,-110 319.5,-110 319.5,-89 296.5,-89"/>
<polygon fill="none" stroke="black" points="296.5,-89 296.5,-110 319.5,-110 319.5,-89 296.5,-89"/>
<text text-anchor="start" x="299.5" y="-95.8" font-family="Courier,monospace" font-size="14.00">21</text>
<polygon fill="#eeeeee" stroke="transparent" points="319.5,-89 319.5,-110 342.5,-110 342.5,-89 319.5,-89"/>
<polygon fill="none" stroke="black" points="319.5,-89 319.5,-110 342.5,-110 342.5,-89 319.5,-89"/>
<text text-anchor="start" x="322.5" y="-95.8" font-family="Courier,monospace" font-size="14.00">20</text>
<polygon fill="#eeeeee" stroke="transparent" points="342.5,-89 342.5,-110 370.5,-110 370.5,-89 342.5,-89"/>
<polygon fill="none" stroke="black" points="342.5,-89 342.5,-110 370.5,-110 370.5,-89 342.5,-89"/>
<text text-anchor="start" x="348" y="-95.8" font-family="Courier,monospace" font-size="14.00">19</text>
<polygon fill="#eeeeee" stroke="transparent" points="370.5,-89 370.5,-110 398.5,-110 398.5,-89 370.5,-89"/>
<polygon fill="none" stroke="black" points="370.5,-89 370.5,-110 398.5,-110 398.5,-89 370.5,-89"/>
<text text-anchor="start" x="376" y="-95.8" font-family="Courier,monospace" font-size="14.00">18</text>
<polygon fill="#eeeeee" stroke="transparent" points="398.5,-89 398.5,-110 421.5,-110 421.5,-89 398.5,-89"/>
<polygon fill="none" stroke="black" points="398.5,-89 398.5,-110 421.5,-110 421.5,-89 398.5,-89"/>
<text text-anchor="start" x="401.5" y="-95.8" font-family="Courier,monospace" font-size="14.00">17</text>
<polygon fill="#eeeeee" stroke="transparent" points="421.5,-89 421.5,-110 444.5,-110 444.5,-89 421.5,-89"/>
<polygon fill="none" stroke="black" points="421.5,-89 421.5,-110 444.5,-110 444.5,-89 421.5,-89"/>
<text text-anchor="start" x="424.5" y="-95.8" font-family="Courier,monospace" font-size="14.00">16</text>
<polygon fill="#eeeeee" stroke="transparent" points="444.5,-89 444.5,-110 467.5,-110 467.5,-89 444.5,-89"/>
<polygon fill="none" stroke="black" points="444.5,-89 444.5,-110 467.5,-110 467.5,-89 444.5,-89"/>
<text text-anchor="start" x="447.5" y="-95.8" font-family="Courier,monospace" font-size="14.00">15</text>
<polygon fill="#eeeeee" stroke="transparent" points="467.5,-89 467.5,-110 490.5,-110 490.5,-89 467.5,-89"/>
<polygon fill="none" stroke="black" points="467.5,-89 467.5,-110 490.5,-110 490.5,-89 467.5,-89"/>
<text text-anchor="start" x="470.5" y="-95.8" font-family="Courier,monospace" font-size="14.00">14</text>
<polygon fill="#eeeeee" stroke="transparent" points="490.5,-89 490.5,-110 513.5,-110 513.5,-89 490.5,-89"/>
<polygon fill="none" stroke="black" points="490.5,-89 490.5,-110 513.5,-110 513.5,-89 490.5,-89"/>
<text text-anchor="start" x="493.5" y="-95.8" font-family="Courier,monospace" font-size="14.00">13</text>
<polygon fill="#eeeeee" stroke="transparent" points="513.5,-89 513.5,-110 536.5,-110 536.5,-89 513.5,-89"/>
<polygon fill="none" stroke="black" points="513.5,-89 513.5,-110 536.5,-110 536.5,-89 513.5,-89"/>
<text text-anchor="start" x="516.5" y="-95.8" font-family="Courier,monospace" font-size="14.00">12</text>
<polygon fill="#eeeeee" stroke="transparent" points="536.5,-89 536.5,-110 564.5,-110 564.5,-89 536.5,-89"/>
<polygon fill="none" stroke="black" points="536.5,-89 536.5,-110 564.5,-110 564.5,-89 536.5,-89"/>
<text text-anchor="start" x="542" y="-95.8" font-family="Courier,monospace" font-size="14.00">11</text>
<polygon fill="#eeeeee" stroke="transparent" points="564.5,-89 564.5,-110 592.5,-110 592.5,-89 564.5,-89"/>
<polygon fill="none" stroke="black" points="564.5,-89 564.5,-110 592.5,-110 592.5,-89 564.5,-89"/>
<text text-anchor="start" x="570" y="-95.8" font-family="Courier,monospace" font-size="14.00">10</text>
<polygon fill="#eeeeee" stroke="transparent" points="592.5,-89 592.5,-110 615.5,-110 615.5,-89 592.5,-89"/>
<polygon fill="none" stroke="black" points="592.5,-89 592.5,-110 615.5,-110 615.5,-89 592.5,-89"/>
<text text-anchor="start" x="595.5" y="-95.8" font-family="Courier,monospace" font-size="14.00">09</text>
<polygon fill="#eeeeee" stroke="transparent" points="615.5,-89 615.5,-110 638.5,-110 638.5,-89 615.5,-89"/>
<polygon fill="none" stroke="black" points="615.5,-89 615.5,-110 638.5,-110 638.5,-89 615.5,-89"/>
<text text-anchor="start" x="618.5" y="-95.8" font-family="Courier,monospace" font-size="14.00">08</text>
<polygon fill="#eeeeee" stroke="transparent" points="638.5,-89 638.5,-110 661.5,-110 661.5,-89 638.5,-89"/>
<polygon fill="none" stroke="black" points="638.5,-89 638.5,-110 661.5,-110 661.5,-89 638.5,-89"/>
<text text-anchor="start" x="641.5" y="-95.8" font-family="Courier,monospace" font-size="14.00">07</text>
<polygon fill="#eeeeee" stroke="transparent" points="661.5,-89 661.5,-110 684.5,-110 684.5,-89 661.5,-89"/>
<polygon fill="none" stroke="black" points="661.5,-89 661.5,-110 684.5,-110 684.5,-89 661.5,-89"/>
<text text-anchor="start" x="664.5" y="-95.8" font-family="Courier,monospace" font-size="14.00">06</text>
<polygon fill="#eeeeee" stroke="transparent" points="684.5,-89 684.5,-110 707.5,-110 707.5,-89 684.5,-89"/>
<polygon fill="none" stroke="black" points="684.5,-89 684.5,-110 707.5,-110 707.5,-89 684.5,-89"/>
<text text-anchor="start" x="687.5" y="-95.8" font-family="Courier,monospace" font-size="14.00">05</text>
<polygon fill="#eeeeee" stroke="transparent" points="707.5,-89 707.5,-110 730.5,-110 730.5,-89 707.5,-89"/>
<polygon fill="none" stroke="black" points="707.5,-89 707.5,-110 730.5,-110 730.5,-89 707.5,-89"/>
<text text-anchor="start" x="710.5" y="-95.8" font-family="Courier,monospace" font-size="14.00">04</text>
<polygon fill="#eeeeee" stroke="transparent" points="730.5,-89 730.5,-110 753.5,-110 753.5,-89 730.5,-89"/>
<polygon fill="none" stroke="black" points="730.5,-89 730.5,-110 753.5,-110 753.5,-89 730.5,-89"/>
<text text-anchor="start" x="733.5" y="-95.8" font-family="Courier,monospace" font-size="14.00">03</text>
<polygon fill="#eeeeee" stroke="transparent" points="753.5,-89 753.5,-110 776.5,-110 776.5,-89 753.5,-89"/>
<polygon fill="none" stroke="black" points="753.5,-89 753.5,-110 776.5,-110 776.5,-89 753.5,-89"/>
<text text-anchor="start" x="756.5" y="-95.8" font-family="Courier,monospace" font-size="14.00">02</text>
<polygon fill="#eeeeee" stroke="transparent" points="776.5,-89 776.5,-110 799.5,-110 799.5,-89 776.5,-89"/>
<polygon fill="none" stroke="black" points="776.5,-89 776.5,-110 799.5,-110 799.5,-89 776.5,-89"/>
<text text-anchor="start" x="779.5" y="-95.8" font-family="Courier,monospace" font-size="14.00">01</text>
<polygon fill="#eeeeee" stroke="transparent" points="799.5,-89 799.5,-110 822.5,-110 822.5,-89 799.5,-89"/>
<polygon fill="none" stroke="black" points="799.5,-89 799.5,-110 822.5,-110 822.5,-89 799.5,-89"/>
<text text-anchor="start" x="802.5" y="-95.8" font-family="Courier,monospace" font-size="14.00">00</text>
<polygon fill="#eeeeee" stroke="transparent" points="9.5,-68 9.5,-89 49.5,-89 49.5,-68 9.5,-68"/>
<polygon fill="none" stroke="black" points="9.5,-68 9.5,-89 49.5,-89 49.5,-68 9.5,-68"/>
<text text-anchor="start" x="25" y="-74.8" font-family="Courier,monospace" font-size="14.00">R</text>
<polygon fill="#b3cde3" stroke="transparent" points="49.5,-68 49.5,-89 141.5,-89 141.5,-68 49.5,-68"/>
<polygon fill="none" stroke="black" points="49.5,-68 49.5,-89 141.5,-89 141.5,-68 49.5,-68"/>
<text text-anchor="start" x="70.5" y="-74.8" font-family="Courier,monospace" font-size="14.00">funct4</text>
<polygon fill="#fed9a6" stroke="transparent" points="141.5,-68 141.5,-89 187.5,-89 187.5,-68 141.5,-68"/>
<polygon fill="none" stroke="black" points="141.5,-68 141.5,-89 187.5,-89 187.5,-68 141.5,-68"/>
<text text-anchor="start" x="152" y="-74.8" font-family="Courier,monospace" font-size="14.00">uop</text>
<polygon fill="#fed9a6" stroke="transparent" points="187.5,-68 187.5,-89 273.5,-89 273.5,-68 187.5,-68"/>
<polygon fill="none" stroke="black" points="187.5,-68 187.5,-89 273.5,-89 273.5,-68 187.5,-68"/>
<text text-anchor="start" x="193" y="-74.8" font-family="Courier,monospace" font-size="14.00">imm3/ctrl</text>
<polygon fill="#ccebc5" stroke="transparent" points="273.5,-68 273.5,-89 342.5,-89 342.5,-68 273.5,-68"/>
<polygon fill="none" stroke="black" points="273.5,-68 273.5,-89 342.5,-89 342.5,-68 273.5,-68"/>
<text text-anchor="start" x="295.5" y="-74.8" font-family="Courier,monospace" font-size="14.00">ms2</text>
<polygon fill="#ccebc5" stroke="transparent" points="342.5,-68 342.5,-89 398.5,-89 398.5,-68 342.5,-68"/>
<polygon fill="none" stroke="black" points="342.5,-68 342.5,-89 398.5,-89 398.5,-68 342.5,-68"/>
<text text-anchor="start" x="345.5" y="-74.8" font-family="Courier,monospace" font-size="14.00">s_size</text>
<polygon fill="#ccebc5" stroke="transparent" points="398.5,-68 398.5,-89 467.5,-89 467.5,-68 398.5,-68"/>
<polygon fill="none" stroke="black" points="398.5,-68 398.5,-89 467.5,-89 467.5,-68 398.5,-68"/>
<text text-anchor="start" x="420.5" y="-74.8" font-family="Courier,monospace" font-size="14.00">ms1</text>
<polygon fill="#b3cde3" stroke="transparent" points="467.5,-68 467.5,-89 536.5,-89 536.5,-68 467.5,-68"/>
<polygon fill="none" stroke="black" points="467.5,-68 467.5,-89 536.5,-89 536.5,-68 467.5,-68"/>
<text text-anchor="start" x="477" y="-74.8" font-family="Courier,monospace" font-size="14.00">funct3</text>
<polygon fill="#ccebc5" stroke="transparent" points="536.5,-68 536.5,-89 592.5,-89 592.5,-68 536.5,-68"/>
<polygon fill="none" stroke="black" points="536.5,-68 536.5,-89 592.5,-89 592.5,-68 536.5,-68"/>
<text text-anchor="start" x="539.5" y="-74.8" font-family="Courier,monospace" font-size="14.00">d_size</text>
<polygon fill="#ccebc5" stroke="transparent" points="592.5,-68 592.5,-89 661.5,-89 661.5,-68 592.5,-68"/>
<polygon fill="none" stroke="black" points="592.5,-68 592.5,-89 661.5,-89 661.5,-68 592.5,-68"/>
<text text-anchor="start" x="618.5" y="-74.8" font-family="Courier,monospace" font-size="14.00">md</text>
<polygon fill="#fbb4ae" stroke="transparent" points="661.5,-68 661.5,-89 822.5,-89 822.5,-68 661.5,-68"/>
<polygon fill="none" stroke="black" points="661.5,-68 661.5,-89 822.5,-89 822.5,-68 661.5,-68"/>
<text text-anchor="start" x="692" y="-74.8" font-family="Courier,monospace" font-size="14.00">major opcode</text>
<polygon fill="#eeeeee" stroke="transparent" points="9.5,-47 9.5,-68 49.5,-68 49.5,-47 9.5,-47"/>
<polygon fill="none" stroke="black" points="9.5,-47 9.5,-68 49.5,-68 49.5,-47 9.5,-47"/>
<text text-anchor="start" x="25" y="-53.8" font-family="Courier,monospace" font-size="14.00">R</text>
<polygon fill="#b3cde3" stroke="transparent" points="49.5,-47 49.5,-68 141.5,-68 141.5,-47 49.5,-47"/>
<polygon fill="none" stroke="black" points="49.5,-47 49.5,-68 141.5,-68 141.5,-47 49.5,-47"/>
<text text-anchor="start" x="70.5" y="-53.8" font-family="Courier,monospace" font-size="14.00">funct4</text>
<polygon fill="#fed9a6" stroke="transparent" points="141.5,-47 141.5,-68 187.5,-68 187.5,-47 141.5,-47"/>
<polygon fill="none" stroke="black" points="141.5,-47 141.5,-68 187.5,-68 187.5,-47 141.5,-47"/>
<text text-anchor="start" x="152" y="-53.8" font-family="Courier,monospace" font-size="14.00">uop</text>
<polygon fill="#b3cde3" stroke="transparent" points="187.5,-47 187.5,-68 273.5,-68 273.5,-47 187.5,-47"/>
<polygon fill="none" stroke="black" points="187.5,-47 187.5,-68 273.5,-68 273.5,-47 187.5,-47"/>
<text text-anchor="start" x="213.5" y="-53.8" font-family="Courier,monospace" font-size="14.00">ctrl</text>
<polygon fill="#ccebc5" stroke="transparent" points="273.5,-47 273.5,-68 342.5,-68 342.5,-47 273.5,-47"/>
<polygon fill="none" stroke="black" points="273.5,-47 273.5,-68 342.5,-68 342.5,-47 273.5,-47"/>
<text text-anchor="start" x="295.5" y="-53.8" font-family="Courier,monospace" font-size="14.00">ms2</text>
<polygon fill="#ccebc5" stroke="transparent" points="342.5,-47 342.5,-68 467.5,-68 467.5,-47 342.5,-47"/>
<polygon fill="none" stroke="black" points="342.5,-47 342.5,-68 467.5,-68 467.5,-47 342.5,-47"/>
<text text-anchor="start" x="392.5" y="-53.8" font-family="Courier,monospace" font-size="14.00">rs1</text>
<polygon fill="#b3cde3" stroke="transparent" points="467.5,-47 467.5,-68 536.5,-68 536.5,-47 467.5,-47"/>
<polygon fill="none" stroke="black" points="467.5,-47 467.5,-68 536.5,-68 536.5,-47 467.5,-47"/>
<text text-anchor="start" x="477" y="-53.8" font-family="Courier,monospace" font-size="14.00">funct3</text>
<polygon fill="#ccebc5" stroke="transparent" points="536.5,-47 536.5,-68 661.5,-68 661.5,-47 536.5,-47"/>
<polygon fill="none" stroke="black" points="536.5,-47 536.5,-68 661.5,-68 661.5,-47 536.5,-47"/>
<text text-anchor="start" x="590.5" y="-53.8" font-family="Courier,monospace" font-size="14.00">rd</text>
<polygon fill="#fbb4ae" stroke="transparent" points="661.5,-47 661.5,-68 822.5,-68 822.5,-47 661.5,-47"/>
<polygon fill="none" stroke="black" points="661.5,-47 661.5,-68 822.5,-68 822.5,-47 661.5,-47"/>
<text text-anchor="start" x="692" y="-53.8" font-family="Courier,monospace" font-size="14.00">major opcode</text>
<polygon fill="#eeeeee" stroke="transparent" points="9.5,-26 9.5,-47 49.5,-47 49.5,-26 9.5,-26"/>
<polygon fill="none" stroke="black" points="9.5,-26 9.5,-47 49.5,-47 49.5,-26 9.5,-26"/>
<text text-anchor="start" x="25" y="-32.8" font-family="Courier,monospace" font-size="14.00">R</text>
<polygon fill="#b3cde3" stroke="transparent" points="49.5,-26 49.5,-47 141.5,-47 141.5,-26 49.5,-26"/>
<polygon fill="none" stroke="black" points="49.5,-26 49.5,-47 141.5,-47 141.5,-26 49.5,-26"/>
<text text-anchor="start" x="70.5" y="-32.8" font-family="Courier,monospace" font-size="14.00">funct4</text>
<polygon fill="#fed9a6" stroke="transparent" points="141.5,-26 141.5,-47 187.5,-47 187.5,-26 141.5,-26"/>
<polygon fill="none" stroke="black" points="141.5,-26 141.5,-47 187.5,-47 187.5,-26 141.5,-26"/>
<text text-anchor="start" x="152" y="-32.8" font-family="Courier,monospace" font-size="14.00">uop</text>
<polygon fill="#b3cde3" stroke="transparent" points="187.5,-26 187.5,-47 227.5,-47 227.5,-26 187.5,-26"/>
<polygon fill="none" stroke="black" points="187.5,-26 187.5,-47 227.5,-47 227.5,-26 187.5,-26"/>
<text text-anchor="start" x="190.5" y="-32.8" font-family="Courier,monospace" font-size="14.00">ctrl</text>
<polygon fill="#ccebc5" stroke="transparent" points="227.5,-26 227.5,-47 342.5,-47 342.5,-26 227.5,-26"/>
<polygon fill="none" stroke="black" points="227.5,-26 227.5,-47 342.5,-47 342.5,-26 227.5,-26"/>
<text text-anchor="start" x="272.5" y="-32.8" font-family="Courier,monospace" font-size="14.00">rs1</text>
<polygon fill="#ccebc5" stroke="transparent" points="342.5,-26 342.5,-47 467.5,-47 467.5,-26 342.5,-26"/>
<polygon fill="none" stroke="black" points="342.5,-26 342.5,-47 467.5,-47 467.5,-26 342.5,-26"/>
<text text-anchor="start" x="392.5" y="-32.8" font-family="Courier,monospace" font-size="14.00">rs1</text>
<polygon fill="#b3cde3" stroke="transparent" points="467.5,-26 467.5,-47 536.5,-47 536.5,-26 467.5,-26"/>
<polygon fill="none" stroke="black" points="467.5,-26 467.5,-47 536.5,-47 536.5,-26 467.5,-26"/>
<text text-anchor="start" x="477" y="-32.8" font-family="Courier,monospace" font-size="14.00">funct3</text>
<polygon fill="#ccebc5" stroke="transparent" points="536.5,-26 536.5,-47 592.5,-47 592.5,-26 536.5,-26"/>
<polygon fill="none" stroke="black" points="536.5,-26 536.5,-47 592.5,-47 592.5,-26 536.5,-26"/>
<text text-anchor="start" x="539.5" y="-32.8" font-family="Courier,monospace" font-size="14.00">d_size</text>
<polygon fill="#ccebc5" stroke="transparent" points="592.5,-26 592.5,-47 661.5,-47 661.5,-26 592.5,-26"/>
<polygon fill="none" stroke="black" points="592.5,-26 592.5,-47 661.5,-47 661.5,-26 592.5,-26"/>
<text text-anchor="start" x="618.5" y="-32.8" font-family="Courier,monospace" font-size="14.00">md</text>
<polygon fill="#fbb4ae" stroke="transparent" points="661.5,-26 661.5,-47 822.5,-47 822.5,-26 661.5,-26"/>
<polygon fill="none" stroke="black" points="661.5,-26 661.5,-47 822.5,-47 822.5,-26 661.5,-26"/>
<text text-anchor="start" x="692" y="-32.8" font-family="Courier,monospace" font-size="14.00">major opcode</text>
<polygon fill="#eeeeee" stroke="transparent" points="9.5,-5 9.5,-26 49.5,-26 49.5,-5 9.5,-5"/>
<polygon fill="none" stroke="black" points="9.5,-5 9.5,-26 49.5,-26 49.5,-5 9.5,-5"/>
<text text-anchor="start" x="25" y="-11.8" font-family="Courier,monospace" font-size="14.00">R</text>
<polygon fill="#b3cde3" stroke="transparent" points="49.5,-5 49.5,-26 141.5,-26 141.5,-5 49.5,-5"/>
<polygon fill="none" stroke="black" points="49.5,-5 49.5,-26 141.5,-26 141.5,-5 49.5,-5"/>
<text text-anchor="start" x="70.5" y="-11.8" font-family="Courier,monospace" font-size="14.00">funct4</text>
<polygon fill="#fed9a6" stroke="transparent" points="141.5,-5 141.5,-26 187.5,-26 187.5,-5 141.5,-5"/>
<polygon fill="none" stroke="black" points="141.5,-5 141.5,-26 187.5,-26 187.5,-5 141.5,-5"/>
<text text-anchor="start" x="152" y="-11.8" font-family="Courier,monospace" font-size="14.00">uop</text>
<polygon fill="#b3cde3" stroke="transparent" points="187.5,-5 187.5,-26 227.5,-26 227.5,-5 187.5,-5"/>
<polygon fill="none" stroke="black" points="187.5,-5 187.5,-26 227.5,-26 227.5,-5 187.5,-5"/>
<text text-anchor="start" x="190.5" y="-11.8" font-family="Courier,monospace" font-size="14.00">ctrl</text>
<polygon fill="#fed9a6" stroke="transparent" points="227.5,-5 227.5,-26 467.5,-26 467.5,-5 227.5,-5"/>
<polygon fill="none" stroke="black" points="227.5,-5 227.5,-26 467.5,-26 467.5,-5 227.5,-5"/>
<text text-anchor="start" x="306" y="-11.8" font-family="Courier,monospace" font-size="14.00">imm10[9:0]</text>
<polygon fill="#b3cde3" stroke="transparent" points="467.5,-5 467.5,-26 536.5,-26 536.5,-5 467.5,-5"/>
<polygon fill="none" stroke="black" points="467.5,-5 467.5,-26 536.5,-26 536.5,-5 467.5,-5"/>
<text text-anchor="start" x="477" y="-11.8" font-family="Courier,monospace" font-size="14.00">funct3</text>
<polygon fill="#ccebc5" stroke="transparent" points="536.5,-5 536.5,-26 661.5,-26 661.5,-5 536.5,-5"/>
<polygon fill="none" stroke="black" points="536.5,-5 536.5,-26 661.5,-26 661.5,-5 536.5,-5"/>
<text text-anchor="start" x="594.5" y="-11.8" font-family="Courier,monospace" font-size="14.00">0</text>
<polygon fill="#fbb4ae" stroke="transparent" points="661.5,-5 661.5,-26 822.5,-26 822.5,-5 661.5,-5"/>
<polygon fill="none" stroke="black" points="661.5,-5 661.5,-26 822.5,-26 822.5,-5 661.5,-5"/>
<text text-anchor="start" x="692" y="-11.8" font-family="Courier,monospace" font-size="14.00">major opcode</text>
<polygon fill="none" stroke="black" points="8,-4 8,-132 823,-132 823,-4 8,-4"/>
</g>
</g>
</svg>
