<?xml version="1.0" encoding="UTF-8" standalone="no"?>
<!DOCTYPE svg PUBLIC "-//W3C//DTD SVG 1.1//EN"
 "http://www.w3.org/Graphics/SVG/1.1/DTD/svg11.dtd">
<!-- Generated by graphviz version 2.40.1 (20161225.0304)
 -->
<!-- Title: state transitions Pages: 1 -->
<svg width="358pt" height="516pt"
 viewBox="0.00 0.00 358.27 516.00" xmlns="http://www.w3.org/2000/svg" xmlns:xlink="http://www.w3.org/1999/xlink">
<g id="graph0" class="graph" transform="scale(1 1) rotate(0) translate(4 512)">
<title>state transitions</title>
<polygon fill="#ffffff" stroke="transparent" points="-4,4 -4,-512 354.266,-512 354.266,4 -4,4"/>
<g id="clust1" class="cluster state regular">
<title>cluster_sign_ctrl_fsm_st</title>
<path fill="none" stroke="#000000" stroke-width="2" d="M20,-8C20,-8 286,-8 286,-8 292,-8 298,-14 298,-20 298,-20 298,-488 298,-488 298,-494 292,-500 286,-500 286,-500 20,-500 20,-500 14,-500 8,-494 8,-488 8,-488 8,-20 8,-20 8,-14 14,-8 20,-8"/>
<text text-anchor="start" x="109.6632" y="-481.2" font-family="Helvetica,sans-Serif" font-size="12.00" fill="#000000">sign_ctrl_fsm_st</text>
</g>
<!-- sign_ctrl_fsm_st -->
<!-- STARTER_ST -->
<g id="node2" class="node state regular">
<title>STARTER_ST</title>
<polygon fill="#ffffff" fill-opacity="0.003922" stroke="transparent" stroke-width="2" points="206,-462 106,-462 106,-426 206,-426 206,-462"/>
<text text-anchor="start" x="117" y="-440.2" font-family="Helvetica,sans-Serif" font-size="12.00" fill="#000000">STARTER_ST</text>
<path fill="none" stroke="#000000" stroke-width="2" d="M118.3333,-427C118.3333,-427 193.6667,-427 193.6667,-427 199.3333,-427 205,-432.6667 205,-438.3333 205,-438.3333 205,-449.6667 205,-449.6667 205,-455.3333 199.3333,-461 193.6667,-461 193.6667,-461 118.3333,-461 118.3333,-461 112.6667,-461 107,-455.3333 107,-449.6667 107,-449.6667 107,-438.3333 107,-438.3333 107,-432.6667 112.6667,-427 118.3333,-427"/>
</g>
<!-- POINT_GENERATOR_ST -->
<g id="node3" class="node state regular">
<title>POINT_GENERATOR_ST</title>
<polygon fill="#ffffff" fill-opacity="0.003922" stroke="transparent" stroke-width="2" points="179.5,-380 16.5,-380 16.5,-344 179.5,-344 179.5,-380"/>
<text text-anchor="start" x="27.8308" y="-358.2" font-family="Helvetica,sans-Serif" font-size="12.00" fill="#000000">POINT_GENERATOR_ST</text>
<path fill="none" stroke="#000000" stroke-width="2" d="M28.8333,-345C28.8333,-345 167.1667,-345 167.1667,-345 172.8333,-345 178.5,-350.6667 178.5,-356.3333 178.5,-356.3333 178.5,-367.6667 178.5,-367.6667 178.5,-373.3333 172.8333,-379 167.1667,-379 167.1667,-379 28.8333,-379 28.8333,-379 23.1667,-379 17.5,-373.3333 17.5,-367.6667 17.5,-367.6667 17.5,-356.3333 17.5,-356.3333 17.5,-350.6667 23.1667,-345 28.8333,-345"/>
</g>
<!-- STARTER_ST&#45;&gt;POINT_GENERATOR_ST -->
<g id="edge1" class="edge transition">
<title>STARTER_ST&#45;&gt;POINT_GENERATOR_ST</title>
<path fill="none" stroke="#000000" d="M143.1279,-425.8015C135.3936,-414.8668 125.4151,-400.7593 116.8087,-388.5916"/>
<polygon fill="#000000" stroke="#000000" points="119.4682,-386.2906 110.8361,-380.1476 113.7533,-390.3329 119.4682,-386.2906"/>
<text text-anchor="start" x="130" y="-400" font-family="Helvetica,sans-Serif" font-size="10.00" fill="#000000">START = &#39;1&#39; &#160;&#160;</text>
</g>
<!-- XOR_ST -->
<g id="node4" class="node state regular">
<title>XOR_ST</title>
<polygon fill="#ffffff" fill-opacity="0.003922" stroke="transparent" stroke-width="2" points="89,-298 19,-298 19,-262 89,-262 89,-298"/>
<text text-anchor="start" x="29.9976" y="-276.2" font-family="Helvetica,sans-Serif" font-size="12.00" fill="#000000">XOR_ST</text>
<path fill="none" stroke="#000000" stroke-width="2" d="M31.3333,-263C31.3333,-263 76.6667,-263 76.6667,-263 82.3333,-263 88,-268.6667 88,-274.3333 88,-274.3333 88,-285.6667 88,-285.6667 88,-291.3333 82.3333,-297 76.6667,-297 76.6667,-297 31.3333,-297 31.3333,-297 25.6667,-297 20,-291.3333 20,-285.6667 20,-285.6667 20,-274.3333 20,-274.3333 20,-268.6667 25.6667,-263 31.3333,-263"/>
</g>
<!-- POINT_GENERATOR_ST&#45;&gt;XOR_ST -->
<g id="edge2" class="edge transition">
<title>POINT_GENERATOR_ST&#45;&gt;XOR_ST</title>
<path fill="none" stroke="#000000" d="M79.0172,-343.9844C74.4544,-338.8575 69.9625,-333.0199 66.699,-327 63.5267,-321.1484 61.1044,-314.4493 59.2709,-307.978"/>
<polygon fill="#000000" stroke="#000000" points="62.6406,-307.0238 56.8511,-298.1506 55.8436,-308.6974 62.6406,-307.0238"/>
<text text-anchor="start" x="66" y="-318" font-family="Helvetica,sans-Serif" font-size="10.00" fill="#000000">ready_point_generator = &#39;1&#39; &#160;&#160;</text>
</g>
<!-- SUBTRACTOR_ST -->
<g id="node5" class="node state regular">
<title>SUBTRACTOR_ST</title>
<polygon fill="#ffffff" fill-opacity="0.003922" stroke="transparent" stroke-width="2" points="142,-216 16,-216 16,-180 142,-180 142,-216"/>
<text text-anchor="start" x="26.6698" y="-194.2" font-family="Helvetica,sans-Serif" font-size="12.00" fill="#000000">SUBTRACTOR_ST</text>
<path fill="none" stroke="#000000" stroke-width="2" d="M28.3333,-181C28.3333,-181 129.6667,-181 129.6667,-181 135.3333,-181 141,-186.6667 141,-192.3333 141,-192.3333 141,-203.6667 141,-203.6667 141,-209.3333 135.3333,-215 129.6667,-215 129.6667,-215 28.3333,-215 28.3333,-215 22.6667,-215 17,-209.3333 17,-203.6667 17,-203.6667 17,-192.3333 17,-192.3333 17,-186.6667 22.6667,-181 28.3333,-181"/>
</g>
<!-- XOR_ST&#45;&gt;SUBTRACTOR_ST -->
<g id="edge3" class="edge transition">
<title>XOR_ST&#45;&gt;SUBTRACTOR_ST</title>
<path fill="none" stroke="#000000" d="M59.5483,-261.8015C62.7526,-251.2915 66.8505,-237.8503 70.458,-226.0177"/>
<polygon fill="#000000" stroke="#000000" points="73.8987,-226.7336 73.4672,-216.1476 67.203,-224.6922 73.8987,-226.7336"/>
<text text-anchor="start" x="68" y="-236" font-family="Helvetica,sans-Serif" font-size="10.00" fill="#000000">r_enable_int = &#39;1&#39; &#160;&#160;</text>
</g>
<!-- ADDER_ST -->
<g id="node6" class="node state regular">
<title>ADDER_ST</title>
<polygon fill="#ffffff" fill-opacity="0.003922" stroke="transparent" stroke-width="2" points="132.5,-134 47.5,-134 47.5,-98 132.5,-98 132.5,-134"/>
<text text-anchor="start" x="58.5008" y="-112.2" font-family="Helvetica,sans-Serif" font-size="12.00" fill="#000000">ADDER_ST</text>
<path fill="none" stroke="#000000" stroke-width="2" d="M59.8333,-99C59.8333,-99 120.1667,-99 120.1667,-99 125.8333,-99 131.5,-104.6667 131.5,-110.3333 131.5,-110.3333 131.5,-121.6667 131.5,-121.6667 131.5,-127.3333 125.8333,-133 120.1667,-133 120.1667,-133 59.8333,-133 59.8333,-133 54.1667,-133 48.5,-127.3333 48.5,-121.6667 48.5,-121.6667 48.5,-110.3333 48.5,-110.3333 48.5,-104.6667 54.1667,-99 59.8333,-99"/>
</g>
<!-- SUBTRACTOR_ST&#45;&gt;ADDER_ST -->
<g id="edge4" class="edge transition">
<title>SUBTRACTOR_ST&#45;&gt;ADDER_ST</title>
<path fill="none" stroke="#000000" d="M61.9627,-179.9928C55.8823,-171.3629 51.4225,-160.7946 55.443,-151 56.7076,-147.9192 58.389,-144.9648 60.3307,-142.1698"/>
<polygon fill="#000000" stroke="#000000" points="63.1514,-144.2496 66.7807,-134.2957 57.7362,-139.8137 63.1514,-144.2496"/>
<text text-anchor="start" x="55" y="-154" font-family="Helvetica,sans-Serif" font-size="10.00" fill="#000000">unsigned(w_int) &lt; unsigned(BLACKPOOL512_N) &#160;&#160;</text>
</g>
<!-- ENDER_ST -->
<g id="node7" class="node state regular">
<title>ENDER_ST</title>
<polygon fill="#ffffff" fill-opacity="0.003922" stroke="transparent" stroke-width="2" points="226.5,-52 141.5,-52 141.5,-16 226.5,-16 226.5,-52"/>
<text text-anchor="start" x="152.5008" y="-30.2" font-family="Helvetica,sans-Serif" font-size="12.00" fill="#000000">ENDER_ST</text>
<path fill="none" stroke="#000000" stroke-width="2" d="M153.8333,-17C153.8333,-17 214.1667,-17 214.1667,-17 219.8333,-17 225.5,-22.6667 225.5,-28.3333 225.5,-28.3333 225.5,-39.6667 225.5,-39.6667 225.5,-45.3333 219.8333,-51 214.1667,-51 214.1667,-51 153.8333,-51 153.8333,-51 148.1667,-51 142.5,-45.3333 142.5,-39.6667 142.5,-39.6667 142.5,-28.3333 142.5,-28.3333 142.5,-22.6667 148.1667,-17 153.8333,-17"/>
</g>
<!-- ADDER_ST&#45;&gt;ENDER_ST -->
<g id="edge5" class="edge transition">
<title>ADDER_ST&#45;&gt;ENDER_ST</title>
<path fill="none" stroke="#000000" d="M110.8616,-97.8015C124.0051,-86.336 141.1472,-71.3822 155.5318,-58.8339"/>
<polygon fill="#000000" stroke="#000000" points="157.9618,-61.3588 163.1967,-52.1476 153.3602,-56.0838 157.9618,-61.3588"/>
<text text-anchor="start" x="143" y="-72" font-family="Helvetica,sans-Serif" font-size="10.00" fill="#000000">ready_adder = &#39;1&#39; &#160;&#160;</text>
</g>
<!-- ENDER_ST&#45;&gt;STARTER_ST -->
<g id="edge6" class="edge transition">
<title>ENDER_ST&#45;&gt;STARTER_ST</title>
<path fill="none" stroke="#000000" d="M226.7075,-42.5855C255.7773,-49.6985 289,-60.9099 289,-75 289,-142.5 289,-142.5 289,-142.5 289,-236.4083 203,-241.5917 203,-335.5 203,-403 203,-403 203,-403 203,-408.6848 201.0233,-413.7622 197.8807,-418.2424"/>
<polygon fill="#000000" stroke="#000000" points="195.2726,-415.9081 191.1399,-425.6637 200.4543,-420.6146 195.2726,-415.9081"/>
<text text-anchor="start" x="250" y="-236" font-family="Helvetica,sans-Serif" font-size="10.00" fill="#000000">ready_multiplier = &#39;1&#39; &#160;&#160;</text>
</g>
</g>
</svg>
